<?xml version="1.0" standalone="no"?>
<!DOCTYPE svg PUBLIC "-//W3C//DTD SVG 1.1//EN" "http://www.w3.org/Graphics/SVG/1.1/DTD/svg11.dtd" >
<svg xmlns="http://www.w3.org/2000/svg" xmlns:xlink="http://www.w3.org/1999/xlink" version="1.1">
<metadata>
Created by FontForge 20170731 at Thu Feb 23 23:43:16 2023
 By Aleksey,,,
Copyright 2022 Dinamo (Johannes Breyer, Fabian Harb). All rights reserved.
</metadata>
<defs>
<font id="ABCGaisyrMono-Book" horiz-adv-x="1187" >
  <font-face 
    font-family="ABC Gaisyr Mono Book"
    font-weight="400"
    font-stretch="normal"
    units-per-em="2048"
    panose-1="2 4 5 9 6 2 5 6 3 3"
    ascent="1638"
    descent="-410"
    x-height="942"
    cap-height="1434"
    bbox="0 -612 4639 1888"
    underline-thickness="102"
    underline-position="-358"
    unicode-range="U+0020-FB02"
  />
<missing-glyph 
d="M123 0v1434h942v-1434h-942zM307 82h574v1270h-574v-1270z" />
    <glyph glyph-name=".notdef" 
d="M123 0v1434h942v-1434h-942zM307 82h574v1270h-574v-1270z" />
    <glyph glyph-name=".null" horiz-adv-x="0" 
 />
    <glyph glyph-name="nonmarkingreturn" horiz-adv-x="682" 
 />
    <glyph glyph-name="space" unicode=" " 
 />
    <glyph glyph-name="exclam" unicode="!" 
d="M492 1331q-9 133 102 133t102 -133l-65 -991h-74zM451 106q0 62 40.5 104t102.5 42q60 0 101.5 -39.5t41.5 -99.5q0 -61 -40.5 -103.5t-102.5 -42.5q-60 0 -101.5 39.5t-41.5 99.5z" />
    <glyph glyph-name="quotedbl" unicode="&#x22;" 
d="M317 1331q-9 65 19.5 99t83.5 34t83 -34t19 -99l-55 -389h-94zM666 1331q-9 65 19 99t83 34t83 -34t19 -99l-55 -389h-94z" />
    <glyph glyph-name="numbersign" unicode="#" 
d="M121 891l20 119h244l76 424h137l-76 -424h246l76 424h137l-76 -424h242l-21 -119h-241l-62 -346h244l-20 -119h-244l-76 -426h-137l76 426h-246l-76 -426h-137l76 426h-242l20 119h242l62 346h-244zM440 545h246l62 346h-246z" />
    <glyph glyph-name="dollar" unicode="$" 
d="M547 -291v260q-111 3 -212.5 39t-162.5 80v281h57q84 -278 318 -291v563l-80 31q-127 47 -203 148t-76 233q0 151 100 264t259 141v180h123v-176q168 -9 280 -92v-258h-57q-25 103 -83.5 162.5t-139.5 75.5v-523l102 -36q121 -44 191.5 -140.5t70.5 -232.5
q0 -160 -98 -282.5t-266 -155.5v-271h-123zM358 1122q0 -172 189 -250v478q-86 -15 -137.5 -75.5t-51.5 -152.5zM670 92q87 24 140.5 91.5t53.5 164.5q0 87 -45.5 148.5t-148.5 99.5v-504z" />
    <glyph glyph-name="percent" unicode="%" 
d="M53 -33l928 1497h154l-928 -1497h-154zM20 1147q0 148 88 232.5t211 84.5q116 0 199.5 -84.5t83.5 -232.5t-88 -234t-211 -86q-116 0 -199.5 86t-83.5 234zM184 1145q0 -240 127 -240t127 240q0 241 -127 241t-127 -241zM586 287q0 148 88 232.5t211 84.5
q116 0 199 -84.5t83 -232.5t-88 -234t-211 -86q-116 0 -199 86t-83 234zM750 285q0 -240 127 -240t127 240q0 241 -127 241t-127 -241z" />
    <glyph glyph-name="ampersand" unicode="&#x26;" 
d="M909 0q-77 0 -115 29t-89 110l-19 31q-78 -99 -153 -150t-168 -51q-78 0 -141.5 31t-102.5 82t-59.5 113t-20.5 127q0 76 23 142.5t64.5 119t86.5 91t102 75.5l-41 65q-126 201 -126 348q0 134 91.5 217.5t229.5 83.5q134 0 215.5 -80t81.5 -202q0 -56 -18.5 -109
t-45 -91.5t-66 -77t-69 -61.5t-67.5 -48q84 -129 248 -387q143 243 143 346q0 36 -17.5 49.5t-50.5 13.5h-43v68h355v-68h-35q-41 0 -65 -31t-60 -116q-65 -165 -174 -342q18 -31 65 -103q59 -92 107.5 -124.5t130.5 -32.5h31v-68h-228zM215 383q0 -123 59.5 -187.5
t151.5 -64.5q61 0 111.5 28.5t101.5 84.5q-48 75 -142.5 224t-142.5 224q-139 -135 -139 -309zM309 1210q0 -116 119 -301l37 -55q151 121 151 315q0 93 -41 147t-116 54q-68 0 -109 -43t-41 -117z" />
    <glyph glyph-name="quotesingle" unicode="'" 
d="M492 1331q-9 65 19 99t83 34t83 -34t19 -99l-55 -389h-94z" />
    <glyph glyph-name="parenleft" unicode="(" 
d="M989 -502q-127 42 -233.5 102t-182 127t-134 146t-94 155.5t-58.5 160.5t-32 156.5t-9 146.5t9 146.5t32 156.5t58.5 160.5t94 155.5t134 145.5t182 126.5t233.5 102v-72q-125 -53 -220.5 -136.5t-153 -175t-94 -201t-49.5 -207t-13 -201.5t13 -201.5t49.5 -207.5
t94 -201.5t153 -175t220.5 -136.5v-72z" />
    <glyph glyph-name="parenright" unicode=")" 
d="M199 -430q125 53 220.5 136.5t153 175t94 201.5t49.5 207.5t13 201.5t-13 201.5t-49.5 207t-94 201t-153 175t-220.5 136.5v72q127 -42 233.5 -102t182 -126.5t134 -145.5t94 -155.5t58.5 -160.5t32 -156.5t9 -146.5t-9 -146.5t-32 -156.5t-58.5 -160.5t-94 -155.5
t-134 -146t-182 -127t-233.5 -102v72z" />
    <glyph glyph-name="asterisk" unicode="*" 
d="M244 1343q13 36 42.5 50.5t63.5 3.5q27 -10 94.5 -64.5t130.5 -85.5q-8 69 -36.5 151.5t-28.5 110.5q0 36 22.5 59t61.5 23t61.5 -23t22.5 -59q0 -28 -29 -110.5t-37 -151.5q63 31 131 85.5t95 64.5q34 11 63.5 -3.5t42.5 -50.5q12 -38 -2.5 -66t-48.5 -40
q-27 -9 -109.5 -8t-160.5 -15q48 -54 119.5 -104.5t88.5 -73.5q21 -29 16 -61t-36 -55q-34 -23 -65 -17.5t-52 35.5q-16 23 -40 107.5t-60 146.5q-36 -62 -60 -146.5t-40 -107.5q-21 -30 -52 -35.5t-65 17.5q-32 23 -37 55t16 61q17 23 89 73.5t120 104.5q-70 16 -160.5 15
t-109.5 8q-34 12 -48.5 40t-2.5 66z" />
    <glyph glyph-name="plus" unicode="+" 
d="M516 268v396h-389v143h389v395h156v-395h389v-143h-389v-396h-156z" />
    <glyph glyph-name="comma" unicode="," 
d="M319 -279q92 13 159.5 42t104 67t53.5 77t17 79q0 24 -6 45q-36 -31 -84 -31q-52 0 -83 32.5t-31 86.5q0 61 40.5 97t96.5 36q73 0 119.5 -59.5t46.5 -159.5q0 -66 -23 -126t-71.5 -114.5t-135 -93.5t-203.5 -55v77z" />
    <glyph glyph-name="hyphen" unicode="-" 
d="M242 498v112h704v-112h-704z" />
    <glyph glyph-name="period" unicode="." 
d="M594 -33q-60 0 -101.5 39.5t-41.5 99.5q0 62 40.5 104t102.5 42q60 0 101.5 -39.5t41.5 -99.5q0 -61 -40.5 -103.5t-102.5 -42.5z" />
    <glyph glyph-name="slash" unicode="/" 
d="M61 -33l873 1497h192l-872 -1497h-193z" />
    <glyph glyph-name="zero" unicode="0" 
d="M575 -31q-212 0 -333 192t-121 537q0 191 39 340.5t107 241t155.5 138t189.5 46.5q212 0 333.5 -192t121.5 -537q0 -191 -39 -340.5t-107.5 -241t-156 -138t-189.5 -46.5zM328 709q0 -150 12.5 -262t34.5 -182t56 -113t71.5 -59.5t85.5 -16.5q50 0 89 17.5t74.5 61.5
t58.5 116.5t36.5 186.5t13.5 267q0 150 -12.5 262t-34.5 182t-56 113t-71.5 59.5t-85.5 16.5q-50 0 -89 -17.5t-74.5 -61.5t-58.5 -116.5t-36.5 -186.5t-13.5 -267z" />
    <glyph glyph-name="one" unicode="1" 
d="M236 0v68h180q75 0 105 32.5t30 124.5v963q0 43 -22 56.5t-62 -3.5l-311 -135v104l520 252h69v-1237q0 -92 30.5 -124.5t105.5 -32.5h155v-68h-800z" />
    <glyph glyph-name="two" unicode="2" 
d="M90 0v80l367 350q64 61 99 96.5t89.5 100t83.5 115t51.5 118t22.5 133.5q0 147 -69.5 228.5t-188.5 81.5q-122 0 -216.5 -75t-113.5 -188h-65q20 195 149 309.5t313 114.5q178 0 283.5 -107.5t105.5 -281.5q0 -80 -22.5 -157t-52 -132t-82 -117.5t-86.5 -96.5t-92 -87
l-330 -303v-12h467q52 0 84 10t50.5 35t26.5 56.5t13 86.5h76l-21 -358h-942z" />
    <glyph glyph-name="three" unicode="3" 
d="M532 -31q-113 0 -209.5 31t-156.5 89t-60 132q0 53 30 83t81 30q53 0 80.5 -31t32.5 -84q6 -74 59.5 -116t145.5 -42q156 0 240.5 95.5t84.5 238.5t-93.5 219t-240.5 76q-97 0 -202 -28v75q255 82 362 165.5t107 193.5q0 98 -66.5 158.5t-187.5 60.5q-114 0 -192.5 -55
t-104.5 -142h-70q34 166 157.5 256t288.5 90q91 0 163 -26.5t115.5 -71t66 -98.5t22.5 -113q0 -120 -90.5 -211.5t-282.5 -159.5v-8q196 19 320.5 -79t124.5 -275q0 -196 -146.5 -324.5t-378.5 -128.5z" />
    <glyph glyph-name="four" unicode="4" 
d="M487 0v68h78q59 0 87 21.5t28 72.5v272h-660v60l766 970h74v-897h98q60 0 85.5 26.5t25.5 88.5v49h68v-446h-68v34q0 62 -25.5 88.5t-85.5 26.5h-98v-272q0 -51 26.5 -72.5t82.5 -21.5h78v-68h-560zM225 567h455v588h-10l-445 -577v-11z" />
    <glyph glyph-name="five" unicode="5" 
d="M530 -31q-113 0 -209.5 31t-156.5 89t-60 132q0 53 30 83t81 30q53 0 80.5 -31t32.5 -84q6 -74 59.5 -116t144.5 -42q149 0 240.5 103.5t91.5 271.5q0 153 -84 234.5t-225 81.5q-171 0 -283 -115h-92l70 797h760v-295h-68q-2 73 -19.5 99t-70.5 26h-485l-39 -471h16
q113 98 285 98q195 0 309.5 -118t114.5 -322q0 -220 -144 -351t-379 -131z" />
    <glyph glyph-name="six" unicode="6" 
d="M586 -33q-98 0 -185.5 35.5t-155 101.5t-107.5 169.5t-40 230.5q0 112 31.5 221t86 198.5t126 170t151 142.5t162.5 110t160 77.5t143 40.5v-73q-102 -22 -203 -83.5t-179.5 -141t-135.5 -169.5t-78 -172h19q98 88 254 88q195 0 325 -123.5t130 -324.5
q0 -209 -146 -353.5t-358 -144.5zM299 451q0 -174 77.5 -273.5t221.5 -99.5q137 0 212 88.5t75 249.5q0 183 -79.5 286t-223.5 103q-139 0 -211 -91.5t-72 -262.5z" />
    <glyph glyph-name="seven" unicode="7" 
d="M330 0l616 1243h-594q-73 0 -96.5 -22.5t-32.5 -96.5h-67l28 310h963v-45l-678 -1389h-139z" />
    <glyph glyph-name="eight" unicode="8" 
d="M580 -31q-217 0 -350.5 105t-133.5 270q0 125 84 226.5t258 170.5l-26 13q-120 52 -183 136.5t-63 190.5q0 166 133 274.5t332 108.5q99 0 182 -27t135.5 -72.5t81.5 -102t29 -117.5q0 -64 -30 -128.5t-94 -124.5t-153 -101l27 -13q137 -59 209 -139.5t72 -208.5
q0 -85 -34 -166.5t-96 -147.5t-161 -106.5t-219 -40.5zM279 354q0 -119 88 -196.5t227 -77.5q142 0 226.5 80.5t84.5 193.5q0 186 -229 285l-156 68q-123 -62 -182 -158t-59 -195zM350 1133q0 -155 185 -236l163 -72q88 44 134.5 118t46.5 159q0 107 -74.5 182.5
t-192.5 75.5q-112 0 -187 -61t-75 -166z" />
    <glyph glyph-name="nine" unicode="9" 
d="M229 41q119 14 217 58.5t162 104.5t111.5 137t71.5 148t36 146h-12q-95 -88 -252 -88q-201 0 -333 120.5t-132 309.5q0 131 66.5 243t183 178t256.5 66q98 0 184.5 -34.5t154.5 -101t107.5 -173t39.5 -240.5q0 -177 -65 -346.5t-176.5 -300.5t-274 -213.5t-345.5 -87.5
v74zM303 1022q0 -167 80.5 -267t226.5 -100q133 0 206 87t73 247q0 169 -78 267t-223 98q-135 0 -210 -87.5t-75 -244.5z" />
    <glyph glyph-name="colon" unicode=":" 
d="M594 -33q-60 0 -101.5 39.5t-41.5 99.5q0 62 40.5 104t102.5 42q60 0 101.5 -39.5t41.5 -99.5q0 -61 -40.5 -103.5t-102.5 -42.5zM451 741q0 62 40.5 104t102.5 42q60 0 101.5 -39.5t41.5 -99.5q0 -61 -40.5 -103.5t-102.5 -42.5q-60 0 -101.5 39.5t-41.5 99.5z" />
    <glyph glyph-name="semicolon" unicode=";" 
d="M342 -279q92 13 159.5 42t104 67t53.5 77t17 79q0 24 -6 45q-36 -31 -84 -31q-52 0 -83.5 32.5t-31.5 86.5q0 61 40.5 97t96.5 36q73 0 119.5 -59.5t46.5 -159.5q0 -66 -22.5 -126t-71 -114.5t-135 -93.5t-203.5 -55v77zM463 741q0 62 40.5 104t102.5 42
q61 0 102.5 -39.5t41.5 -99.5q0 -61 -41 -103.5t-103 -42.5q-60 0 -101.5 39.5t-41.5 99.5z" />
    <glyph glyph-name="less" unicode="&#x3c;" 
d="M1061 295l-934 348v184l934 349v-158l-782 -283l782 -282v-158z" />
    <glyph glyph-name="equal" unicode="=" 
d="M127 868v144h934v-144h-934zM127 459v143h934v-143h-934z" />
    <glyph glyph-name="greater" unicode="&#x3e;" 
d="M127 295v158l782 282l-782 283v158l934 -349v-184z" />
    <glyph glyph-name="question" unicode="?" 
d="M489 340q-4 33 -3.5 65t3 58.5t11 55t15 49t21 47.5t24 43t28 42t28 39t29.5 39q34 44 53 70.5t42 66.5t33.5 78.5t10.5 79.5q0 101 -68.5 165.5t-183.5 64.5q-124 0 -211.5 -77t-95.5 -186h-65q3 195 125.5 309.5t310.5 114.5q175 0 282 -100t107 -264
q0 -64 -15.5 -117.5t-53 -106t-69 -86.5t-93.5 -94q-46 -45 -73 -75.5t-58 -76t-45.5 -96t-14.5 -108.5h-74zM385 106q0 62 40.5 104t102.5 42q61 0 102.5 -39.5t41.5 -99.5q0 -61 -41 -103.5t-103 -42.5q-60 0 -101.5 39.5t-41.5 99.5z" />
    <glyph glyph-name="at" unicode="@" 
d="M545 -360q-228 0 -362 179t-134 496q0 160 27 314.5t81.5 290.5t131 239t182 163t227.5 60q140 0 241 -84.5t150.5 -230.5t49.5 -338q0 -295 -98.5 -482.5t-247.5 -187.5q-126 0 -146 138h-18q-24 -63 -59 -101.5t-74 -38.5q-53 0 -90 71.5t-37 223.5q0 151 35.5 297.5
t94.5 239t122 92.5q67 0 81 -115h21l14 97h117l-86 -644q-9 -75 8.5 -119t59.5 -44q60 0 107 92.5t69 222.5t22 266q0 263 -98 403t-250 140q-118 0 -217 -80t-164 -213.5t-101 -305t-36 -355.5q0 -277 103 -430.5t292 -153.5q212 0 355 229h77q-77 -165 -191.5 -248
t-258.5 -83zM492 356q0 -88 14 -123.5t47 -35.5q78 0 100 159l39 283q14 88 2 150.5t-49 62.5q-41 0 -77 -77t-56 -191t-20 -228z" />
    <glyph glyph-name="A" unicode="A" 
d="M18 0v68h39q52 0 83.5 37t49.5 110l310 1231h227l301 -1270q17 -69 36 -88.5t64 -19.5h41v-68h-487v68h94q74 0 49 108l-77 342h-355l-67 -278q-45 -172 80 -172h59v-68h-447zM428 655h287l-131 578h-15z" />
    <glyph glyph-name="B" unicode="B" 
d="M63 0v68h64q56 0 75 24.5t19 91.5v1065q0 66 -18 91.5t-76 25.5h-64v68h484q221 0 353 -98t132 -257q0 -123 -84 -209.5t-241 -121.5v-17q174 -20 280.5 -108.5t106.5 -241.5q0 -170 -140 -275.5t-407 -105.5h-484zM430 219q0 -80 32 -109.5t118 -29.5h14
q128 0 205.5 73.5t77.5 208.5q0 155 -99.5 237.5t-253.5 82.5h-94v-463zM430 786h94q124 0 207.5 74t83.5 213q0 142 -90.5 208.5t-245.5 66.5h-49v-562z" />
    <glyph glyph-name="C" unicode="C" 
d="M688 -33q-273 0 -426 193.5t-153 535.5q0 177 47 322.5t130 242.5t197.5 150t249.5 53q86 0 173.5 -22.5t142.5 -57.5l16 -272h-61q-44 124 -126.5 183t-185.5 59q-58 0 -109.5 -20t-99.5 -67.5t-82 -118.5t-54.5 -180.5t-20.5 -246.5q0 -643 368 -643q120 0 205.5 72.5
t140.5 238.5h58l-8 -270q-75 -65 -180 -108.5t-222 -43.5z" />
    <glyph glyph-name="D" unicode="D" 
d="M31 0v68h53q56 0 75 24.5t19 91.5v1065q0 66 -18 91.5t-76 25.5h-53v68h465q130 0 231.5 -34.5t170 -95t113 -149t64 -191.5t19.5 -227q0 -166 -37.5 -299.5t-112.5 -232t-195.5 -152t-279.5 -53.5h-438zM387 215q0 -68 22 -92.5t91 -24.5h20q122 0 203 78t117.5 215
t36.5 332q0 289 -95 450.5t-293 161.5h-102v-1120z" />
    <glyph glyph-name="E" unicode="E" 
d="M72 0v68h84q56 0 75 24.5t19 91.5v1065q0 66 -18 91.5t-76 25.5h-84v68h948l20 -320h-67q-21 87 -51 132.5t-85 67t-151 21.5h-113q-66 0 -90 -21.5t-24 -80.5v-442h131q79 0 121.5 17t63 52t38.5 109h68v-457h-68q-13 56 -26.5 87.5t-38 54t-61.5 30.5t-97 8h-131v-487
q0 -62 24 -84.5t90 -22.5h146q82 0 131.5 8.5t85.5 34t54.5 67t31.5 111.5h68l-21 -319h-997z" />
    <glyph glyph-name="F" unicode="F" 
d="M72 0v68h82q57 0 76.5 24.5t19.5 91.5v1065q0 66 -18 91.5t-76 25.5h-84v68h1009l23 -349h-68q-33 138 -96.5 194t-202.5 56h-164q-66 0 -90 -21.5t-24 -80.5v-453h192q79 0 121.5 17.5t63 53t38.5 110.5h68v-478h-68q-25 122 -66 160.5t-157 38.5h-192v-498
q0 -68 22 -92t92 -24h97v-68h-598z" />
    <glyph glyph-name="G" unicode="G" 
d="M625 -33q-156 0 -274 92.5t-180 254t-62 368.5q0 178 47.5 326t129.5 247.5t192.5 154t236.5 54.5q166 0 305 -80l16 -272h-61q-39 123 -118.5 182.5t-174.5 59.5q-158 0 -257 -161t-99 -484q0 -188 35 -329t109.5 -224.5t182.5 -83.5q86 0 146.5 53.5t60.5 169.5v156
q0 58 -19 82t-69 24h-110v68h473v-68h-29q-39 0 -54.5 -24t-15.5 -82v-293q-75 -83 -181.5 -137t-229.5 -54z" />
    <glyph glyph-name="H" unicode="H" 
d="M653 0v68h52q56 0 75 24.5t19 91.5v494h-410v-494q0 -67 19 -91.5t75 -24.5h52v-68h-502v68h53q56 0 75 24.5t19 91.5v1065q0 66 -18 91.5t-76 25.5h-53v68h502v-68h-52q-58 0 -76 -25.5t-18 -91.5v-458h410v458q0 66 -18 91.5t-76 25.5h-52v68h502v-68h-53
q-58 0 -76 -25.5t-18 -91.5v-1065q0 -67 19 -91.5t75 -24.5h53v-68h-502z" />
    <glyph glyph-name="I" unicode="I" 
d="M987 0h-786v68h153q75 0 105 32t30 125v983q0 87 -34.5 122.5t-100.5 35.5h-153v68h786v-68h-153q-66 0 -101 -35.5t-35 -122.5v-983q0 -93 30.5 -125t105.5 -32h153v-68z" />
    <glyph glyph-name="J" unicode="J" 
d="M498 -33q-94 0 -171 21.5t-125 55t-81 75t-46.5 79.5t-13.5 72q0 55 34.5 87t82.5 32q56 0 85 -41t34 -102q2 -27 6 -48t17.5 -49.5t33.5 -47.5t58 -32.5t88 -13.5q100 0 147 54.5t47 179.5v919q0 87 -34.5 122.5t-100.5 35.5h-174v68h766v-68h-113q-66 0 -100.5 -35.5
t-34.5 -122.5v-860q0 -175 -105.5 -278t-299.5 -103z" />
    <glyph glyph-name="K" unicode="K" 
d="M649 0v68h76q40 0 47.5 25t-16.5 63l-295 483q-18 28 -31.5 36.5t-42.5 8.5v-500q0 -67 19 -91.5t75 -24.5h33v-68h-481v68h51q56 0 75 24.5t19 91.5v1065q0 66 -18 91.5t-76 25.5h-51v68h502v-68h-54q-58 0 -76 -25.5t-18 -91.5v-450h4q33 0 51.5 11t42.5 42l316 403
q37 47 29 79t-60 32h-70v68h467v-68h-41q-53 0 -93 -23t-81 -77l-362 -457l389 -627q40 -65 71.5 -89.5t82.5 -24.5h26v-68h-510z" />
    <glyph glyph-name="L" unicode="L" 
d="M72 0v68h84q56 0 75 24.5t19 91.5v1065q0 66 -18 91.5t-76 25.5h-84v68h594v-68h-113q-58 0 -76 -25.5t-18 -91.5v-1044q0 -62 24 -84.5t90 -22.5h185q143 0 200.5 43.5t81.5 177.5h68l-21 -319h-1015z" />
    <glyph glyph-name="M" unicode="M" 
d="M33 0v68h33q44 0 63.5 38t22.5 132l38 1026q2 50 -11 72t-48 22h-84v76h379l139 -1004h25l147 1004h404v-68h-80q-39 0 -54 -28.5t-12 -98.5l37 -1024q3 -90 21.5 -118.5t66.5 -28.5h35v-68h-405v68h34q60 0 76.5 26.5t13.5 120.5l-43 1092h-22l-170 -1172h-150
l-170 1172h-22l-35 -1065q-3 -96 16.5 -135t65.5 -39h29v-68h-340z" />
    <glyph glyph-name="N" unicode="N" 
d="M41 0v68h22q78 0 108 29.5t30 121.5v1090q-21 32 -41 40.5t-66 8.5h-53v76h403l396 -1108h18v868q0 101 -34.5 136.5t-98.5 35.5h-63v68h485v-68h-23q-78 0 -107.5 -30t-29.5 -122v-1214h-215l-424 1182h-18v-942q0 -101 34.5 -136.5t98.5 -35.5h63v-68h-485z" />
    <glyph glyph-name="O" unicode="O" 
d="M582 -33q-102 0 -191 49t-155 139t-104 228t-38 307q0 350 145 562t367 212q102 0 191 -49t155 -139t104 -228t38 -307q0 -350 -145 -562t-367 -212zM311 709q0 -631 281 -631q138 0 211.5 161t73.5 484q0 315 -71.5 473t-207.5 158q-139 0 -213 -161t-74 -484z" />
    <glyph glyph-name="P" unicode="P" 
d="M72 0v68h84q56 0 75 24.5t19 91.5v1065q0 66 -18 91.5t-78 25.5h-82v68h503q255 0 404 -119t149 -309q0 -112 -51 -208t-145.5 -154t-212.5 -58q-138 0 -260 51v-453q0 -68 24 -92t99 -24h71v-68h-581zM459 715q72 -27 149 -27q140 0 221.5 79.5t81.5 223.5
q0 86 -32 155.5t-87 112.5t-125 66t-149 23h-59v-633z" />
    <glyph glyph-name="Q" unicode="Q" 
d="M592 78q138 0 211.5 161t73.5 484q0 315 -71.5 473t-207.5 158q-139 0 -213 -161t-74 -484q0 -631 281 -631zM94 690q0 350 145 562t367 212q102 0 191 -49t155 -139t104 -228t38 -307q0 -304 -111.5 -506t-292.5 -253q24 -98 78 -147.5t147 -49.5q71 0 129.5 31
t85.5 102h58q-32 -121 -128.5 -183.5t-215.5 -62.5q-128 0 -222 74t-135 231q-175 43 -284 230.5t-109 482.5z" />
    <glyph glyph-name="R" unicode="R" 
d="M1026 0q-112 0 -160.5 34t-77.5 138l-100 358q-12 42 -30.5 72t-39 47.5t-50.5 27t-57.5 12.5t-66.5 3h-55v-508q0 -68 22.5 -92t92.5 -24h71v-68h-542v68h53q56 0 75 24.5t19 91.5v1065q0 66 -18 91.5t-76 25.5h-53v68h485q236 0 376 -96.5t140 -256.5
q0 -127 -91.5 -213.5t-270.5 -115.5v-17q74 -9 135.5 -66t95.5 -157l107 -319q26 -78 45.5 -101.5t68.5 -23.5h43v-68h-141zM389 797h76q170 0 261 69.5t91 208.5q0 273 -377 273h-51v-551z" />
    <glyph glyph-name="S" unicode="S" 
d="M551 -31q-115 0 -220.5 36.5t-168.5 82.5v281h57q90 -291 342 -291q126 0 209.5 73t83.5 197q0 87 -45.5 148.5t-149.5 99.5l-202 76q-127 47 -203 148t-76 233q0 173 126 292t319 119q93 0 176.5 -25.5t140.5 -68.5v-258h-57q-30 122 -106.5 183t-180.5 61
q-109 0 -178.5 -63.5t-69.5 -170.5q0 -180 207 -256l207 -75q121 -44 191.5 -140.5t70.5 -232.5q0 -120 -55.5 -221.5t-165 -164.5t-252.5 -63z" />
    <glyph glyph-name="T" unicode="T" 
d="M283 0v68h92q70 0 92 24t22 92v1141h-83q-143 0 -202 -46.5t-65 -164.5h-67v320h1044v-320h-67q-6 118 -65 164.5t-202 46.5h-84v-1141q0 -68 22.5 -92t92.5 -24h92v-68h-622z" />
    <glyph glyph-name="U" unicode="U" 
d="M578 -33q-75 0 -144 21.5t-130.5 66.5t-98.5 126t-37 188v880q0 65 -18.5 91t-77.5 26h-31v68h502v-68h-72q-58 0 -76 -25.5t-18 -91.5v-811q0 -307 252 -307q117 0 173 70t56 215v778q0 101 -34.5 136.5t-98.5 35.5h-63v68h485v-68h-23q-78 0 -107.5 -30t-29.5 -122
v-806q0 -214 -109 -327.5t-300 -113.5z" />
    <glyph glyph-name="V" unicode="V" 
d="M197 1257q-18 71 -35.5 90t-61.5 19h-73v68h553v-68h-95q-54 0 -69 -26.5t-2 -82.5l225 -921h16l215 878q21 76 2 114t-90 38h-71v68h450v-68h-31q-61 0 -87.5 -30.5t-47.5 -116.5l-305 -1231h-172z" />
    <glyph glyph-name="W" unicode="W" 
d="M131 1260q-8 64 -21.5 85t-48.5 21h-34v68h426v-68h-80q-53 0 -71.5 -22t-12.5 -84l108 -992h25l127 967h149l107 -967h29l118 955q10 80 -8 111.5t-65 31.5h-88v68h370v-68h-18q-42 0 -58 -32.5t-26 -116.5l-154 -1217h-190l-103 940h-22l-119 -940h-190z" />
    <glyph glyph-name="X" unicode="X" 
d="M635 0v68h92q41 0 52.5 30.5t-13.5 77.5l-197 383h-18l-195 -344q-35 -61 -22.5 -104t63.5 -43h62v-68h-432v68h32q44 0 73.5 25.5t74.5 101.5l293 497l-291 565q-33 62 -59.5 85.5t-67.5 23.5h-45v68h526v-68h-92q-41 0 -52.5 -31t13.5 -78l182 -354h19l178 314
q35 63 23.5 106t-64.5 43h-68v68h441v-68h-35q-43 0 -73.5 -26.5t-73.5 -100.5l-277 -469l305 -594q32 -63 59 -85.5t68 -22.5h45v-68h-526z" />
    <glyph glyph-name="Y" unicode="Y" 
d="M207 1257q-35 69 -61 89t-68 20h-51v68h546v-68h-88q-111 0 -57 -109l207 -413h18l187 387q32 63 14.5 99t-86.5 36h-57v68h450v-68h-47q-46 0 -77 -27.5t-66 -99.5l-271 -549v-506q0 -68 22.5 -92t92.5 -24h92v-68h-622v68h92q70 0 92.5 24t22.5 92v510z" />
    <glyph glyph-name="Z" unicode="Z" 
d="M123 0v63l665 1262h-264q-143 0 -217.5 -48t-87.5 -163h-67l28 320h856v-64l-665 -1261h319q148 0 221 47.5t80 162.5h68l-12 -319h-924z" />
    <glyph glyph-name="bracketleft" unicode="[" 
d="M348 -471v1948h656v-68h-291q-107 0 -141.5 -35t-34.5 -143v-1456q0 -49 3.5 -76.5t12.5 -50t30 -32.5t50.5 -14.5t79.5 -4.5h291v-68h-656z" />
    <glyph glyph-name="backslash" unicode="\" 
d="M1126 -33h-192l-873 1497h193z" />
    <glyph glyph-name="bracketright" unicode="]" 
d="M840 -471h-656v68h291q50 0 79.5 4.5t50.5 14.5t30 32.5t12.5 50t3.5 76.5v1456q0 108 -34.5 143t-141.5 35h-291v68h656v-1948z" />
    <glyph glyph-name="underscore" unicode="_" 
d="M86 -145v112h1016v-112h-1016z" />
    <glyph glyph-name="grave" unicode="`" 
d="M600 1032l-174 445h190l21 -445h-37z" />
    <glyph glyph-name="a" unicode="a" 
d="M406 -33q-125 0 -196 63.5t-71 166.5q0 100 67 169.5t195 90.5l328 55v164q0 108 -43.5 159.5t-138.5 51.5q-80 0 -125 -33t-45 -96q0 -12 3 -36t3 -34q0 -48 -25.5 -76t-76.5 -28q-47 0 -75 27.5t-28 84.5q0 113 110 187.5t275 74.5q158 0 254.5 -71.5t95.5 -188.5
l-6 -471q-1 -61 21 -94t65 -33q42 0 66.5 30t30.5 83h49q-2 -104 -58 -175t-157 -71q-79 0 -127.5 45t-48.5 135v21h-7q-30 -76 -122.5 -138.5t-212.5 -62.5zM326 219q0 -68 39.5 -103.5t111.5 -35.5q109 0 180.5 71.5t71.5 165.5v121l-223 -39q-89 -15 -134.5 -61.5
t-45.5 -118.5z" />
    <glyph glyph-name="b" unicode="b" 
d="M164 1321q0 54 -18.5 74t-69.5 20h-35v62h463v-62h-68q-51 0 -69.5 -20t-18.5 -74v-520h4q48 71 132.5 115.5t187.5 44.5q182 0 297.5 -134t115.5 -346q0 -155 -72 -274t-183.5 -178.5t-239.5 -59.5q-183 0 -287 117l-92 -137h-47v1372zM348 279q0 -59 20.5 -103t55 -68
t74 -35.5t82.5 -11.5q138 0 225.5 100.5t87.5 284.5q0 179 -90.5 280t-224.5 101q-148 0 -230 -112v-436z" />
    <glyph glyph-name="c" unicode="c" 
d="M608 -25q-198 0 -325 128.5t-127 332.5q0 139 61.5 258t176.5 191.5t257 72.5q152 0 258.5 -72.5t106.5 -183.5q0 -59 -29 -89.5t-76 -30.5t-73.5 29.5t-26.5 80.5q0 10 3 31t3 31q0 59 -46.5 89.5t-127.5 30.5q-143 0 -219 -103t-76 -265q0 -181 88.5 -286t247.5 -105
q108 0 188 47.5t105 128.5h53q-20 -131 -136.5 -223.5t-285.5 -92.5z" />
    <glyph glyph-name="d" unicode="d" 
d="M516 -33q-182 0 -298 133.5t-116 345.5q0 117 42 215.5t111.5 162t158.5 99t184 35.5q140 0 242 -77v440q0 54 -18.5 74t-69.5 20h-68v62h483v-62h-55q-51 0 -69.5 -20t-18.5 -74v-1165q0 -51 25 -73t79 -22h39v-61h-323v127h-4q-52 -71 -136.5 -115.5t-187.5 -44.5z
M295 481q0 -179 90.5 -280t224.5 -101q147 0 230 113v434q0 59 -20.5 103.5t-55 68.5t-73.5 35.5t-83 11.5q-138 0 -225.5 -100.5t-87.5 -284.5z" />
    <glyph glyph-name="e" unicode="e" 
d="M627 -25q-205 0 -338 131.5t-133 342.5q0 141 63 257.5t176 184t252 67.5q116 0 208.5 -46.5t146 -140.5t45.5 -220h-697q-2 -12 -2 -37q0 -190 96 -302t252 -112q103 0 185.5 48.5t111.5 142.5h54q-19 -140 -134 -228t-286 -88zM360 637h428q33 0 49.5 11t16.5 50
q0 71 -61.5 123.5t-157.5 52.5q-98 0 -172.5 -60.5t-102.5 -176.5z" />
    <glyph glyph-name="f" unicode="f" 
d="M178 0v61h123q84 0 127 36t43 120v623h-293v80h129q89 0 126.5 33t37.5 100v59q0 188 119 291.5t307 103.5q150 0 255 -69.5t105 -173.5q0 -55 -28.5 -83t-75.5 -28q-44 0 -68 25.5t-24 68.5q0 10 3 31t3 31q0 56 -49.5 90.5t-130.5 34.5q-115 0 -173.5 -66t-58.5 -194
v-232h422v-102h-422v-623q0 -84 43 -120t127 -36h189v-61h-836z" />
    <glyph glyph-name="g" unicode="g" 
d="M518 -557q-199 0 -321.5 67t-122.5 175q0 66 49.5 120.5t148.5 106.5q-47 13 -82.5 55.5t-35.5 100.5q0 149 192 235q-76 46 -120 118.5t-44 160.5q0 106 57.5 193.5t151.5 135t201 47.5q78 0 145 -24q26 90 84 144.5t144 54.5q70 0 111.5 -36.5t41.5 -90.5
q0 -39 -24 -61.5t-58 -22.5q-26 0 -45 14.5t-28.5 31.5t-26 31.5t-39.5 14.5q-60 0 -90 -111q79 -44 125.5 -117.5t46.5 -164.5q0 -106 -57.5 -193.5t-151.5 -135.5t-201 -48q-89 0 -166 30q-92 -48 -92 -118q0 -85 113 -82l422 6q112 2 188 -70t76 -188t-80 -203
t-213.5 -131.5t-298.5 -44.5zM233 -287q0 -83 82 -133.5t238 -50.5q179 0 298.5 60t119.5 165q0 63 -42.5 100.5t-113.5 39.5l-463 10q-119 -89 -119 -191zM367 598q0 -138 56 -211.5t152 -73.5q103 0 161.5 80t58.5 211q0 138 -56.5 211.5t-152.5 73.5q-103 0 -161 -80
t-58 -211z" />
    <glyph glyph-name="h" unicode="h" 
d="M63 0v61h68q51 0 74.5 22t23.5 73v1165q0 54 -18.5 74t-69.5 20h-75v62h524v-62h-88q-51 0 -69.5 -20t-18.5 -74v-535h4q43 78 125.5 125t179.5 47q129 0 212 -79t83 -199v-524q0 -52 23.5 -73.5t80.5 -21.5h47v-61h-495v61h51q56 0 82.5 22t26.5 73v465q0 106 -53.5 156
t-137.5 50q-91 0 -160 -67.5t-69 -181.5v-422q0 -51 26 -73t82 -22h51v-61h-510z" />
    <glyph glyph-name="i" unicode="i" 
d="M209 0v68h123q170 0 170 155v496q0 155 -150 155h-143v68h770v-68h-143q-150 0 -150 -155v-496q0 -155 170 -155h123v-68h-770zM457 1305q0 61 38.5 100t98.5 39q59 0 98 -39t39 -100t-39 -99.5t-98 -38.5q-60 0 -98.5 38.5t-38.5 99.5z" />
    <glyph glyph-name="j" unicode="j" 
d="M268 -612l-39 59l54 37q57 39 96 81t63.5 86.5t37.5 104t17.5 121.5t4.5 152v690q0 155 -150 155h-143v68h770v-68h-143q-150 0 -150 -155v-690q0 -215 -75.5 -349t-256.5 -241zM457 1305q0 61 38.5 100t98.5 39q59 0 98 -39t39 -100t-39 -99.5t-98 -38.5
q-60 0 -98.5 38.5t-38.5 99.5z" />
    <glyph glyph-name="k" unicode="k" 
d="M63 0v61h68q51 0 74.5 22t23.5 73v1165q0 54 -18.5 74t-69.5 20h-75v62h524v-62h-88q-51 0 -69.5 -20t-18.5 -74v-762q37 0 57 7.5t49 33.5l223 188q42 35 34 64t-56 29h-117v61h543v-61h-57q-57 0 -106.5 -25t-119.5 -84l-256 -219l387 -424q38 -41 67 -55.5t73 -14.5
h34v-59h-534v59h86q36 0 47.5 22.5t-18.5 59.5l-232 269q-26 31 -39 38t-41 7h-24v-299q0 -51 26 -73t82 -22h39v-61h-498z" />
    <glyph glyph-name="l" unicode="l" 
d="M209 0v68h123q170 0 170 155v1030q0 76 -38 116t-112 40h-143v68h770v-68h-143q-74 0 -112 -40t-38 -116v-1030q0 -155 170 -155h123v-68h-770z" />
    <glyph glyph-name="m" unicode="m" 
d="M49 0v61h37q31 0 42 13.5t11 50.5v653q0 58 -14.5 80.5t-50.5 22.5h-25v61h213l8 -147h9q25 76 81.5 119.5t128.5 43.5q144 0 179 -163h6q25 76 79.5 119.5t125.5 43.5q91 0 139.5 -62.5t48.5 -154.5v-616q0 -37 11 -50.5t44 -13.5h33v-61h-324v61h23q33 0 44 13.5
t11 50.5v561q0 73 -28 109t-72 36q-56 0 -94.5 -47t-38.5 -120v-539q0 -37 12.5 -50.5t48.5 -13.5h23v-61h-311v61h20q36 0 48.5 13.5t12.5 50.5v561q0 72 -28 108.5t-74 36.5q-54 0 -92.5 -47t-38.5 -120v-539q0 -36 12.5 -50t40.5 -14h27v-61h-328z" />
    <glyph glyph-name="n" unicode="n" 
d="M49 0v61h68q51 0 74.5 22t23.5 73v622q0 58 -24 80.5t-82 22.5h-52v61h326l14 -156h4q44 77 127 124.5t181 47.5q129 0 212 -79t83 -199v-524q0 -52 23.5 -73.5t80.5 -21.5h47v-61h-496v61h52q55 0 81.5 22t26.5 73v465q0 106 -53 156t-137 50q-91 0 -160.5 -67.5
t-69.5 -181.5v-422q0 -51 26.5 -73t82.5 -22h51v-61h-510z" />
    <glyph glyph-name="o" unicode="o" 
d="M582 -33q-95 0 -182 35.5t-153 97.5t-105.5 153.5t-39.5 197.5q0 141 71 258.5t186.5 183t246.5 65.5q127 0 236 -59.5t176 -171.5t67 -252q0 -141 -70.5 -258.5t-186 -183.5t-246.5 -66zM311 469q0 -198 73 -308t206 -110q134 0 210.5 109.5t76.5 296.5q0 200 -73 308.5
t-206 108.5q-134 0 -210.5 -109t-76.5 -296z" />
    <glyph glyph-name="p" unicode="p" 
d="M20 -530v61h56q51 0 69.5 20t18.5 74v1153q0 58 -24.5 80.5t-82.5 22.5h-24v61h299l12 -143h4q52 71 136.5 115t187.5 44q182 0 297.5 -133.5t115.5 -345.5q0 -155 -72 -274t-183.5 -178.5t-239.5 -59.5q-139 0 -242 78v-420q0 -54 18.5 -74t69.5 -20h68v-61h-484z
M348 279q0 -59 20.5 -103.5t55 -69t73.5 -36t83 -11.5q138 0 225.5 100.5t87.5 284.5q0 179 -90.5 280t-224.5 101q-148 0 -230 -112v-434z" />
    <glyph glyph-name="q" unicode="q" 
d="M690 -530v61h62q51 0 69.5 20t18.5 74v502h-4q-48 -71 -132.5 -115.5t-187.5 -44.5q-182 0 -298 133.5t-116 345.5q0 117 42 215.5t111.5 162t158.5 99t184 35.5q176 0 289 -116l90 137h47v-1354q0 -54 18.5 -74t69.5 -20h62v-61h-484zM295 481q0 -179 90.5 -280
t224.5 -101q147 0 230 113v434q0 59 -20.5 103.5t-55 68.5t-73.5 35.5t-83 11.5q-138 0 -225.5 -100.5t-87.5 -284.5z" />
    <glyph glyph-name="r" unicode="r" 
d="M135 0v61h58q79 0 114 32t35 104v581q0 58 -24 80.5t-82 22.5h-93v61h367l16 -209h6q50 104 142 164.5t207 60.5q92 0 148 -44.5t56 -108.5q0 -49 -30 -77t-76 -28q-25 0 -45.5 9t-32.5 23t-25.5 29.5t-25.5 29.5t-32.5 23t-45.5 9q-38 0 -80 -24t-79.5 -66t-62 -109.5
t-24.5 -144.5v-282q0 -72 35.5 -104t114.5 -32h147v-61h-688z" />
    <glyph glyph-name="s" unicode="s" 
d="M573 -31q-103 0 -199 30t-149 71v243h66q4 -70 29.5 -121.5t67 -80t90.5 -41.5t106 -13q109 0 172 42.5t63 119.5q0 119 -141 156l-209 51q-119 29 -178.5 93t-59.5 155q0 129 109 206.5t295 77.5q159 0 293 -61v-233h-66q0 55 -22 96.5t-60 64.5t-82.5 34t-95.5 11
q-96 0 -152.5 -38.5t-56.5 -112.5q0 -50 32.5 -83t113.5 -52l211 -49q109 -26 167 -93t58 -168q0 -139 -106.5 -222t-295.5 -83z" />
    <glyph glyph-name="t" unicode="t" 
d="M707 -33q-150 0 -241 74t-91 225v574h-289v80h121q104 0 142 36.5t38 120.5v103h172v-238h463v-102h-463v-533q0 -209 209 -209q92 0 158 44.5t88 138.5h55q-10 -150 -106.5 -232t-255.5 -82z" />
    <glyph glyph-name="u" unicode="u" 
d="M483 -33q-133 0 -205.5 76.5t-72.5 206.5v536q0 95 -109 95h-47v61h340v-659q0 -92 47 -138.5t117 -46.5q41 0 82.5 15.5t79 45.5t61 80.5t23.5 112.5v434q0 95 -109 95h-47v61h340v-786q0 -51 25 -73t79 -22h60v-61h-344v150h-4q-41 -80 -123.5 -131.5t-192.5 -51.5z
" />
    <glyph glyph-name="v" unicode="v" 
d="M739 881v61h426v-61h-57q-42 0 -68 -22t-47 -71l-352 -796h-82l-373 817q-20 43 -42 57.5t-66 14.5h-55v61h526v-61h-105q-42 0 -55 -26t8 -69l240 -540h8l240 540q21 43 7 69t-61 26h-92z" />
    <glyph glyph-name="w" unicode="w" 
d="M123 809q-7 41 -26 56.5t-52 15.5h-22v61h403v-61h-94q-35 0 -44.5 -24t1.5 -71l108 -608h11l149 651h133l146 -651h12l115 608q9 50 -4.5 72.5t-61.5 22.5h-80v61h348v-61h-26q-60 0 -78 -93l-154 -796h-168l-141 631h-8l-141 -631h-168z" />
    <glyph glyph-name="x" unicode="x" 
d="M610 0v61h105q37 0 48.5 26.5t-13.5 57.5l-191 240l-221 -240q-29 -31 -21 -57.5t45 -26.5h101v-61h-428v61h20q41 0 71 18t77 66l299 312l-281 352q-35 43 -61.5 57.5t-69.5 14.5h-41v61h522v-61h-82q-37 0 -48 -26.5t14 -57.5l172 -217l202 217q28 31 21.5 57.5
t-43.5 26.5h-88v61h430v-61h-27q-86 0 -166 -84l-272 -289l299 -377q36 -44 61 -58t68 -14h41v-59h-543z" />
    <glyph glyph-name="y" unicode="y" 
d="M285 -557q-106 0 -171 64.5t-65 138.5q0 46 29 77t74 31q52 0 75.5 -39t12.5 -86q-9 -40 10.5 -67t54.5 -27q39 0 67 33.5t54 93.5l139 322l-379 825q-20 43 -42 57.5t-66 14.5h-55v61h526v-61h-105q-42 0 -55 -26t8 -69l256 -573h9l243 573q20 43 6.5 69t-59.5 26h-113
v61h426v-61h-37q-42 0 -67.5 -22.5t-46.5 -72.5l-496 -1157q-37 -89 -90 -137.5t-143 -48.5z" />
    <glyph glyph-name="z" unicode="z" 
d="M170 0v49l606 809h-315q-105 0 -146.5 -39.5t-54.5 -154.5h-65v278h823v-49l-606 -809h342q107 0 149.5 49.5t48.5 157.5h66v-291h-848z" />
    <glyph glyph-name="braceleft" unicode="{" 
d="M1004 -469q-213 -5 -344.5 29.5t-187.5 102.5t-56 175q0 52 23 117t50.5 117.5t50.5 114t23 106.5q0 39 -11.5 69t-32.5 48t-43.5 29.5t-53 17t-52 7t-48.5 1.5h-107v86h107q27 0 48.5 1.5t52 7t53 17t43.5 29.5t32.5 48t11.5 69q0 45 -23 106.5t-50.5 114t-50.5 117.5
t-23 117q0 107 56 175t187.5 102.5t344.5 29.5v-68q-207 3 -302.5 -49t-95.5 -174q0 -48 23 -108.5t50 -108.5t50 -108.5t23 -108.5q0 -93 -72 -165t-215 -85v-4q143 -13 215 -85t72 -165q0 -48 -23 -108.5t-50 -108.5t-50 -108.5t-23 -108.5q0 -122 95.5 -174t302.5 -49
v-68z" />
    <glyph glyph-name="bar" unicode="|" 
d="M508 -563v2048h174v-2048h-174z" />
    <glyph glyph-name="braceright" unicode="}" 
d="M184 -401q207 -3 302.5 49t95.5 174q0 48 -23 108.5t-50 108.5t-50 108.5t-23 108.5q0 93 72 165t215 85v4q-143 13 -215 85t-72 165q0 48 23 108.5t50 108.5t50 108.5t23 108.5q0 122 -95.5 174t-302.5 49v68q213 5 344.5 -29.5t187.5 -102.5t56 -175q0 -52 -23 -117
t-50.5 -117.5t-50.5 -114t-23 -106.5q0 -39 11.5 -69t32.5 -48t43.5 -29.5t53 -17t52 -7t48.5 -1.5h107v-86h-107q-27 0 -48.5 -1.5t-52 -7t-53 -17t-43.5 -29.5t-32.5 -48t-11.5 -69q0 -45 23 -106.5t50.5 -114t50.5 -117.5t23 -117q0 -107 -56 -175t-187.5 -102.5
t-344.5 -29.5v68z" />
    <glyph glyph-name="uni00A0" unicode="&#xa0;" 
 />
    <glyph glyph-name="exclamdown" unicode="&#xa1;" 
d="M696 -406q9 -133 -102 -133t-102 133l65 992h74zM451 813q0 61 40.5 103t102.5 42q60 0 101.5 -39.5t41.5 -99.5q0 -62 -40.5 -103.5t-102.5 -41.5q-60 0 -101.5 39.5t-41.5 99.5z" />
    <glyph glyph-name="cent" unicode="&#xa2;" 
d="M557 -158v361q-179 17 -290 143t-111 316q0 189 111 334t290 180v325h123v-317q142 -8 239 -80t97 -176q0 -59 -29 -90t-76 -31t-73.5 30t-26.5 81q0 10 3 30.5t3 30.5q0 52 -36.5 82.5t-100.5 36.5v-758h4q108 0 188 47.5t105 128.5h53q-18 -116 -113 -203.5
t-237 -107.5v-363h-123zM348 731q0 -139 54.5 -236t154.5 -135v727q-102 -30 -155.5 -126t-53.5 -230z" />
    <glyph glyph-name="sterling" unicode="&#xa3;" 
d="M223 -33q-77 0 -134.5 45t-57.5 125q0 77 54 125.5t138 48.5q79 0 199 -53q16 66 16 131q0 123 -63 285h-293v102h254q-70 178 -70 285q0 177 129.5 290t317.5 113q152 0 258 -75t106 -195q0 -60 -29 -90.5t-77 -30.5q-50 0 -77.5 31t-27.5 82q0 14 3 29.5t3 27.5
q0 65 -49 100t-129 35q-113 0 -181.5 -70t-68.5 -180q0 -30 4.5 -62t17.5 -74.5t20.5 -65t28.5 -79.5t26 -71h465v-102h-431q33 -116 33 -189q0 -135 -71 -274q160 -59 294 -59q69 0 115 13t72 41t37.5 63t15.5 89h55q1 -69 -15 -136t-48 -125t-87 -94t-126 -36
q-56 0 -127.5 26.5t-115.5 51.5t-128 76q-116 -154 -256 -154zM129 143q0 -41 28.5 -66.5t71.5 -25.5q49 0 90.5 32.5t69.5 90.5q-105 57 -164 57q-42 0 -69 -24.5t-27 -63.5z" />
    <glyph glyph-name="yen" unicode="&#xa5;" 
d="M207 1257q-35 69 -61 89t-68 20h-51v68h546v-68h-88q-111 0 -57 -109l207 -413h18l187 387q32 63 14.5 99t-86.5 36h-57v68h450v-68h-47q-46 0 -77 -27.5t-66 -99.5l-271 -547h314v-112h-314v-154h314v-113h-314v-129q0 -68 22.5 -92t92.5 -24h92v-68h-622v68h92
q70 0 92.5 24t22.5 92v129h-318v113h318v154h-318v112h318v2z" />
    <glyph glyph-name="brokenbar" unicode="&#xa6;" 
d="M508 758v727h174v-727h-174zM508 -563v727h174v-727h-174z" />
    <glyph glyph-name="section" unicode="&#xa7;" 
d="M535 -596q-223 0 -379 90v264h59q38 -115 128 -173t206 -58q121 0 205 59t84 152q0 88 -57.5 146t-182.5 98l-192 61q-310 100 -310 348q0 116 69 213t193 150q-180 110 -180 307q0 179 135.5 291t339.5 112q223 0 379 -90v-264h-59q-38 115 -128 173t-206 58
q-121 0 -205 -59t-84 -152q0 -87 57.5 -145t182.5 -98l192 -62q310 -100 310 -348q0 -115 -69 -212t-194 -150q181 -108 181 -308q0 -179 -135.5 -291t-339.5 -112zM268 463q0 -78 58 -134t190 -98l191 -61q8 -4 14 -4q89 27 144 90t55 150q0 78 -58 133.5t-190 97.5
l-191 61q-8 4 -14 4q-90 -27 -144.5 -90t-54.5 -149z" />
    <glyph glyph-name="dieresis" unicode="&#xa8;" 
d="M383 1133q-53 0 -89 34.5t-36 89.5t36 90t89 35q54 0 89.5 -35t35.5 -90t-35.5 -89.5t-89.5 -34.5zM680 1257q0 55 35.5 90t89.5 35q53 0 89 -35t36 -90t-36 -89.5t-89 -34.5q-54 0 -89.5 34.5t-35.5 89.5z" />
    <glyph glyph-name="copyright" unicode="&#xa9;" 
d="M606 346q-132 0 -208 98.5t-76 272.5q0 181 88 286t221 105q104 0 172 -45l12 -182h-67q-27 141 -127 141q-74 0 -120 -76t-46 -217q0 -133 43 -215t125 -82q51 0 82.5 40t50.5 130h65l-6 -184q-88 -72 -209 -72zM41 707q0 313 155 495t404 182q245 0 396 -176t151 -481
q0 -313 -155 -495.5t-404 -182.5q-245 0 -396 176.5t-151 481.5zM162 717q0 -261 121 -414t311 -153t311 153t121 414t-121 414t-311 153t-311 -153t-121 -414z" />
    <glyph glyph-name="ordfeminine" unicode="&#xaa;" 
d="M426 672q-98 0 -159.5 53.5t-61.5 144.5q0 89 59.5 143t171.5 72l252 41v113q0 76 -34.5 111.5t-108.5 35.5q-61 0 -96 -22t-35 -64q0 -8 2 -25t2 -26q0 -38 -23 -61t-67 -23q-90 0 -90 90t92 149.5t229 59.5q132 0 212 -57.5t79 -151.5l-4 -356q0 -100 74 -100
q70 0 79 106h50q0 -108 -47.5 -170.5t-135.5 -62.5q-72 0 -116.5 42.5t-44.5 114.5v2h-5q-22 -62 -97 -110.5t-177 -48.5zM369 883q0 -55 33 -81t87 -26q86 0 142.5 56t56.5 129v92l-162 -29q-157 -29 -157 -141z" />
    <glyph glyph-name="guillemotleft" unicode="&#xab;" 
d="M565 0l-477 471l496 471h106l-397 -465l391 -477h-119zM518 471l475 471h107l-377 -465l371 -477h-119z" />
    <glyph glyph-name="uni00AD" unicode="&#xad;" horiz-adv-x="0" 
 />
    <glyph glyph-name="registered" unicode="&#xae;" 
d="M776 367q-34 0 -51.5 18.5t-30.5 69.5l-47 170q-12 41 -24 55t-37 14h-60v-217q0 -29 12 -39t42 -10h30v-61h-280v61h35q24 0 33.5 9.5t9.5 39.5v500q0 30 -9.5 39.5t-33.5 9.5h-35v61h303q88 0 136 -46.5t48 -129.5q0 -70 -36 -115.5t-107 -52.5v-16q67 -10 98 -109
l39 -126q11 -39 25 -51.5t36 -12.5h19v-61h-115zM41 707q0 313 155 495t404 182q245 0 396 -176t151 -481q0 -313 -155 -495.5t-404 -182.5q-245 0 -396 176.5t-151 481.5zM162 717q0 -261 121 -414t311 -153t311 153t121 414t-121 414t-311 153t-311 -153t-121 -414z
M526 774h72q49 0 74.5 32t25.5 91q0 117 -100 117h-72v-240z" />
    <glyph glyph-name="macron" unicode="&#xaf;" 
d="M285 1188v110h620v-110h-620z" />
    <glyph glyph-name="degree" unicode="&#xb0;" 
d="M594 707q-164 0 -275.5 109t-111.5 269t111.5 269.5t275.5 109.5t275.5 -109.5t111.5 -269.5t-111.5 -269t-275.5 -109zM352 1085q0 -106 69.5 -178.5t172.5 -72.5t172.5 72.5t69.5 178.5t-70 179t-172 73t-172 -73t-70 -179z" />
    <glyph glyph-name="uni00B2" unicode="&#xb2;" 
d="M266 618v87l289 227q84 66 127 122.5t43 133.5q0 69 -41.5 106t-110.5 37q-82 0 -142.5 -41.5t-70.5 -107.5h-67q14 119 105 200.5t225 81.5q121 0 196.5 -63.5t75.5 -167.5q0 -44 -15.5 -86.5t-35.5 -73.5t-56 -66.5t-60.5 -55.5t-65.5 -50l-185 -139v-8h264
q68 0 91.5 23.5t29.5 86.5h62l-15 -246h-643z" />
    <glyph glyph-name="uni00B3" unicode="&#xb3;" 
d="M573 590q-128 0 -216.5 50t-88.5 136q0 43 23 65.5t61 22.5q40 0 60 -24t22 -64q3 -53 41.5 -82.5t104.5 -29.5q82 0 128 46.5t46 123.5q0 151 -189 151q-71 0 -137 -16v92q172 39 242.5 78t70.5 100q0 48 -39 76t-114 28q-85 0 -142.5 -36t-76.5 -101h-68
q13 112 108.5 185t225.5 73q124 0 195 -56.5t71 -137.5q0 -153 -278 -209v-12q126 19 211.5 -33t85.5 -164q0 -117 -98 -189.5t-249 -72.5z" />
    <glyph glyph-name="acute" unicode="&#xb4;" 
d="M504 1032h-37l20 445h191z" />
    <glyph glyph-name="paragraph" unicode="&#xb6;" 
d="M502 389q-185 0 -292.5 138t-107.5 374q0 246 119 389.5t322 143.5h542v-129h-163v-1868h-134v1868h-153v-1868h-133v952z" />
    <glyph glyph-name="periodcentered" unicode="&#xb7;" 
d="M594 623q-57 0 -94 36.5t-37 94.5t37 95.5t94 37.5q56 0 93.5 -37.5t37.5 -95.5t-37.5 -94.5t-93.5 -36.5z" />
    <glyph glyph-name="cedilla" unicode="&#xb8;" 
d="M520 -244v43l90 209h66l-47 -119q75 -3 119.5 -41.5t44.5 -99.5q0 -100 -113 -160t-285 -45v62q108 -6 173 17.5t65 70.5q0 60 -113 63z" />
    <glyph glyph-name="uni00B9" unicode="&#xb9;" 
d="M401 618v64h76q48 0 69 19.5t21 72.5v504q0 28 -12 34.5t-43 -5.5l-205 -84v94l352 147h82v-690q0 -54 20.5 -73t69.5 -19h50v-64h-480z" />
    <glyph glyph-name="ordmasculine" unicode="&#xba;" 
d="M584 672q-158 0 -272.5 109t-114.5 278q0 111 57 205t150.5 147t199.5 53q158 0 272.5 -109t114.5 -278q0 -170 -122 -287.5t-285 -117.5zM385 1073q0 -150 53 -231.5t152 -81.5q100 0 156.5 81t56.5 222q0 151 -52.5 232t-152.5 81t-156.5 -81t-56.5 -222z" />
    <glyph glyph-name="guillemotright" unicode="&#xbb;" 
d="M623 942l477 -471l-496 -471h-106l397 465l-391 477h119zM88 0l377 465l-371 477h119l457 -471l-475 -471h-107z" />
    <glyph glyph-name="onequarter" unicode="&#xbc;" 
d="M119 829v48h63q39 0 56.5 14.5t17.5 54.5v379q0 20 -10 25t-35 -4l-170 -62v70l291 110h67v-518q0 -40 17.5 -54.5t58.5 -14.5h39v-48h-395zM41 346v121l1106 663v-120zM459 188v56l438 391h70v-365h57q33 0 46 11t13 38v21h56v-217h-56v16q0 26 -13.5 37.5t-45.5 11.5
h-57v-100q0 -23 13.5 -32t43.5 -9h43v-49h-328v49h41q60 0 60 41v100h-381zM608 270h232v209h-6l-226 -205v-4z" />
    <glyph glyph-name="onehalf" unicode="&#xbd;" 
d="M119 829v48h63q39 0 56.5 14.5t17.5 54.5v379q0 20 -10 25t-35 -4l-170 -62v70l291 110h67v-518q0 -40 17.5 -54.5t58.5 -14.5h39v-48h-395zM41 346v121l1106 663v-120zM567 0v66l240 170q68 48 104.5 91.5t36.5 100.5q0 51 -34.5 79t-92.5 28q-67 0 -117 -31t-59 -80
h-55q12 89 86.5 150t185.5 61q100 0 162.5 -48t62.5 -126q0 -41 -16.5 -78t-48.5 -69t-59 -53t-68 -48l-152 -104v-7h218q57 0 76 18t24 64h51l-12 -184h-533z" />
    <glyph glyph-name="threequarters" unicode="&#xbe;" 
d="M281 807q-105 0 -178.5 38t-73.5 103q0 33 18.5 49.5t50.5 16.5q33 0 49.5 -17.5t18.5 -48.5q3 -40 34.5 -63t86.5 -23q68 0 105.5 35.5t37.5 93.5q0 113 -156 113q-58 0 -112 -12v69q142 30 200 59.5t58 75.5q0 36 -32 57t-95 21q-69 0 -117 -27.5t-63 -74.5h-58
q12 83 91.5 137.5t185.5 54.5q103 0 162 -42.5t59 -102.5q0 -116 -231 -158v-8q105 14 175 -25t70 -122q0 -89 -80.5 -144t-205.5 -55zM41 346v121l1106 663v-120zM459 188v56l438 391h70v-365h57q33 0 46 11t13 38v21h56v-217h-56v16q0 26 -13.5 37.5t-45.5 11.5h-57v-100
q0 -23 13.5 -32t43.5 -9h43v-49h-328v49h41q60 0 60 41v100h-381zM608 270h232v209h-6l-226 -205v-4z" />
    <glyph glyph-name="questiondown" unicode="&#xbf;" 
d="M741 586q4 -33 4 -65t-3 -58.5t-11 -55t-15 -50t-21 -47.5t-24 -43t-27.5 -42t-28 -39t-29.5 -39q-36 -46 -54 -71t-41.5 -65t-34 -78.5t-10.5 -79.5q0 -101 68.5 -165.5t183.5 -64.5q124 0 212 76.5t96 185.5h65q-3 -195 -125.5 -309.5t-310.5 -114.5q-175 0 -282 100.5
t-107 264.5q0 52 13 99.5t29.5 81.5t52 77.5t60.5 69.5t76 75q45 44 72.5 75t58.5 76.5t45.5 96.5t14.5 109h73zM559 813q0 61 40.5 103t102.5 42q61 0 102.5 -39.5t41.5 -99.5q0 -62 -40.5 -103.5t-103.5 -41.5q-60 0 -101.5 39.5t-41.5 99.5z" />
    <glyph glyph-name="Agrave" unicode="&#xc0;" 
d="M18 0v68h39q52 0 83.5 37t49.5 110l310 1231h227l301 -1270q17 -69 36 -88.5t64 -19.5h41v-68h-487v68h94q74 0 49 108l-77 342h-355l-67 -278q-45 -172 80 -172h59v-68h-447zM352 1845h230l55 -319h-49zM428 655h287l-131 578h-15z" />
    <glyph glyph-name="Aacute" unicode="&#xc1;" 
d="M18 0v68h39q52 0 83.5 37t49.5 110l310 1231h227l301 -1270q17 -69 36 -88.5t64 -19.5h41v-68h-487v68h94q74 0 49 108l-77 342h-355l-67 -278q-45 -172 80 -172h59v-68h-447zM428 655h287l-131 578h-15zM588 1526l55 319h229l-235 -319h-49z" />
    <glyph glyph-name="Acircumflex" unicode="&#xc2;" 
d="M18 0v68h39q52 0 83.5 37t49.5 110l310 1231h227l301 -1270q17 -69 36 -88.5t64 -19.5h41v-68h-487v68h94q74 0 49 108l-77 342h-355l-67 -278q-45 -172 80 -172h59v-68h-447zM319 1526l193 319h203l190 -319h-43l-246 209h-8l-246 -209h-43zM428 655h287l-131 578h-15z
" />
    <glyph glyph-name="Atilde" unicode="&#xc3;" 
d="M18 0v68h39q52 0 83.5 37t49.5 110l310 1231h227l301 -1270q17 -69 36 -88.5t64 -19.5h41v-68h-487v68h94q74 0 49 108l-77 342h-355l-67 -278q-45 -172 80 -172h59v-68h-447zM291 1565q18 94 72 155.5t133 61.5q46 0 97 -25t97 -49.5t80 -24.5q37 0 67.5 26t45.5 73h51
q-18 -94 -72 -155.5t-133 -61.5q-46 0 -97 24.5t-97 49t-80 24.5q-37 0 -67.5 -26t-45.5 -72h-51zM428 655h287l-131 578h-15z" />
    <glyph glyph-name="Adieresis" unicode="&#xc4;" 
d="M18 0v68h39q52 0 83.5 37t49.5 110l310 1231h227l301 -1270q17 -69 36 -88.5t64 -19.5h41v-68h-487v68h94q74 0 49 108l-77 342h-355l-67 -278q-45 -172 80 -172h59v-68h-447zM254 1677q0 58 37.5 94.5t93.5 36.5q57 0 94 -36.5t37 -94.5t-37 -94.5t-94 -36.5
q-56 0 -93.5 36.5t-37.5 94.5zM428 655h287l-131 578h-15zM709 1677q0 58 37 94.5t94 36.5q56 0 93.5 -36.5t37.5 -94.5t-37.5 -94.5t-93.5 -36.5q-57 0 -94 36.5t-37 94.5z" />
    <glyph glyph-name="Aring" unicode="&#xc5;" 
d="M18 0v68h39q52 0 83.5 37t49.5 110l310 1231h227l301 -1270q17 -69 36 -88.5t64 -19.5h41v-68h-487v68h94q74 0 49 108l-77 342h-355l-67 -278q-45 -172 80 -172h59v-68h-447zM414 1673q0 88 56.5 145.5t141.5 57.5t142 -58t57 -145q0 -85 -57 -141.5t-142 -56.5
t-141.5 56.5t-56.5 141.5zM428 655h287l-131 578h-15zM496 1673q0 -50 33.5 -83.5t82.5 -33.5q50 0 83.5 34t33.5 83q0 52 -33.5 86.5t-83.5 34.5t-83 -34.5t-33 -86.5z" />
    <glyph glyph-name="AE" unicode="&#xc6;" 
d="M20 0v68h27q53 0 78 39t47 135l223 999q29 125 -78 125h-84v68h883l10 -320h-67q-15 122 -51.5 171.5t-104.5 49.5h-59q-52 0 -73 -22t-21 -80v-442h110q58 0 85 38.5t36 139.5h68v-457h-68q-9 102 -36 141t-85 39h-110v-487q0 -61 22.5 -84t79.5 -23h63q65 0 107 47
t65 174h68l-20 -319h-680v68h43q41 0 57 25t16 91v451h-196l-86 -397q-25 -89 -19 -129.5t60 -40.5h35v-68h-345zM401 752h170v583h-43z" />
    <glyph glyph-name="Ccedilla" unicode="&#xc7;" 
d="M561 -244v43l74 170q-249 20 -387.5 211.5t-138.5 515.5q0 177 47 322.5t130 242.5t197.5 150t249.5 53q86 0 173.5 -22.5t142.5 -57.5l16 -272h-61q-44 124 -126.5 183t-185.5 59q-58 0 -109.5 -20t-99.5 -67.5t-82 -118.5t-54.5 -180.5t-20.5 -246.5q0 -643 368 -643
q120 0 205.5 72.5t140.5 238.5h58l-8 -270q-73 -63 -175 -106t-215 -46l-30 -78q75 -3 119.5 -41.5t44.5 -99.5q0 -100 -113 -160t-285 -45v62q108 -6 173 17.5t65 70.5q0 60 -113 63z" />
    <glyph glyph-name="Egrave" unicode="&#xc8;" 
d="M72 0v68h84q56 0 75 24.5t19 91.5v1065q0 66 -18 91.5t-76 25.5h-84v68h948l20 -320h-67q-21 87 -51 132.5t-85 67t-151 21.5h-113q-66 0 -90 -21.5t-24 -80.5v-442h131q79 0 121.5 17t63 52t38.5 109h68v-457h-68q-13 56 -26.5 87.5t-38 54t-61.5 30.5t-97 8h-131v-487
q0 -62 24 -84.5t90 -22.5h146q82 0 131.5 8.5t85.5 34t54.5 67t31.5 111.5h68l-21 -319h-997zM334 1845h229l55 -319h-49z" />
    <glyph glyph-name="Eacute" unicode="&#xc9;" 
d="M72 0v68h84q56 0 75 24.5t19 91.5v1065q0 66 -18 91.5t-76 25.5h-84v68h948l20 -320h-67q-21 87 -51 132.5t-85 67t-151 21.5h-113q-66 0 -90 -21.5t-24 -80.5v-442h131q79 0 121.5 17t63 52t38.5 109h68v-457h-68q-13 56 -26.5 87.5t-38 54t-61.5 30.5t-97 8h-131v-487
q0 -62 24 -84.5t90 -22.5h146q82 0 131.5 8.5t85.5 34t54.5 67t31.5 111.5h68l-21 -319h-997zM569 1526l56 319h229l-236 -319h-49z" />
    <glyph glyph-name="Ecircumflex" unicode="&#xca;" 
d="M72 0v68h84q56 0 75 24.5t19 91.5v1065q0 66 -18 91.5t-76 25.5h-84v68h948l20 -320h-67q-21 87 -51 132.5t-85 67t-151 21.5h-113q-66 0 -90 -21.5t-24 -80.5v-442h131q79 0 121.5 17t63 52t38.5 109h68v-457h-68q-13 56 -26.5 87.5t-38 54t-61.5 30.5t-97 8h-131v-487
q0 -62 24 -84.5t90 -22.5h146q82 0 131.5 8.5t85.5 34t54.5 67t31.5 111.5h68l-21 -319h-997zM301 1526l193 319h202l191 -319h-43l-246 209h-8l-246 -209h-43z" />
    <glyph glyph-name="Edieresis" unicode="&#xcb;" 
d="M72 0v68h84q56 0 75 24.5t19 91.5v1065q0 66 -18 91.5t-76 25.5h-84v68h948l20 -320h-67q-21 87 -51 132.5t-85 67t-151 21.5h-113q-66 0 -90 -21.5t-24 -80.5v-442h131q79 0 121.5 17t63 52t38.5 109h68v-457h-68q-13 56 -26.5 87.5t-38 54t-61.5 30.5t-97 8h-131v-487
q0 -62 24 -84.5t90 -22.5h146q82 0 131.5 8.5t85.5 34t54.5 67t31.5 111.5h68l-21 -319h-997zM236 1677q0 58 37.5 94.5t93.5 36.5q57 0 94 -36.5t37 -94.5t-37 -94.5t-94 -36.5q-56 0 -93.5 36.5t-37.5 94.5zM690 1677q0 58 37 94.5t94 36.5q56 0 93.5 -36.5t37.5 -94.5
t-37.5 -94.5t-93.5 -36.5q-57 0 -94 36.5t-37 94.5z" />
    <glyph glyph-name="Igrave" unicode="&#xcc;" 
d="M987 0h-786v68h153q75 0 105 32t30 125v983q0 87 -34.5 122.5t-100.5 35.5h-153v68h786v-68h-153q-66 0 -101 -35.5t-35 -122.5v-983q0 -93 30.5 -125t105.5 -32h153v-68zM334 1845h229l55 -319h-49z" />
    <glyph glyph-name="Iacute" unicode="&#xcd;" 
d="M987 0h-786v68h153q75 0 105 32t30 125v983q0 87 -34.5 122.5t-100.5 35.5h-153v68h786v-68h-153q-66 0 -101 -35.5t-35 -122.5v-983q0 -93 30.5 -125t105.5 -32h153v-68zM569 1526l56 319h229l-236 -319h-49z" />
    <glyph glyph-name="Icircumflex" unicode="&#xce;" 
d="M987 0h-786v68h153q75 0 105 32t30 125v983q0 87 -34.5 122.5t-100.5 35.5h-153v68h786v-68h-153q-66 0 -101 -35.5t-35 -122.5v-983q0 -93 30.5 -125t105.5 -32h153v-68zM301 1526l193 319h202l191 -319h-43l-246 209h-8l-246 -209h-43z" />
    <glyph glyph-name="Idieresis" unicode="&#xcf;" 
d="M987 0h-786v68h153q75 0 105 32t30 125v983q0 87 -34.5 122.5t-100.5 35.5h-153v68h786v-68h-153q-66 0 -101 -35.5t-35 -122.5v-983q0 -93 30.5 -125t105.5 -32h153v-68zM236 1677q0 58 37.5 94.5t93.5 36.5q57 0 94 -36.5t37 -94.5t-37 -94.5t-94 -36.5
q-56 0 -93.5 36.5t-37.5 94.5zM690 1677q0 58 37 94.5t94 36.5q56 0 93.5 -36.5t37.5 -94.5t-37.5 -94.5t-93.5 -36.5q-57 0 -94 36.5t-37 94.5z" />
    <glyph glyph-name="Eth" unicode="&#xd0;" 
d="M29 666v102h149v481q0 66 -18 91.5t-76 25.5h-53v68h465q130 0 231.5 -34.5t170 -95t113 -149t64 -191.5t19.5 -227q0 -166 -37.5 -299.5t-112.5 -232t-195.5 -152t-279.5 -53.5h-438v68h53q56 0 75 24.5t19 91.5v482h-149zM387 215q0 -68 22 -92.5t91 -24.5h20
q122 0 203 78t117.5 215t36.5 332q0 289 -95 450.5t-293 161.5h-102v-567h244v-102h-244v-451z" />
    <glyph glyph-name="Ntilde" unicode="&#xd1;" 
d="M41 0v68h22q78 0 108 29.5t30 121.5v1090q-21 32 -41 40.5t-66 8.5h-53v76h403l396 -1108h18v868q0 101 -34.5 136.5t-98.5 35.5h-63v68h485v-68h-23q-78 0 -107.5 -30t-29.5 -122v-1214h-215l-424 1182h-18v-942q0 -101 34.5 -136.5t98.5 -35.5h63v-68h-485zM272 1565
q18 94 72 155.5t133 61.5q46 0 97 -25t97.5 -49.5t80.5 -24.5q37 0 67 26t45 73h51q-18 -94 -71.5 -155.5t-132.5 -61.5q-46 0 -97 24.5t-97.5 49t-80.5 24.5q-37 0 -67 -25.5t-45 -72.5h-52z" />
    <glyph glyph-name="Ograve" unicode="&#xd2;" 
d="M582 -33q-102 0 -191 49t-155 139t-104 228t-38 307q0 350 145 562t367 212q102 0 191 -49t155 -139t104 -228t38 -307q0 -350 -145 -562t-367 -212zM311 709q0 -631 281 -631q138 0 211.5 161t73.5 484q0 315 -71.5 473t-207.5 158q-139 0 -213 -161t-74 -484zM346 1845
h229l56 -319h-49z" />
    <glyph glyph-name="Oacute" unicode="&#xd3;" 
d="M582 -33q-102 0 -191 49t-155 139t-104 228t-38 307q0 350 145 562t367 212q102 0 191 -49t155 -139t104 -228t38 -307q0 -350 -145 -562t-367 -212zM311 709q0 -631 281 -631q138 0 211.5 161t73.5 484q0 315 -71.5 473t-207.5 158q-139 0 -213 -161t-74 -484zM582 1526
l55 319h229l-235 -319h-49z" />
    <glyph glyph-name="Ocircumflex" unicode="&#xd4;" 
d="M582 -33q-102 0 -191 49t-155 139t-104 228t-38 307q0 350 145 562t367 212q102 0 191 -49t155 -139t104 -228t38 -307q0 -350 -145 -562t-367 -212zM311 709q0 -631 281 -631q138 0 211.5 161t73.5 484q0 315 -71.5 473t-207.5 158q-139 0 -213 -161t-74 -484zM313 1526
l193 319h203l190 -319h-43l-246 209h-8l-246 -209h-43z" />
    <glyph glyph-name="Otilde" unicode="&#xd5;" 
d="M582 -33q-102 0 -191 49t-155 139t-104 228t-38 307q0 350 145 562t367 212q102 0 191 -49t155 -139t104 -228t38 -307q0 -350 -145 -562t-367 -212zM285 1565q18 94 71.5 155.5t132.5 61.5q46 0 97 -25t97.5 -49.5t80.5 -24.5q37 0 67.5 26t45.5 73h51
q-18 -94 -72 -155.5t-133 -61.5q-46 0 -97 24.5t-97 49t-80 24.5q-37 0 -67.5 -26t-45.5 -72h-51zM311 709q0 -631 281 -631q138 0 211.5 161t73.5 484q0 315 -71.5 473t-207.5 158q-139 0 -213 -161t-74 -484z" />
    <glyph glyph-name="Odieresis" unicode="&#xd6;" 
d="M582 -33q-102 0 -191 49t-155 139t-104 228t-38 307q0 350 145 562t367 212q102 0 191 -49t155 -139t104 -228t38 -307q0 -350 -145 -562t-367 -212zM248 1677q0 58 37.5 94.5t93.5 36.5q57 0 94 -36.5t37 -94.5t-37 -94.5t-94 -36.5q-56 0 -93.5 36.5t-37.5 94.5z
M311 709q0 -631 281 -631q138 0 211.5 161t73.5 484q0 315 -71.5 473t-207.5 158q-139 0 -213 -161t-74 -484zM702 1677q0 58 37.5 94.5t94.5 36.5q56 0 93.5 -36.5t37.5 -94.5t-37.5 -94.5t-93.5 -36.5q-57 0 -94.5 36.5t-37.5 94.5z" />
    <glyph glyph-name="multiply" unicode="&#xd7;" 
d="M244 287l-99 98l351 350l-351 350l99 99l350 -350l350 350l98 -99l-350 -350l350 -350l-98 -98l-350 350z" />
    <glyph glyph-name="Oslash" unicode="&#xd8;" 
d="M90 -109l146 267q-142 198 -142 532q0 350 145 562t367 212q160 0 281 -112l104 190h107l-146 -266q142 -198 142 -535q0 -350 -145 -562t-367 -212q-163 0 -281 115l-104 -191h-107zM311 709q0 -221 33 -353l461 844q-71 154 -207 154q-139 0 -213 -161t-74 -484z
M383 233q70 -155 209 -155q138 0 211.5 161t73.5 484q0 219 -33 354z" />
    <glyph glyph-name="Ugrave" unicode="&#xd9;" 
d="M578 -33q-75 0 -144 21.5t-130.5 66.5t-98.5 126t-37 188v880q0 65 -18.5 91t-77.5 26h-31v68h502v-68h-72q-58 0 -76 -25.5t-18 -91.5v-811q0 -307 252 -307q117 0 173 70t56 215v778q0 101 -34.5 136.5t-98.5 35.5h-63v68h485v-68h-23q-78 0 -107.5 -30t-29.5 -122
v-806q0 -214 -109 -327.5t-300 -113.5zM342 1845h229l56 -319h-49z" />
    <glyph glyph-name="Uacute" unicode="&#xda;" 
d="M578 -33q-75 0 -144 21.5t-130.5 66.5t-98.5 126t-37 188v880q0 65 -18.5 91t-77.5 26h-31v68h502v-68h-72q-58 0 -76 -25.5t-18 -91.5v-811q0 -307 252 -307q117 0 173 70t56 215v778q0 101 -34.5 136.5t-98.5 35.5h-63v68h485v-68h-23q-78 0 -107.5 -30t-29.5 -122
v-806q0 -214 -109 -327.5t-300 -113.5zM578 1526l55 319h229l-235 -319h-49z" />
    <glyph glyph-name="Ucircumflex" unicode="&#xdb;" 
d="M578 -33q-75 0 -144 21.5t-130.5 66.5t-98.5 126t-37 188v880q0 65 -18.5 91t-77.5 26h-31v68h502v-68h-72q-58 0 -76 -25.5t-18 -91.5v-811q0 -307 252 -307q117 0 173 70t56 215v778q0 101 -34.5 136.5t-98.5 35.5h-63v68h485v-68h-23q-78 0 -107.5 -30t-29.5 -122
v-806q0 -214 -109 -327.5t-300 -113.5zM309 1526l193 319h203l190 -319h-43l-246 209h-8l-246 -209h-43z" />
    <glyph glyph-name="Udieresis" unicode="&#xdc;" 
d="M578 -33q-75 0 -144 21.5t-130.5 66.5t-98.5 126t-37 188v880q0 65 -18.5 91t-77.5 26h-31v68h502v-68h-72q-58 0 -76 -25.5t-18 -91.5v-811q0 -307 252 -307q117 0 173 70t56 215v778q0 101 -34.5 136.5t-98.5 35.5h-63v68h485v-68h-23q-78 0 -107.5 -30t-29.5 -122
v-806q0 -214 -109 -327.5t-300 -113.5zM244 1677q0 58 37.5 94.5t93.5 36.5q57 0 94 -36.5t37 -94.5t-37 -94.5t-94 -36.5q-56 0 -93.5 36.5t-37.5 94.5zM698 1677q0 58 37 94.5t94 36.5q56 0 94 -36.5t38 -94.5t-38 -94.5t-94 -36.5q-57 0 -94 36.5t-37 94.5z" />
    <glyph glyph-name="Yacute" unicode="&#xdd;" 
d="M207 1257q-35 69 -61 89t-68 20h-51v68h546v-68h-88q-111 0 -57 -109l207 -413h18l187 387q32 63 14.5 99t-86.5 36h-57v68h450v-68h-47q-46 0 -77 -27.5t-66 -99.5l-271 -549v-506q0 -68 22.5 -92t92.5 -24h92v-68h-622v68h92q70 0 92.5 24t22.5 92v510zM621 1526
l55 319h229l-235 -319h-49z" />
    <glyph glyph-name="Thorn" unicode="&#xde;" 
d="M51 0v68h84q56 0 75 24.5t19 91.5v1065q0 66 -18 91.5t-76 25.5h-84v68h553v-68h-72q-94 0 -94 -117v-98h131q248 0 377 -100t129 -291q0 -197 -126 -320t-322 -123q-101 0 -189 33v-166q0 -67 19 -91.5t75 -24.5h72v-68h-553zM438 430q59 -20 119 -20q130 0 215.5 92.5
t85.5 238.5q0 145 -85.5 231.5t-229.5 86.5q-47 0 -105 -10v-619z" />
    <glyph glyph-name="germandbls" unicode="&#xdf;" 
d="M82 0v61h45q51 0 74.5 22t23.5 73v936q0 98 34.5 177.5t93.5 131t135 79t161 27.5q111 0 201.5 -38.5t147.5 -119t57 -190.5q0 -121 -81 -212.5t-214 -123.5v-12q71 -11 133 -41.5t113 -79t80.5 -121.5t29.5 -161q0 -178 -103 -298t-255 -120q-112 0 -185 64.5t-73 168.5
q0 55 24 83t64 28q38 0 59 -25.5t21 -70.5q0 -10 -2 -31.5t-2 -30.5q0 -54 28.5 -84.5t75.5 -30.5q78 0 122 84t44 224q0 176 -86.5 268t-233.5 108v86q258 67 258 314q0 133 -62.5 205.5t-172.5 72.5q-105 0 -166 -71t-61 -209v-1143h-328z" />
    <glyph glyph-name="agrave" unicode="&#xe0;" 
d="M406 -33q-125 0 -196 63.5t-71 166.5q0 100 67 169.5t195 90.5l328 55v164q0 108 -43.5 159.5t-138.5 51.5q-80 0 -125 -33t-45 -96q0 -12 3 -36t3 -34q0 -48 -25.5 -76t-76.5 -28q-47 0 -75 27.5t-28 84.5q0 113 110 187.5t275 74.5q158 0 254.5 -71.5t95.5 -188.5
l-6 -471q-1 -61 21 -94t65 -33q42 0 66.5 30t30.5 83h49q-2 -104 -58 -175t-157 -71q-79 0 -127.5 45t-48.5 135v21h-7q-30 -76 -122.5 -138.5t-212.5 -62.5zM326 219q0 -68 39.5 -103.5t111.5 -35.5q109 0 180.5 71.5t71.5 165.5v121l-223 -39q-89 -15 -134.5 -61.5
t-45.5 -118.5zM381 1477h190l21 -445h-37z" />
    <glyph glyph-name="aacute" unicode="&#xe1;" 
d="M406 -33q-125 0 -196 63.5t-71 166.5q0 100 67 169.5t195 90.5l328 55v164q0 108 -43.5 159.5t-138.5 51.5q-80 0 -125 -33t-45 -96q0 -12 3 -36t3 -34q0 -48 -25.5 -76t-76.5 -28q-47 0 -75 27.5t-28 84.5q0 113 110 187.5t275 74.5q158 0 254.5 -71.5t95.5 -188.5
l-6 -471q-1 -61 21 -94t65 -33q42 0 66.5 30t30.5 83h49q-2 -104 -58 -175t-157 -71q-79 0 -127.5 45t-48.5 135v21h-7q-30 -76 -122.5 -138.5t-212.5 -62.5zM326 219q0 -68 39.5 -103.5t111.5 -35.5q109 0 180.5 71.5t71.5 165.5v121l-223 -39q-89 -15 -134.5 -61.5
t-45.5 -118.5zM555 1032l20 445h191l-174 -445h-37z" />
    <glyph glyph-name="acircumflex" unicode="&#xe2;" 
d="M406 -33q-125 0 -196 63.5t-71 166.5q0 100 67 169.5t195 90.5l328 55v164q0 108 -43.5 159.5t-138.5 51.5q-80 0 -125 -33t-45 -96q0 -12 3 -36t3 -34q0 -48 -25.5 -76t-76.5 -28q-47 0 -75 27.5t-28 84.5q0 113 110 187.5t275 74.5q158 0 254.5 -71.5t95.5 -188.5
l-6 -471q-1 -61 21 -94t65 -33q42 0 66.5 30t30.5 83h49q-2 -104 -58 -175t-157 -71q-79 0 -127.5 45t-48.5 135v21h-7q-30 -76 -122.5 -138.5t-212.5 -62.5zM307 1032l172 445h191l170 -445h-37l-225 314h-9l-225 -314h-37zM326 219q0 -68 39.5 -103.5t111.5 -35.5
q109 0 180.5 71.5t71.5 165.5v121l-223 -39q-89 -15 -134.5 -61.5t-45.5 -118.5z" />
    <glyph glyph-name="atilde" unicode="&#xe3;" 
d="M406 -33q-125 0 -196 63.5t-71 166.5q0 100 67 169.5t195 90.5l328 55v164q0 108 -43.5 159.5t-138.5 51.5q-80 0 -125 -33t-45 -96q0 -12 3 -36t3 -34q0 -48 -25.5 -76t-76.5 -28q-47 0 -75 27.5t-28 84.5q0 113 110 187.5t275 74.5q158 0 254.5 -71.5t95.5 -188.5
l-6 -471q-1 -61 21 -94t65 -33q42 0 66.5 30t30.5 83h49q-2 -104 -58 -175t-157 -71q-79 0 -127.5 45t-48.5 135v21h-7q-30 -76 -122.5 -138.5t-212.5 -62.5zM252 1130q18 94 72 156t133 62q46 0 97 -25t97 -49.5t80 -24.5q37 0 67.5 26t45.5 73h51q-18 -94 -72 -156
t-133 -62q-46 0 -97 25t-97 49.5t-80 24.5q-37 0 -67.5 -26t-45.5 -73h-51zM326 219q0 -68 39.5 -103.5t111.5 -35.5q109 0 180.5 71.5t71.5 165.5v121l-223 -39q-89 -15 -134.5 -61.5t-45.5 -118.5z" />
    <glyph glyph-name="adieresis" unicode="&#xe4;" 
d="M406 -33q-125 0 -196 63.5t-71 166.5q0 100 67 169.5t195 90.5l328 55v164q0 108 -43.5 159.5t-138.5 51.5q-80 0 -125 -33t-45 -96q0 -12 3 -36t3 -34q0 -48 -25.5 -76t-76.5 -28q-47 0 -75 27.5t-28 84.5q0 113 110 187.5t275 74.5q158 0 254.5 -71.5t95.5 -188.5
l-6 -471q-1 -61 21 -94t65 -33q42 0 66.5 30t30.5 83h49q-2 -104 -58 -175t-157 -71q-79 0 -127.5 45t-48.5 135v21h-7q-30 -76 -122.5 -138.5t-212.5 -62.5zM238 1257q0 55 35.5 90t88.5 35q54 0 89.5 -35t35.5 -90t-35.5 -89.5t-89.5 -34.5q-53 0 -88.5 34.5t-35.5 89.5z
M326 219q0 -68 39.5 -103.5t111.5 -35.5q109 0 180.5 71.5t71.5 165.5v121l-223 -39q-89 -15 -134.5 -61.5t-45.5 -118.5zM659 1257q0 55 35.5 90t89.5 35q53 0 89 -35t36 -90t-36 -89.5t-89 -34.5q-54 0 -89.5 34.5t-35.5 89.5z" />
    <glyph glyph-name="aring" unicode="&#xe5;" 
d="M406 -33q-125 0 -196 63.5t-71 166.5q0 100 67 169.5t195 90.5l328 55v164q0 108 -43.5 159.5t-138.5 51.5q-80 0 -125 -33t-45 -96q0 -12 3 -36t3 -34q0 -48 -25.5 -76t-76.5 -28q-47 0 -75 27.5t-28 84.5q0 113 110 187.5t275 74.5q158 0 254.5 -71.5t95.5 -188.5
l-6 -471q-1 -61 21 -94t65 -33q42 0 66.5 30t30.5 83h49q-2 -104 -58 -175t-157 -71q-79 0 -127.5 45t-48.5 135v21h-7q-30 -76 -122.5 -138.5t-212.5 -62.5zM326 219q0 -68 39.5 -103.5t111.5 -35.5q109 0 180.5 71.5t71.5 165.5v121l-223 -39q-89 -15 -134.5 -61.5
t-45.5 -118.5zM375 1309q0 87 56.5 144.5t141.5 57.5t142 -57.5t57 -144.5q0 -85 -57 -142t-142 -57t-141.5 57t-56.5 142zM457 1309q0 -50 33.5 -83.5t82.5 -33.5t83 34t34 83q0 52 -33.5 86.5t-83.5 34.5t-83 -34.5t-33 -86.5z" />
    <glyph glyph-name="ae" unicode="&#xe6;" 
d="M285 -33q-104 0 -164 63.5t-60 166.5q0 97 58 163t164 91l241 57v168q0 108 -33.5 159.5t-105.5 51.5q-119 0 -119 -125q0 -10 3 -37t3 -37q0 -47 -22.5 -75.5t-65.5 -28.5q-41 0 -65.5 27.5t-24.5 84.5q0 114 87 188t218 74q162 0 236 -110q86 110 221 110t207 -107
t63 -300h-436v-33q0 -195 52 -306.5t145 -111.5q62 0 113 48.5t67 142.5h59q-13 -145 -84.5 -230.5t-201.5 -85.5q-101 0 -172.5 55t-106.5 160h-4q-20 -93 -92 -158t-180 -65zM225 215q0 -61 32 -94t87 -33q81 0 130.5 68t49.5 161v121l-155 -41q-62 -16 -103 -64t-41 -118
zM696 637h193q38 0 50.5 12t12.5 49q0 70 -31 123t-83 53q-50 0 -89.5 -58t-52.5 -179z" />
    <glyph glyph-name="ccedilla" unicode="&#xe7;" 
d="M489 -244v43l76 178q-182 14 -295.5 140t-113.5 319q0 139 61.5 258t176.5 191.5t257 72.5q152 0 258.5 -72.5t106.5 -183.5q0 -59 -29 -89.5t-76 -30.5t-73.5 29.5t-26.5 80.5q0 10 3 31t3 31q0 59 -46.5 89.5t-127.5 30.5q-143 0 -219 -103t-76 -265q0 -181 88.5 -286
t247.5 -105q108 0 188 47.5t105 128.5h53q-19 -126 -128.5 -217.5t-268.5 -98.5l-35 -86q75 -3 119.5 -41.5t44.5 -99.5q0 -100 -112.5 -160t-284.5 -45v62q108 -6 172.5 17.5t64.5 70.5q0 60 -113 63z" />
    <glyph glyph-name="egrave" unicode="&#xe8;" 
d="M627 -25q-205 0 -338 131.5t-133 342.5q0 141 63 257.5t176 184t252 67.5q116 0 208.5 -46.5t146 -140.5t45.5 -220h-697q-2 -12 -2 -37q0 -190 96 -302t252 -112q103 0 185.5 48.5t111.5 142.5h54q-19 -140 -134 -228t-286 -88zM360 637h428q33 0 49.5 11t16.5 50
q0 71 -61.5 123.5t-157.5 52.5q-98 0 -172.5 -60.5t-102.5 -176.5zM455 1477h190l21 -445h-37z" />
    <glyph glyph-name="eacute" unicode="&#xe9;" 
d="M627 -25q-205 0 -338 131.5t-133 342.5q0 141 63 257.5t176 184t252 67.5q116 0 208.5 -46.5t146 -140.5t45.5 -220h-697q-2 -12 -2 -37q0 -190 96 -302t252 -112q103 0 185.5 48.5t111.5 142.5h54q-19 -140 -134 -228t-286 -88zM360 637h428q33 0 49.5 11t16.5 50
q0 71 -61.5 123.5t-157.5 52.5q-98 0 -172.5 -60.5t-102.5 -176.5zM629 1032l20 445h191l-174 -445h-37z" />
    <glyph glyph-name="ecircumflex" unicode="&#xea;" 
d="M627 -25q-205 0 -338 131.5t-133 342.5q0 141 63 257.5t176 184t252 67.5q116 0 208.5 -46.5t146 -140.5t45.5 -220h-697q-2 -12 -2 -37q0 -190 96 -302t252 -112q103 0 185.5 48.5t111.5 142.5h54q-19 -140 -134 -228t-286 -88zM360 637h428q33 0 49.5 11t16.5 50
q0 71 -61.5 123.5t-157.5 52.5q-98 0 -172.5 -60.5t-102.5 -176.5zM381 1032l172 445h190l170 -445h-36l-226 314h-8l-225 -314h-37z" />
    <glyph glyph-name="edieresis" unicode="&#xeb;" 
d="M627 -25q-205 0 -338 131.5t-133 342.5q0 141 63 257.5t176 184t252 67.5q116 0 208.5 -46.5t146 -140.5t45.5 -220h-697q-2 -12 -2 -37q0 -190 96 -302t252 -112q103 0 185.5 48.5t111.5 142.5h54q-19 -140 -134 -228t-286 -88zM311 1257q0 55 36 90t89 35
q54 0 89.5 -35t35.5 -90t-35.5 -89.5t-89.5 -34.5q-53 0 -89 34.5t-36 89.5zM360 637h428q33 0 49.5 11t16.5 50q0 71 -61.5 123.5t-157.5 52.5q-98 0 -172.5 -60.5t-102.5 -176.5zM733 1257q0 55 35.5 90t89.5 35q53 0 89 -35t36 -90t-36 -89.5t-89 -34.5q-54 0 -89.5 34.5
t-35.5 89.5z" />
    <glyph glyph-name="igrave" unicode="&#xec;" 
d="M209 0v68h123q170 0 170 155v496q0 155 -150 155h-143v68h770v-68h-143q-150 0 -150 -155v-496q0 -155 170 -155h123v-68h-770zM401 1477h191l20 -445h-37z" />
    <glyph glyph-name="iacute" unicode="&#xed;" 
d="M209 0v68h123q170 0 170 155v496q0 155 -150 155h-143v68h770v-68h-143q-150 0 -150 -155v-496q0 -155 170 -155h123v-68h-770zM575 1032l21 445h190l-174 -445h-37z" />
    <glyph glyph-name="icircumflex" unicode="&#xee;" 
d="M209 0v68h123q170 0 170 155v496q0 155 -150 155h-143v68h770v-68h-143q-150 0 -150 -155v-496q0 -155 170 -155h123v-68h-770zM328 1032l172 445h190l170 -445h-37l-225 314h-8l-225 -314h-37z" />
    <glyph glyph-name="idieresis" unicode="&#xef;" 
d="M209 0v68h123q170 0 170 155v496q0 155 -150 155h-143v68h770v-68h-143q-150 0 -150 -155v-496q0 -155 170 -155h123v-68h-770zM299 1257q0 55 36 90t89 35q54 0 89.5 -35t35.5 -90t-35.5 -89.5t-89.5 -34.5q-53 0 -89 34.5t-36 89.5zM639 1257q0 55 35.5 90t89.5 35
q53 0 89 -35t36 -90t-36 -89.5t-89 -34.5q-54 0 -89.5 34.5t-35.5 89.5z" />
    <glyph glyph-name="eth" unicode="&#xf0;" 
d="M575 -33q-188 0 -323 136.5t-135 347.5q0 106 40 201t106 161.5t154.5 105.5t182.5 39q133 0 231 -65q-41 178 -151 297l-260 -123v111l184 88q-97 83 -250 159l39 56q195 -88 307 -170l269 127v-111l-181 -86q271 -245 271 -657q0 -289 -136 -453t-348 -164zM326 469
q0 -200 66.5 -309t191.5 -109q126 0 196 109t70 297q0 195 -67 306t-191 111q-126 0 -196 -108.5t-70 -296.5z" />
    <glyph glyph-name="ntilde" unicode="&#xf1;" 
d="M49 0v61h68q51 0 74.5 22t23.5 73v622q0 58 -24 80.5t-82 22.5h-52v61h326l14 -156h4q44 77 127 124.5t181 47.5q129 0 212 -79t83 -199v-524q0 -52 23.5 -73.5t80.5 -21.5h47v-61h-496v61h52q55 0 81.5 22t26.5 73v465q0 106 -53 156t-137 50q-91 0 -160.5 -67.5
t-69.5 -181.5v-422q0 -51 26.5 -73t82.5 -22h51v-61h-510zM279 1130q18 94 71.5 156t132.5 62q46 0 97 -25t97.5 -49.5t80.5 -24.5q37 0 67 26t45 73h52q-18 -94 -72 -156t-133 -62q-46 0 -97 25t-97.5 49.5t-80.5 24.5q-37 0 -67 -26t-45 -73h-51z" />
    <glyph glyph-name="ograve" unicode="&#xf2;" 
d="M582 -33q-95 0 -182 35.5t-153 97.5t-105.5 153.5t-39.5 197.5q0 141 71 258.5t186.5 183t246.5 65.5q127 0 236 -59.5t176 -171.5t67 -252q0 -141 -70.5 -258.5t-186 -183.5t-246.5 -66zM311 469q0 -198 73 -308t206 -110q134 0 210.5 109.5t76.5 296.5q0 200 -73 308.5
t-206 108.5q-134 0 -210.5 -109t-76.5 -296zM424 1477h190l21 -445h-37z" />
    <glyph glyph-name="oacute" unicode="&#xf3;" 
d="M582 -33q-95 0 -182 35.5t-153 97.5t-105.5 153.5t-39.5 197.5q0 141 71 258.5t186.5 183t246.5 65.5q127 0 236 -59.5t176 -171.5t67 -252q0 -141 -70.5 -258.5t-186 -183.5t-246.5 -66zM311 469q0 -198 73 -308t206 -110q134 0 210.5 109.5t76.5 296.5q0 200 -73 308.5
t-206 108.5q-134 0 -210.5 -109t-76.5 -296zM598 1032l20 445h191l-174 -445h-37z" />
    <glyph glyph-name="ocircumflex" unicode="&#xf4;" 
d="M582 -33q-95 0 -182 35.5t-153 97.5t-105.5 153.5t-39.5 197.5q0 141 71 258.5t186.5 183t246.5 65.5q127 0 236 -59.5t176 -171.5t67 -252q0 -141 -70.5 -258.5t-186 -183.5t-246.5 -66zM311 469q0 -198 73 -308t206 -110q134 0 210.5 109.5t76.5 296.5q0 200 -73 308.5
t-206 108.5q-134 0 -210.5 -109t-76.5 -296zM350 1032l172 445h191l170 -445h-37l-225 314h-9l-225 -314h-37z" />
    <glyph glyph-name="otilde" unicode="&#xf5;" 
d="M582 -33q-95 0 -182 35.5t-153 97.5t-105.5 153.5t-39.5 197.5q0 141 71 258.5t186.5 183t246.5 65.5q127 0 236 -59.5t176 -171.5t67 -252q0 -141 -70.5 -258.5t-186 -183.5t-246.5 -66zM295 1130q18 94 72 156t133 62q46 0 97 -25t97 -49.5t80 -24.5q37 0 67.5 26
t45.5 73h51q-18 -94 -72 -156t-133 -62q-46 0 -97 25t-97 49.5t-80 24.5q-37 0 -67.5 -26t-45.5 -73h-51zM311 469q0 -198 73 -308t206 -110q134 0 210.5 109.5t76.5 296.5q0 200 -73 308.5t-206 108.5q-134 0 -210.5 -109t-76.5 -296z" />
    <glyph glyph-name="odieresis" unicode="&#xf6;" 
d="M582 -33q-95 0 -182 35.5t-153 97.5t-105.5 153.5t-39.5 197.5q0 141 71 258.5t186.5 183t246.5 65.5q127 0 236 -59.5t176 -171.5t67 -252q0 -141 -70.5 -258.5t-186 -183.5t-246.5 -66zM281 1257q0 55 36 90t89 35q54 0 89 -35t35 -90t-35 -89.5t-89 -34.5
q-53 0 -89 34.5t-36 89.5zM311 469q0 -198 73 -308t206 -110q134 0 210.5 109.5t76.5 296.5q0 200 -73 308.5t-206 108.5q-134 0 -210.5 -109t-76.5 -296zM702 1257q0 55 35.5 90t89.5 35q53 0 89 -35t36 -90t-36 -89.5t-89 -34.5q-54 0 -89.5 34.5t-35.5 89.5z" />
    <glyph glyph-name="divide" unicode="&#xf7;" 
d="M127 664v143h934v-143h-934zM451 375q0 62 40.5 103.5t102.5 41.5q60 0 101.5 -39.5t41.5 -99.5q0 -61 -40.5 -103t-102.5 -42q-60 0 -101.5 39.5t-41.5 99.5zM451 1092q0 62 40.5 103.5t102.5 41.5q60 0 101.5 -39.5t41.5 -99.5q0 -61 -40.5 -103.5t-102.5 -42.5
q-60 0 -101.5 40t-41.5 100z" />
    <glyph glyph-name="oslash" unicode="&#xf8;" 
d="M160 -109l121 179q-83 67 -131 165t-48 216q0 141 71 258.5t186.5 183t246.5 65.5q130 0 236 -59l92 135h94l-121 -178q83 -67 130.5 -165t47.5 -216q0 -141 -70.5 -258.5t-186 -183.5t-246.5 -66q-128 0 -236 60l-92 -136h-94zM311 469q0 -169 54 -274l411 606
q-67 73 -178 73q-134 0 -210.5 -109t-76.5 -296zM412 125q68 -74 178 -74q134 0 210.5 109.5t76.5 296.5q0 169 -54 274z" />
    <glyph glyph-name="ugrave" unicode="&#xf9;" 
d="M483 -33q-133 0 -205.5 76.5t-72.5 206.5v536q0 95 -109 95h-47v61h340v-659q0 -92 47 -138.5t117 -46.5q41 0 82.5 15.5t79 45.5t61 80.5t23.5 112.5v434q0 95 -109 95h-47v61h340v-786q0 -51 25 -73t79 -22h60v-61h-344v150h-4q-41 -80 -123.5 -131.5t-192.5 -51.5z
M373 1477h190l21 -445h-37z" />
    <glyph glyph-name="uacute" unicode="&#xfa;" 
d="M483 -33q-133 0 -205.5 76.5t-72.5 206.5v536q0 95 -109 95h-47v61h340v-659q0 -92 47 -138.5t117 -46.5q41 0 82.5 15.5t79 45.5t61 80.5t23.5 112.5v434q0 95 -109 95h-47v61h340v-786q0 -51 25 -73t79 -22h60v-61h-344v150h-4q-41 -80 -123.5 -131.5t-192.5 -51.5z
M547 1032l20 445h191l-174 -445h-37z" />
    <glyph glyph-name="ucircumflex" unicode="&#xfb;" 
d="M483 -33q-133 0 -205.5 76.5t-72.5 206.5v536q0 95 -109 95h-47v61h340v-659q0 -92 47 -138.5t117 -46.5q41 0 82.5 15.5t79 45.5t61 80.5t23.5 112.5v434q0 95 -109 95h-47v61h340v-786q0 -51 25 -73t79 -22h60v-61h-344v150h-4q-41 -80 -123.5 -131.5t-192.5 -51.5z
M299 1032l172 445h191l169 -445h-36l-226 314h-8l-225 -314h-37z" />
    <glyph glyph-name="udieresis" unicode="&#xfc;" 
d="M483 -33q-133 0 -205.5 76.5t-72.5 206.5v536q0 95 -109 95h-47v61h340v-659q0 -92 47 -138.5t117 -46.5q41 0 82.5 15.5t79 45.5t61 80.5t23.5 112.5v434q0 95 -109 95h-47v61h340v-786q0 -51 25 -73t79 -22h60v-61h-344v150h-4q-41 -80 -123.5 -131.5t-192.5 -51.5z
M229 1257q0 55 36 90t89 35q54 0 89.5 -35t35.5 -90t-35.5 -89.5t-89.5 -34.5q-53 0 -89 34.5t-36 89.5zM651 1257q0 55 35.5 90t89.5 35q53 0 89 -35t36 -90t-36 -89.5t-89 -34.5q-54 0 -89.5 34.5t-35.5 89.5z" />
    <glyph glyph-name="yacute" unicode="&#xfd;" 
d="M285 -557q-106 0 -171 64.5t-65 138.5q0 46 29 77t74 31q52 0 75.5 -39t12.5 -86q-9 -40 10.5 -67t54.5 -27q39 0 67 33.5t54 93.5l139 322l-379 825q-20 43 -42 57.5t-66 14.5h-55v61h526v-61h-105q-42 0 -55 -26t8 -69l256 -573h9l243 573q20 43 6.5 69t-59.5 26h-113
v61h426v-61h-37q-42 0 -67.5 -22.5t-46.5 -72.5l-496 -1157q-37 -89 -90 -137.5t-143 -48.5zM627 1032l20 445h191l-174 -445h-37z" />
    <glyph glyph-name="thorn" unicode="&#xfe;" 
d="M20 -530v61h56q51 0 69.5 20t18.5 74v1696q0 54 -18.5 74t-69.5 20h-35v62h459v-62h-68q-51 0 -69.5 -20t-18.5 -74v-522h4q52 71 136.5 115t187.5 44q182 0 297.5 -133.5t115.5 -345.5q0 -155 -72 -274t-183.5 -178.5t-239.5 -59.5q-139 0 -242 78v-420q0 -54 18.5 -74
t69.5 -20h68v-61h-484zM348 279q0 -59 20.5 -103.5t55 -69t73.5 -36t83 -11.5q138 0 225.5 100.5t87.5 284.5q0 179 -90.5 280t-224.5 101q-148 0 -230 -112v-434z" />
    <glyph glyph-name="ydieresis" unicode="&#xff;" 
d="M285 -557q-106 0 -171 64.5t-65 138.5q0 46 29 77t74 31q52 0 75.5 -39t12.5 -86q-9 -40 10.5 -67t54.5 -27q39 0 67 33.5t54 93.5l139 322l-379 825q-20 43 -42 57.5t-66 14.5h-55v61h526v-61h-105q-42 0 -55 -26t8 -69l256 -573h9l243 573q20 43 6.5 69t-59.5 26h-113
v61h426v-61h-37q-42 0 -67.5 -22.5t-46.5 -72.5l-496 -1157q-37 -89 -90 -137.5t-143 -48.5zM309 1257q0 55 36 90t89 35q54 0 89.5 -35t35.5 -90t-35.5 -89.5t-89.5 -34.5q-53 0 -89 34.5t-36 89.5zM731 1257q0 55 35.5 90t89.5 35q53 0 89 -35t36 -90t-36 -89.5t-89 -34.5
q-54 0 -89.5 34.5t-35.5 89.5z" />
    <glyph glyph-name="Amacron" unicode="&#x100;" 
d="M18 0v68h39q52 0 83.5 37t49.5 110l310 1231h227l301 -1270q17 -69 36 -88.5t64 -19.5h41v-68h-487v68h94q74 0 49 108l-77 342h-355l-67 -278q-45 -172 80 -172h59v-68h-447zM301 1577v111h621v-111h-621zM428 655h287l-131 578h-15z" />
    <glyph glyph-name="amacron" unicode="&#x101;" 
d="M406 -33q-125 0 -196 63.5t-71 166.5q0 100 67 169.5t195 90.5l328 55v164q0 108 -43.5 159.5t-138.5 51.5q-80 0 -125 -33t-45 -96q0 -12 3 -36t3 -34q0 -48 -25.5 -76t-76.5 -28q-47 0 -75 27.5t-28 84.5q0 113 110 187.5t275 74.5q158 0 254.5 -71.5t95.5 -188.5
l-6 -471q-1 -61 21 -94t65 -33q42 0 66.5 30t30.5 83h49q-2 -104 -58 -175t-157 -71q-79 0 -127.5 45t-48.5 135v21h-7q-30 -76 -122.5 -138.5t-212.5 -62.5zM262 1188v110h621v-110h-621zM326 219q0 -68 39.5 -103.5t111.5 -35.5q109 0 180.5 71.5t71.5 165.5v121l-223 -39
q-89 -15 -134.5 -61.5t-45.5 -118.5z" />
    <glyph glyph-name="Abreve" unicode="&#x102;" 
d="M18 0v68h39q52 0 83.5 37t49.5 110l310 1231h227l301 -1270q17 -69 36 -88.5t64 -19.5h41v-68h-487v68h94q74 0 49 108l-77 342h-355l-67 -278q-45 -172 80 -172h59v-68h-447zM319 1845h50q15 -71 81.5 -111t161.5 -40q96 0 162.5 40t81.5 111h49q-7 -59 -26 -108.5
t-52.5 -92.5t-88.5 -67.5t-126 -24.5t-126 24.5t-88.5 67.5t-52.5 92.5t-26 108.5zM428 655h287l-131 578h-15z" />
    <glyph glyph-name="abreve" unicode="&#x103;" 
d="M406 -33q-125 0 -196 63.5t-71 166.5q0 100 67 169.5t195 90.5l328 55v164q0 108 -43.5 159.5t-138.5 51.5q-80 0 -125 -33t-45 -96q0 -12 3 -36t3 -34q0 -48 -25.5 -76t-76.5 -28q-47 0 -75 27.5t-28 84.5q0 113 110 187.5t275 74.5q158 0 254.5 -71.5t95.5 -188.5
l-6 -471q-1 -61 21 -94t65 -33q42 0 66.5 30t30.5 83h49q-2 -104 -58 -175t-157 -71q-79 0 -127.5 45t-48.5 135v21h-7q-30 -76 -122.5 -138.5t-212.5 -62.5zM297 1407h41q8 -101 73.5 -150t161.5 -49t162 49t74 150h41q0 -67 -16.5 -126.5t-48.5 -108t-86.5 -77
t-125.5 -28.5t-125 28.5t-86.5 77t-48.5 108t-16 126.5zM326 219q0 -68 39.5 -103.5t111.5 -35.5q109 0 180.5 71.5t71.5 165.5v121l-223 -39q-89 -15 -134.5 -61.5t-45.5 -118.5z" />
    <glyph glyph-name="Aogonek" unicode="&#x104;" 
d="M18 0v68h39q52 0 83.5 37t49.5 110l310 1231h227l301 -1270q17 -69 36 -88.5t64 -19.5h41v-68h-141q-59 -74 -83.5 -126.5t-24.5 -106.5q0 -107 90 -107q76 0 104 68h55q-21 -76 -81.5 -124t-141.5 -48q-80 0 -126 40.5t-46 112.5q0 135 182 291h-274v68h94q74 0 49 108
l-77 342h-355l-67 -278q-45 -172 80 -172h59v-68h-447zM428 655h287l-131 578h-15z" />
    <glyph glyph-name="aogonek" unicode="&#x105;" 
d="M406 -33q-125 0 -196 63.5t-71 166.5q0 100 67 169.5t195 90.5l328 55v164q0 108 -43.5 159.5t-138.5 51.5q-80 0 -125 -33t-45 -96q0 -12 3 -36t3 -34q0 -48 -25.5 -76t-76.5 -28q-47 0 -75 27.5t-28 84.5q0 113 110 187.5t275 74.5q158 0 254.5 -71.5t95.5 -188.5
l-6 -471q-1 -61 21 -94t65 -33q42 0 66.5 30t30.5 83h49q-3 -122 -74 -193q-69 -85 -97 -141t-28 -112q0 -107 90 -107q77 0 105 68h55q-21 -76 -81.5 -124t-141.5 -48q-80 0 -126 40.5t-46 112.5q0 123 147 258h-18q-79 0 -127.5 45t-48.5 135v21h-7q-30 -76 -122.5 -138.5
t-212.5 -62.5zM326 219q0 -68 39.5 -103.5t111.5 -35.5q109 0 180.5 71.5t71.5 165.5v121l-223 -39q-89 -15 -134.5 -61.5t-45.5 -118.5z" />
    <glyph glyph-name="Cacute" unicode="&#x106;" 
d="M688 -33q-273 0 -426 193.5t-153 535.5q0 177 47 322.5t130 242.5t197.5 150t249.5 53q86 0 173.5 -22.5t142.5 -57.5l16 -272h-61q-44 124 -126.5 183t-185.5 59q-58 0 -109.5 -20t-99.5 -67.5t-82 -118.5t-54.5 -180.5t-20.5 -246.5q0 -643 368 -643q120 0 205.5 72.5
t140.5 238.5h58l-8 -270q-75 -65 -180 -108.5t-222 -43.5zM682 1526l55 319h230l-236 -319h-49z" />
    <glyph glyph-name="cacute" unicode="&#x107;" 
d="M608 -25q-198 0 -325 128.5t-127 332.5q0 139 61.5 258t176.5 191.5t257 72.5q152 0 258.5 -72.5t106.5 -183.5q0 -59 -29 -89.5t-76 -30.5t-73.5 29.5t-26.5 80.5q0 10 3 31t3 31q0 59 -46.5 89.5t-127.5 30.5q-143 0 -219 -103t-76 -265q0 -181 88.5 -286t247.5 -105
q108 0 188 47.5t105 128.5h53q-20 -131 -136.5 -223.5t-285.5 -92.5zM623 1032l20 445h191l-175 -445h-36z" />
    <glyph glyph-name="Ccircumflex" unicode="&#x108;" 
d="M688 -33q-273 0 -426 193.5t-153 535.5q0 177 47 322.5t130 242.5t197.5 150t249.5 53q86 0 173.5 -22.5t142.5 -57.5l16 -272h-61q-44 124 -126.5 183t-185.5 59q-58 0 -109.5 -20t-99.5 -67.5t-82 -118.5t-54.5 -180.5t-20.5 -246.5q0 -643 368 -643q120 0 205.5 72.5
t140.5 238.5h58l-8 -270q-75 -65 -180 -108.5t-222 -43.5zM414 1526l192 319h203l190 -319h-43l-245 209h-9l-245 -209h-43z" />
    <glyph glyph-name="ccircumflex" unicode="&#x109;" 
d="M608 -25q-198 0 -325 128.5t-127 332.5q0 139 61.5 258t176.5 191.5t257 72.5q152 0 258.5 -72.5t106.5 -183.5q0 -59 -29 -89.5t-76 -30.5t-73.5 29.5t-26.5 80.5q0 10 3 31t3 31q0 59 -46.5 89.5t-127.5 30.5q-143 0 -219 -103t-76 -265q0 -181 88.5 -286t247.5 -105
q108 0 188 47.5t105 128.5h53q-20 -131 -136.5 -223.5t-285.5 -92.5zM375 1032l172 445h190l170 -445h-37l-225 314h-8l-225 -314h-37z" />
    <glyph glyph-name="Cdotaccent" unicode="&#x10a;" 
d="M688 -33q-273 0 -426 193.5t-153 535.5q0 177 47 322.5t130 242.5t197.5 150t249.5 53q86 0 173.5 -22.5t142.5 -57.5l16 -272h-61q-44 124 -126.5 183t-185.5 59q-58 0 -109.5 -20t-99.5 -67.5t-82 -118.5t-54.5 -180.5t-20.5 -246.5q0 -643 368 -643q120 0 205.5 72.5
t140.5 238.5h58l-8 -270q-75 -65 -180 -108.5t-222 -43.5zM569 1683q0 61 39 100.5t99 39.5q59 0 98 -39.5t39 -100.5t-39 -99t-98 -38q-60 0 -99 38t-39 99z" />
    <glyph glyph-name="cdotaccent" unicode="&#x10b;" 
d="M608 -25q-198 0 -325 128.5t-127 332.5q0 139 61.5 258t176.5 191.5t257 72.5q152 0 258.5 -72.5t106.5 -183.5q0 -59 -29 -89.5t-76 -30.5t-73.5 29.5t-26.5 80.5q0 10 3 31t3 31q0 59 -46.5 89.5t-127.5 30.5q-143 0 -219 -103t-76 -265q0 -181 88.5 -286t247.5 -105
q108 0 188 47.5t105 128.5h53q-20 -131 -136.5 -223.5t-285.5 -92.5zM504 1264q0 61 38.5 100t98.5 39q59 0 98 -39t39 -100t-39 -99.5t-98 -38.5q-60 0 -98.5 38.5t-38.5 99.5z" />
    <glyph glyph-name="Ccaron" unicode="&#x10c;" 
d="M688 -33q-273 0 -426 193.5t-153 535.5q0 177 47 322.5t130 242.5t197.5 150t249.5 53q86 0 173.5 -22.5t142.5 -57.5l16 -272h-61q-44 124 -126.5 183t-185.5 59q-58 0 -109.5 -20t-99.5 -67.5t-82 -118.5t-54.5 -180.5t-20.5 -246.5q0 -643 368 -643q120 0 205.5 72.5
t140.5 238.5h58l-8 -270q-75 -65 -180 -108.5t-222 -43.5zM414 1866h43l245 -209h9l245 209h43l-190 -320h-203z" />
    <glyph glyph-name="ccaron" unicode="&#x10d;" 
d="M608 -25q-198 0 -325 128.5t-127 332.5q0 139 61.5 258t176.5 191.5t257 72.5q152 0 258.5 -72.5t106.5 -183.5q0 -59 -29 -89.5t-76 -30.5t-73.5 29.5t-26.5 80.5q0 10 3 31t3 31q0 59 -46.5 89.5t-127.5 30.5q-143 0 -219 -103t-76 -265q0 -181 88.5 -286t247.5 -105
q108 0 188 47.5t105 128.5h53q-20 -131 -136.5 -223.5t-285.5 -92.5zM375 1507h37l225 -313h8l225 313h37l-170 -444h-190z" />
    <glyph glyph-name="Dcaron" unicode="&#x10e;" 
d="M31 0v68h53q56 0 75 24.5t19 91.5v1065q0 66 -18 91.5t-76 25.5h-53v68h465q130 0 231.5 -34.5t170 -95t113 -149t64 -191.5t19.5 -227q0 -166 -37.5 -299.5t-112.5 -232t-195.5 -152t-279.5 -53.5h-438zM260 1866h43l246 -209h8l246 209h43l-191 -320h-202zM387 215
q0 -68 22 -92.5t91 -24.5h20q122 0 203 78t117.5 215t36.5 332q0 289 -95 450.5t-293 161.5h-102v-1120z" />
    <glyph glyph-name="dcaron" unicode="&#x10f;" 
d="M428 -33q-182 0 -298 133.5t-116 345.5q0 117 42 215.5t111.5 162t158.5 99t184 35.5q140 0 242 -77v440q0 54 -18.5 74t-69.5 20h-68v62h483v-62h-55q-51 0 -69.5 -20t-18.5 -74v-1165q0 -51 25 -73t79 -22h39v-61h-323v127h-4q-52 -71 -136.5 -115.5t-187.5 -44.5z
M207 481q0 -179 90.5 -280t224.5 -101q147 0 230 113v434q0 59 -20.5 103.5t-55 68.5t-73.5 35.5t-83 11.5q-138 0 -225.5 -100.5t-87.5 -284.5zM1149 1032v445h190l-153 -445h-37z" />
    <glyph glyph-name="Dcroat" unicode="&#x110;" 
d="M29 666v102h149v481q0 66 -18 91.5t-76 25.5h-53v68h465q130 0 231.5 -34.5t170 -95t113 -149t64 -191.5t19.5 -227q0 -166 -37.5 -299.5t-112.5 -232t-195.5 -152t-279.5 -53.5h-438v68h53q56 0 75 24.5t19 91.5v482h-149zM387 215q0 -68 22 -92.5t91 -24.5h20
q122 0 203 78t117.5 215t36.5 332q0 289 -95 450.5t-293 161.5h-102v-567h244v-102h-244v-451z" />
    <glyph glyph-name="dcroat" unicode="&#x111;" 
d="M516 -33q-182 0 -298 133.5t-116 345.5q0 117 42 215.5t111.5 162t158.5 99t184 35.5q140 0 242 -77v243h-254v103h254v94q0 54 -18.5 74t-69.5 20h-68v62h483v-62h-55q-51 0 -69.5 -20t-18.5 -74v-94h164v-103h-164v-968q0 -51 25 -73t79 -22h39v-61h-323v127h-4
q-52 -71 -136.5 -115.5t-187.5 -44.5zM295 481q0 -179 90.5 -280t224.5 -101q147 0 230 113v434q0 59 -20.5 103.5t-55 68.5t-73.5 35.5t-83 11.5q-138 0 -225.5 -100.5t-87.5 -284.5z" />
    <glyph glyph-name="Emacron" unicode="&#x112;" 
d="M72 0v68h84q56 0 75 24.5t19 91.5v1065q0 66 -18 91.5t-76 25.5h-84v68h948l20 -320h-67q-21 87 -51 132.5t-85 67t-151 21.5h-113q-66 0 -90 -21.5t-24 -80.5v-442h131q79 0 121.5 17t63 52t38.5 109h68v-457h-68q-13 56 -26.5 87.5t-38 54t-61.5 30.5t-97 8h-131v-487
q0 -62 24 -84.5t90 -22.5h146q82 0 131.5 8.5t85.5 34t54.5 67t31.5 111.5h68l-21 -319h-997zM283 1577v111h620v-111h-620z" />
    <glyph glyph-name="emacron" unicode="&#x113;" 
d="M627 -25q-205 0 -338 131.5t-133 342.5q0 141 63 257.5t176 184t252 67.5q116 0 208.5 -46.5t146 -140.5t45.5 -220h-697q-2 -12 -2 -37q0 -190 96 -302t252 -112q103 0 185.5 48.5t111.5 142.5h54q-19 -140 -134 -228t-286 -88zM336 1188v110h620v-110h-620zM360 637
h428q33 0 49.5 11t16.5 50q0 71 -61.5 123.5t-157.5 52.5q-98 0 -172.5 -60.5t-102.5 -176.5z" />
    <glyph glyph-name="Ebreve" unicode="&#x114;" 
d="M72 0v68h84q56 0 75 24.5t19 91.5v1065q0 66 -18 91.5t-76 25.5h-84v68h948l20 -320h-67q-21 87 -51 132.5t-85 67t-151 21.5h-113q-66 0 -90 -21.5t-24 -80.5v-442h131q79 0 121.5 17t63 52t38.5 109h68v-457h-68q-13 56 -26.5 87.5t-38 54t-61.5 30.5t-97 8h-131v-487
q0 -62 24 -84.5t90 -22.5h146q82 0 131.5 8.5t85.5 34t54.5 67t31.5 111.5h68l-21 -319h-997zM301 1845h49q15 -71 81.5 -111t162.5 -40t162.5 40t81.5 111h49q-7 -59 -26 -108.5t-52.5 -92.5t-88.5 -67.5t-126 -24.5t-126 24.5t-88.5 67.5t-52.5 92.5t-26 108.5z" />
    <glyph glyph-name="ebreve" unicode="&#x115;" 
d="M627 -25q-205 0 -338 131.5t-133 342.5q0 141 63 257.5t176 184t252 67.5q116 0 208.5 -46.5t146 -140.5t45.5 -220h-697q-2 -12 -2 -37q0 -190 96 -302t252 -112q103 0 185.5 48.5t111.5 142.5h54q-19 -140 -134 -228t-286 -88zM360 637h428q33 0 49.5 11t16.5 50
q0 71 -61.5 123.5t-157.5 52.5q-98 0 -172.5 -60.5t-102.5 -176.5zM371 1407h41q8 -101 73.5 -150t161.5 -49t162 49t74 150h41q0 -67 -16.5 -126.5t-48.5 -108t-86.5 -77t-125.5 -28.5t-125 28.5t-86.5 77t-48.5 108t-16 126.5z" />
    <glyph glyph-name="Edotaccent" unicode="&#x116;" 
d="M72 0v68h84q56 0 75 24.5t19 91.5v1065q0 66 -18 91.5t-76 25.5h-84v68h948l20 -320h-67q-21 87 -51 132.5t-85 67t-151 21.5h-113q-66 0 -90 -21.5t-24 -80.5v-442h131q79 0 121.5 17t63 52t38.5 109h68v-457h-68q-13 56 -26.5 87.5t-38 54t-61.5 30.5t-97 8h-131v-487
q0 -62 24 -84.5t90 -22.5h146q82 0 131.5 8.5t85.5 34t54.5 67t31.5 111.5h68l-21 -319h-997zM457 1683q0 61 38.5 100.5t98.5 39.5q59 0 98 -39.5t39 -100.5t-39 -99t-98 -38q-60 0 -98.5 38t-38.5 99z" />
    <glyph glyph-name="edotaccent" unicode="&#x117;" 
d="M627 -25q-205 0 -338 131.5t-133 342.5q0 141 63 257.5t176 184t252 67.5q116 0 208.5 -46.5t146 -140.5t45.5 -220h-697q-2 -12 -2 -37q0 -190 96 -302t252 -112q103 0 185.5 48.5t111.5 142.5h54q-19 -140 -134 -228t-286 -88zM360 637h428q33 0 49.5 11t16.5 50
q0 71 -61.5 123.5t-157.5 52.5q-98 0 -172.5 -60.5t-102.5 -176.5zM510 1264q0 61 38.5 100t98.5 39q59 0 98 -39t39 -100t-39 -99.5t-98 -38.5q-60 0 -98.5 38.5t-38.5 99.5z" />
    <glyph glyph-name="Eogonek" unicode="&#x118;" 
d="M72 0v68h84q56 0 75 24.5t19 91.5v1065q0 66 -18 91.5t-76 25.5h-84v68h948l20 -320h-67q-21 87 -51 132.5t-85 67t-151 21.5h-113q-66 0 -90 -21.5t-24 -80.5v-442h131q79 0 121.5 17t63 52t38.5 109h68v-457h-68q-13 56 -26.5 87.5t-38 54t-61.5 30.5t-97 8h-131v-487
q0 -62 24 -84.5t90 -22.5h146q82 0 131.5 8.5t85.5 34t54.5 67t31.5 111.5h68l-21 -319h-127q-59 -74 -83.5 -126.5t-24.5 -106.5q0 -107 90 -107q76 0 104 68h55q-21 -76 -81.5 -124t-141.5 -48q-80 0 -126 40.5t-46 112.5q0 135 182 291h-798z" />
    <glyph glyph-name="eogonek" unicode="&#x119;" 
d="M627 -25q-205 0 -338 131.5t-133 342.5q0 141 63 257.5t176 184t252 67.5q116 0 208.5 -46.5t146 -140.5t45.5 -220h-697q-2 -12 -2 -37q0 -190 96 -302t252 -112q103 0 185.5 48.5t111.5 142.5h54q-12 -87 -62.5 -156t-132.5 -110q-71 -85 -100 -143t-29 -115
q0 -107 90 -107q77 0 105 68h55q-21 -76 -81.5 -124t-141.5 -48q-80 0 -126 40.5t-46 112.5q0 133 170 279q-63 -13 -121 -13zM360 637h428q33 0 49.5 11t16.5 50q0 71 -61.5 123.5t-157.5 52.5q-98 0 -172.5 -60.5t-102.5 -176.5z" />
    <glyph glyph-name="Ecaron" unicode="&#x11a;" 
d="M72 0v68h84q56 0 75 24.5t19 91.5v1065q0 66 -18 91.5t-76 25.5h-84v68h948l20 -320h-67q-21 87 -51 132.5t-85 67t-151 21.5h-113q-66 0 -90 -21.5t-24 -80.5v-442h131q79 0 121.5 17t63 52t38.5 109h68v-457h-68q-13 56 -26.5 87.5t-38 54t-61.5 30.5t-97 8h-131v-487
q0 -62 24 -84.5t90 -22.5h146q82 0 131.5 8.5t85.5 34t54.5 67t31.5 111.5h68l-21 -319h-997zM301 1866h43l246 -209h8l246 209h43l-191 -320h-202z" />
    <glyph glyph-name="ecaron" unicode="&#x11b;" 
d="M627 -25q-205 0 -338 131.5t-133 342.5q0 141 63 257.5t176 184t252 67.5q116 0 208.5 -46.5t146 -140.5t45.5 -220h-697q-2 -12 -2 -37q0 -190 96 -302t252 -112q103 0 185.5 48.5t111.5 142.5h54q-19 -140 -134 -228t-286 -88zM360 637h428q33 0 49.5 11t16.5 50
q0 71 -61.5 123.5t-157.5 52.5q-98 0 -172.5 -60.5t-102.5 -176.5zM381 1507h37l225 -313h8l226 313h36l-170 -444h-190z" />
    <glyph glyph-name="Gcircumflex" unicode="&#x11c;" 
d="M625 -33q-156 0 -274 92.5t-180 254t-62 368.5q0 178 47.5 326t129.5 247.5t192.5 154t236.5 54.5q166 0 305 -80l16 -272h-61q-39 123 -118.5 182.5t-174.5 59.5q-158 0 -257 -161t-99 -484q0 -188 35 -329t109.5 -224.5t182.5 -83.5q86 0 146.5 53.5t60.5 169.5v156
q0 58 -19 82t-69 24h-110v68h473v-68h-29q-39 0 -54.5 -24t-15.5 -82v-293q-75 -83 -181.5 -137t-229.5 -54zM389 1526l193 319h202l191 -319h-43l-246 209h-8l-246 -209h-43z" />
    <glyph glyph-name="gcircumflex" unicode="&#x11d;" 
d="M518 -557q-199 0 -321.5 67t-122.5 175q0 66 49.5 120.5t148.5 106.5q-47 13 -82.5 55.5t-35.5 100.5q0 149 192 235q-76 46 -120 118.5t-44 160.5q0 106 57.5 193.5t151.5 135t201 47.5q78 0 145 -24q26 90 84 144.5t144 54.5q70 0 111.5 -36.5t41.5 -90.5
q0 -39 -24 -61.5t-58 -22.5q-26 0 -45 14.5t-28.5 31.5t-26 31.5t-39.5 14.5q-60 0 -90 -111q79 -44 125.5 -117.5t46.5 -164.5q0 -106 -57.5 -193.5t-151.5 -135.5t-201 -48q-89 0 -166 30q-92 -48 -92 -118q0 -85 113 -82l422 6q112 2 188 -70t76 -188t-80 -203
t-213.5 -131.5t-298.5 -44.5zM233 -287q0 -83 82 -133.5t238 -50.5q179 0 298.5 60t119.5 165q0 63 -42.5 100.5t-113.5 39.5l-463 10q-119 -89 -119 -191zM299 1219l193 319h202l191 -319h-43l-246 208h-8l-246 -208h-43zM367 598q0 -138 56 -211.5t152 -73.5
q103 0 161.5 80t58.5 211q0 138 -56.5 211.5t-152.5 73.5q-103 0 -161 -80t-58 -211z" />
    <glyph glyph-name="Gbreve" unicode="&#x11e;" 
d="M625 -33q-156 0 -274 92.5t-180 254t-62 368.5q0 178 47.5 326t129.5 247.5t192.5 154t236.5 54.5q166 0 305 -80l16 -272h-61q-39 123 -118.5 182.5t-174.5 59.5q-158 0 -257 -161t-99 -484q0 -188 35 -329t109.5 -224.5t182.5 -83.5q86 0 146.5 53.5t60.5 169.5v156
q0 58 -19 82t-69 24h-110v68h473v-68h-29q-39 0 -54.5 -24t-15.5 -82v-293q-75 -83 -181.5 -137t-229.5 -54zM389 1845h49q15 -71 81.5 -111t162.5 -40t162.5 40t81.5 111h49q-7 -59 -26 -108.5t-52.5 -92.5t-88.5 -67.5t-126 -24.5t-126 24.5t-88.5 67.5t-52.5 92.5
t-26 108.5z" />
    <glyph glyph-name="gbreve" unicode="&#x11f;" 
d="M518 -557q-199 0 -321.5 67t-122.5 175q0 66 49.5 120.5t148.5 106.5q-47 13 -82.5 55.5t-35.5 100.5q0 149 192 235q-76 46 -120 118.5t-44 160.5q0 106 57.5 193.5t151.5 135t201 47.5q78 0 145 -24q26 90 84 144.5t144 54.5q70 0 111.5 -36.5t41.5 -90.5
q0 -39 -24 -61.5t-58 -22.5q-26 0 -45 14.5t-28.5 31.5t-26 31.5t-39.5 14.5q-60 0 -90 -111q79 -44 125.5 -117.5t46.5 -164.5q0 -106 -57.5 -193.5t-151.5 -135.5t-201 -48q-89 0 -166 30q-92 -48 -92 -118q0 -85 113 -82l422 6q112 2 188 -70t76 -188t-80 -203
t-213.5 -131.5t-298.5 -44.5zM233 -287q0 -83 82 -133.5t238 -50.5q179 0 298.5 60t119.5 165q0 63 -42.5 100.5t-113.5 39.5l-463 10q-119 -89 -119 -191zM315 1530h41q8 -101 74 -150t162 -49t161.5 49t73.5 150h41q0 -67 -16 -126.5t-48.5 -108t-86.5 -77t-125 -28.5
t-125.5 28.5t-86.5 77t-48.5 108t-16.5 126.5zM367 598q0 -138 56 -211.5t152 -73.5q103 0 161.5 80t58.5 211q0 138 -56.5 211.5t-152.5 73.5q-103 0 -161 -80t-58 -211z" />
    <glyph glyph-name="Gdotaccent" unicode="&#x120;" 
d="M625 -33q-156 0 -274 92.5t-180 254t-62 368.5q0 178 47.5 326t129.5 247.5t192.5 154t236.5 54.5q166 0 305 -80l16 -272h-61q-39 123 -118.5 182.5t-174.5 59.5q-158 0 -257 -161t-99 -484q0 -188 35 -329t109.5 -224.5t182.5 -83.5q86 0 146.5 53.5t60.5 169.5v156
q0 58 -19 82t-69 24h-110v68h473v-68h-29q-39 0 -54.5 -24t-15.5 -82v-293q-75 -83 -181.5 -137t-229.5 -54zM545 1683q0 61 38.5 100.5t98.5 39.5q59 0 98 -39.5t39 -100.5t-39 -99t-98 -38q-60 0 -98.5 38t-38.5 99z" />
    <glyph glyph-name="gdotaccent" unicode="&#x121;" 
d="M518 -557q-199 0 -321.5 67t-122.5 175q0 66 49.5 120.5t148.5 106.5q-47 13 -82.5 55.5t-35.5 100.5q0 149 192 235q-76 46 -120 118.5t-44 160.5q0 106 57.5 193.5t151.5 135t201 47.5q78 0 145 -24q26 90 84 144.5t144 54.5q70 0 111.5 -36.5t41.5 -90.5
q0 -39 -24 -61.5t-58 -22.5q-26 0 -45 14.5t-28.5 31.5t-26 31.5t-39.5 14.5q-60 0 -90 -111q79 -44 125.5 -117.5t46.5 -164.5q0 -106 -57.5 -193.5t-151.5 -135.5t-201 -48q-89 0 -166 30q-92 -48 -92 -118q0 -85 113 -82l422 6q112 2 188 -70t76 -188t-80 -203
t-213.5 -131.5t-298.5 -44.5zM233 -287q0 -83 82 -133.5t238 -50.5q179 0 298.5 60t119.5 165q0 63 -42.5 100.5t-113.5 39.5l-463 10q-119 -89 -119 -191zM367 598q0 -138 56 -211.5t152 -73.5q103 0 161.5 80t58.5 211q0 138 -56.5 211.5t-152.5 73.5q-103 0 -161 -80
t-58 -211zM455 1386q0 61 38.5 100.5t98.5 39.5q59 0 98 -39.5t39 -100.5t-39 -99t-98 -38q-60 0 -98.5 38t-38.5 99z" />
    <glyph glyph-name="uni0122" unicode="&#x122;" 
d="M625 -33q-156 0 -274 92.5t-180 254t-62 368.5q0 178 47.5 326t129.5 247.5t192.5 154t236.5 54.5q166 0 305 -80l16 -272h-61q-39 123 -118.5 182.5t-174.5 59.5q-158 0 -257 -161t-99 -484q0 -188 35 -329t109.5 -224.5t182.5 -83.5q86 0 146.5 53.5t60.5 169.5v156
q0 58 -19 82t-69 24h-110v68h473v-68h-29q-39 0 -54.5 -24t-15.5 -82v-293q-75 -83 -181.5 -137t-229.5 -54zM463 -592v62q90 12 148.5 64.5t58.5 123.5q0 20 -6 35q-36 -39 -86 -39q-46 0 -77.5 30.5t-31.5 77.5q0 54 37.5 87.5t95.5 33.5q69 0 113.5 -50.5t44.5 -133.5
q0 -110 -80 -194t-217 -97z" />
    <glyph glyph-name="uni0123" unicode="&#x123;" 
d="M518 -557q-199 0 -321.5 67t-122.5 175q0 66 49.5 120.5t148.5 106.5q-47 13 -82.5 55.5t-35.5 100.5q0 149 192 235q-76 46 -120 118.5t-44 160.5q0 106 57.5 193.5t151.5 135t201 47.5q78 0 145 -24q26 90 84 144.5t144 54.5q70 0 111.5 -36.5t41.5 -90.5
q0 -39 -24 -61.5t-58 -22.5q-26 0 -45 14.5t-28.5 31.5t-26 31.5t-39.5 14.5q-60 0 -90 -111q79 -44 125.5 -117.5t46.5 -164.5q0 -106 -57.5 -193.5t-151.5 -135.5t-201 -48q-89 0 -166 30q-92 -48 -92 -118q0 -85 113 -82l422 6q112 2 188 -70t76 -188t-80 -203
t-213.5 -131.5t-298.5 -44.5zM233 -287q0 -83 82 -133.5t238 -50.5q179 0 298.5 60t119.5 165q0 63 -42.5 100.5t-113.5 39.5l-463 10q-119 -89 -119 -191zM367 598q0 -138 56 -211.5t152 -73.5q103 0 161.5 80t58.5 211q0 138 -56.5 211.5t-152.5 73.5q-103 0 -161 -80
t-58 -211zM440 1378q0 110 80 194t217 97v-61q-90 -12 -148.5 -65t-58.5 -124q0 -17 7 -35q36 39 86 39q46 0 77 -30.5t31 -77.5q0 -53 -37.5 -87t-95.5 -34q-69 0 -113.5 50.5t-44.5 133.5z" />
    <glyph glyph-name="Hcircumflex" unicode="&#x124;" 
d="M653 0v68h52q56 0 75 24.5t19 91.5v494h-410v-494q0 -67 19 -91.5t75 -24.5h52v-68h-502v68h53q56 0 75 24.5t19 91.5v1065q0 66 -18 91.5t-76 25.5h-53v68h502v-68h-52q-58 0 -76 -25.5t-18 -91.5v-458h410v458q0 66 -18 91.5t-76 25.5h-52v68h502v-68h-53
q-58 0 -76 -25.5t-18 -91.5v-1065q0 -67 19 -91.5t75 -24.5h53v-68h-502zM301 1526l193 319h202l191 -319h-43l-246 209h-8l-246 -209h-43z" />
    <glyph glyph-name="hcircumflex" unicode="&#x125;" 
d="M63 0v61h68q51 0 74.5 22t23.5 73v1165q0 54 -18.5 74t-69.5 20h-75v62h524v-62h-88q-51 0 -69.5 -20t-18.5 -74v-535h4q43 78 125.5 125t179.5 47q129 0 212 -79t83 -199v-524q0 -52 23.5 -73.5t80.5 -21.5h47v-61h-495v61h51q56 0 82.5 22t26.5 73v465q0 106 -53.5 156
t-137.5 50q-91 0 -160 -67.5t-69 -181.5v-422q0 -51 26 -73t82 -22h51v-61h-510zM35 1569l192 319h203l191 -319h-43l-246 209h-8l-246 -209h-43z" />
    <glyph glyph-name="Hbar" unicode="&#x126;" 
d="M653 0v68h52q56 0 75 24.5t19 91.5v494h-410v-494q0 -67 19 -91.5t75 -24.5h52v-68h-502v68h53q56 0 75 24.5t19 91.5v830h-168v112h168v123q0 66 -18 91.5t-76 25.5h-53v68h502v-68h-52q-58 0 -76 -25.5t-18 -91.5v-123h410v123q0 66 -18 91.5t-76 25.5h-52v68h502v-68
h-53q-58 0 -76 -25.5t-18 -91.5v-123h168v-112h-168v-830q0 -67 19 -91.5t75 -24.5h53v-68h-502zM389 791h410v223h-410v-223z" />
    <glyph glyph-name="hbar" unicode="&#x127;" 
d="M63 0v61h68q51 0 74.5 22t23.5 73v968h-163v103h163v94q0 54 -18.5 74t-69.5 20h-75v62h524v-62h-88q-51 0 -69.5 -20t-18.5 -74v-94h254v-103h-254v-338h4q43 78 125.5 125t179.5 47q129 0 212 -79t83 -199v-524q0 -52 23.5 -73.5t80.5 -21.5h47v-61h-495v61h51
q56 0 82.5 22t26.5 73v465q0 106 -53.5 156t-137.5 50q-91 0 -160 -67.5t-69 -181.5v-422q0 -51 26 -73t82 -22h51v-61h-510z" />
    <glyph glyph-name="Itilde" unicode="&#x128;" 
d="M987 0h-786v68h153q75 0 105 32t30 125v983q0 87 -34.5 122.5t-100.5 35.5h-153v68h786v-68h-153q-66 0 -101 -35.5t-35 -122.5v-983q0 -93 30.5 -125t105.5 -32h153v-68zM272 1565q18 94 72 155.5t133 61.5q46 0 97 -25t97.5 -49.5t80.5 -24.5q37 0 67 26t45 73h51
q-18 -94 -71.5 -155.5t-132.5 -61.5q-46 0 -97 24.5t-97.5 49t-80.5 24.5q-37 0 -67 -25.5t-45 -72.5h-52z" />
    <glyph glyph-name="itilde" unicode="&#x129;" 
d="M209 0v68h123q170 0 170 155v496q0 155 -150 155h-143v68h770v-68h-143q-150 0 -150 -155v-496q0 -155 170 -155h123v-68h-770zM272 1130q18 94 72 156t133 62q46 0 97 -25t97.5 -49.5t80.5 -24.5q37 0 67 26t45 73h51q-18 -94 -71.5 -156t-132.5 -62q-46 0 -97 25
t-97.5 49.5t-80.5 24.5q-37 0 -67 -26t-45 -73h-52z" />
    <glyph glyph-name="Imacron" unicode="&#x12a;" 
d="M987 0h-786v68h153q75 0 105 32t30 125v983q0 87 -34.5 122.5t-100.5 35.5h-153v68h786v-68h-153q-66 0 -101 -35.5t-35 -122.5v-983q0 -93 30.5 -125t105.5 -32h153v-68zM283 1577v111h620v-111h-620z" />
    <glyph glyph-name="imacron" unicode="&#x12b;" 
d="M209 0v68h123q170 0 170 155v496q0 155 -150 155h-143v68h770v-68h-143q-150 0 -150 -155v-496q0 -155 170 -155h123v-68h-770zM283 1188v110h620v-110h-620z" />
    <glyph glyph-name="Ibreve" unicode="&#x12c;" 
d="M987 0h-786v68h153q75 0 105 32t30 125v983q0 87 -34.5 122.5t-100.5 35.5h-153v68h786v-68h-153q-66 0 -101 -35.5t-35 -122.5v-983q0 -93 30.5 -125t105.5 -32h153v-68zM301 1845h49q15 -71 81.5 -111t162.5 -40t162.5 40t81.5 111h49q-7 -59 -26 -108.5t-52.5 -92.5
t-88.5 -67.5t-126 -24.5t-126 24.5t-88.5 67.5t-52.5 92.5t-26 108.5z" />
    <glyph glyph-name="ibreve" unicode="&#x12d;" 
d="M209 0v68h123q170 0 170 155v496q0 155 -150 155h-143v68h770v-68h-143q-150 0 -150 -155v-496q0 -155 170 -155h123v-68h-770zM317 1407h41q8 -101 74 -150t162 -49t161.5 49t73.5 150h41q0 -67 -16 -126.5t-48.5 -108t-86.5 -77t-125 -28.5t-125.5 28.5t-86.5 77
t-48.5 108t-16.5 126.5z" />
    <glyph glyph-name="Iogonek" unicode="&#x12e;" 
d="M987 0h-282q-59 -74 -84 -127t-25 -106q0 -107 90 -107q77 0 105 68h55q-21 -76 -81.5 -124t-141.5 -48q-80 0 -126 40.5t-46 112.5q0 135 182 291h-432v68h153q75 0 105 32t30 125v983q0 87 -34.5 122.5t-100.5 35.5h-153v68h786v-68h-153q-66 0 -101 -35.5t-35 -122.5
v-983q0 -93 30.5 -125t105.5 -32h153v-68z" />
    <glyph glyph-name="iogonek" unicode="&#x12f;" 
d="M209 0v68h123q170 0 170 155v496q0 155 -150 155h-143v68h770v-68h-143q-150 0 -150 -155v-496q0 -155 170 -155h123v-68h-287q-59 -74 -83.5 -126.5t-24.5 -106.5q0 -107 90 -107q76 0 104 68h56q-21 -76 -82 -124t-142 -48q-80 0 -126 40.5t-46 112.5q0 134 183 291
h-412zM457 1264q0 61 38.5 100t98.5 39q59 0 98 -39t39 -100t-39 -99.5t-98 -38.5q-60 0 -98.5 38.5t-38.5 99.5z" />
    <glyph glyph-name="Idotaccent" unicode="&#x130;" 
d="M987 0h-786v68h153q75 0 105 32t30 125v983q0 87 -34.5 122.5t-100.5 35.5h-153v68h786v-68h-153q-66 0 -101 -35.5t-35 -122.5v-983q0 -93 30.5 -125t105.5 -32h153v-68zM457 1683q0 61 38.5 100.5t98.5 39.5q59 0 98 -39.5t39 -100.5t-39 -99t-98 -38q-60 0 -98.5 38
t-38.5 99z" />
    <glyph glyph-name="dotlessi" unicode="&#x131;" 
d="M209 0v68h123q170 0 170 155v496q0 155 -150 155h-143v68h770v-68h-143q-150 0 -150 -155v-496q0 -155 170 -155h123v-68h-770z" />
    <glyph glyph-name="IJ" unicode="&#x132;" 
d="M559 -33q-87 0 -159 19.5t-118.5 49.5t-79 68.5t-46 75t-13.5 70.5q0 54 34.5 82t82.5 28q103 0 119 -129q4 -35 13.5 -61.5t30.5 -55t61 -44t98 -15.5q65 0 109 22t67.5 65.5t33 98t9.5 130.5v878q0 66 -18 91.5t-76 25.5h-52v68h500v-68h-51q-58 0 -76 -25.5t-18 -91.5
v-798q0 -100 -22 -182t-71.5 -152.5t-140.5 -110t-217 -39.5zM33 492v67h51q56 0 75 25t19 92v573q0 66 -18 91.5t-76 25.5h-51v68h499v-68h-51q-58 0 -76 -25.5t-18 -91.5v-573q0 -67 19 -92t75 -25h51v-67h-499z" />
    <glyph glyph-name="ij" unicode="&#x133;" 
d="M63 0v61h41q109 0 109 95v630q0 54 -18.5 74.5t-69.5 20.5h-62v61h484v-61h-62q-51 0 -69.5 -20.5t-18.5 -74.5v-630q0 -95 109 -95h41v-61h-484zM174 1305q0 58 37 95.5t94 37.5q56 0 93.5 -37.5t37.5 -95.5t-37.5 -94.5t-93.5 -36.5q-57 0 -94 36.5t-37 94.5zM553 -559
l39 37q128 122 171.5 232.5t43.5 318.5v757q0 54 -18.5 74.5t-69.5 20.5h-62v61h484v-61h-62q-51 0 -69.5 -20.5t-18.5 -74.5v-757q0 -209 -73 -336.5t-250 -253.5l-72 -51zM768 1305q0 58 37 95.5t94 37.5q56 0 93.5 -37.5t37.5 -95.5t-37.5 -94.5t-93.5 -36.5
q-57 0 -94 36.5t-37 94.5z" />
    <glyph glyph-name="Jcircumflex" unicode="&#x134;" 
d="M498 -33q-94 0 -171 21.5t-125 55t-81 75t-46.5 79.5t-13.5 72q0 55 34.5 87t82.5 32q56 0 85 -41t34 -102q2 -27 6 -48t17.5 -49.5t33.5 -47.5t58 -32.5t88 -13.5q100 0 147 54.5t47 179.5v919q0 87 -34.5 122.5t-100.5 35.5h-174v68h766v-68h-113q-66 0 -100.5 -35.5
t-34.5 -122.5v-860q0 -175 -105.5 -278t-299.5 -103zM506 1526l192 319h203l191 -319h-43l-246 209h-8l-246 -209h-43z" />
    <glyph glyph-name="jcircumflex" unicode="&#x135;" 
d="M268 -612l-39 59l54 37q57 39 96 81t63.5 86.5t37.5 104t17.5 121.5t4.5 152v690q0 155 -150 155h-143v68h770v-68h-143q-150 0 -150 -155v-690q0 -215 -75.5 -349t-256.5 -241zM328 1032l172 445h190l170 -445h-37l-225 314h-8l-225 -314h-37z" />
    <glyph glyph-name="uni0136" unicode="&#x136;" 
d="M649 0v68h76q40 0 47.5 25t-16.5 63l-295 483q-18 28 -31.5 36.5t-42.5 8.5v-500q0 -67 19 -91.5t75 -24.5h33v-68h-481v68h51q56 0 75 24.5t19 91.5v1065q0 66 -18 91.5t-76 25.5h-51v68h502v-68h-54q-58 0 -76 -25.5t-18 -91.5v-450h4q33 0 51.5 11t42.5 42l316 403
q37 47 29 79t-60 32h-70v68h467v-68h-41q-53 0 -93 -23t-81 -77l-362 -457l389 -627q40 -65 71.5 -89.5t82.5 -24.5h26v-68h-510zM442 -592v62q90 12 148.5 64.5t58.5 123.5q0 20 -6 35q-36 -39 -86 -39q-46 0 -77 30.5t-31 77.5q0 54 37.5 87.5t95.5 33.5q69 0 113 -50.5
t44 -133.5q0 -110 -80 -194t-217 -97z" />
    <glyph glyph-name="uni0137" unicode="&#x137;" 
d="M63 0v61h68q51 0 74.5 22t23.5 73v1165q0 54 -18.5 74t-69.5 20h-75v62h524v-62h-88q-51 0 -69.5 -20t-18.5 -74v-762q37 0 57 7.5t49 33.5l223 188q42 35 34 64t-56 29h-117v61h543v-61h-57q-57 0 -106.5 -25t-119.5 -84l-256 -219l387 -424q38 -41 67 -55.5t73 -14.5
h34v-59h-534v59h86q36 0 47.5 22.5t-18.5 59.5l-232 269q-26 31 -39 38t-41 7h-24v-299q0 -51 26 -73t82 -22h39v-61h-498zM455 -592v62q90 12 148.5 64.5t58.5 123.5q0 18 -7 35q-36 -39 -86 -39q-46 0 -77 30.5t-31 77.5q0 54 37.5 87.5t95.5 33.5q69 0 113.5 -50.5
t44.5 -133.5q0 -110 -80 -194t-217 -97z" />
    <glyph glyph-name="Lacute" unicode="&#x139;" 
d="M72 0v68h84q56 0 75 24.5t19 91.5v1065q0 66 -18 91.5t-76 25.5h-84v68h594v-68h-113q-58 0 -76 -25.5t-18 -91.5v-1044q0 -62 24 -84.5t90 -22.5h185q143 0 200.5 43.5t81.5 177.5h68l-21 -319h-1015zM330 1526l55 319h229l-235 -319h-49z" />
    <glyph glyph-name="lacute" unicode="&#x13a;" 
d="M209 0v68h123q170 0 170 155v1030q0 76 -38 116t-112 40h-143v68h770v-68h-143q-74 0 -112 -40t-38 -116v-1030q0 -155 170 -155h123v-68h-770zM569 1569l56 319h229l-236 -319h-49z" />
    <glyph glyph-name="uni013B" unicode="&#x13b;" 
d="M72 0v68h84q56 0 75 24.5t19 91.5v1065q0 66 -18 91.5t-76 25.5h-84v68h594v-68h-113q-58 0 -76 -25.5t-18 -91.5v-1044q0 -62 24 -84.5t90 -22.5h185q143 0 200.5 43.5t81.5 177.5h68l-21 -319h-1015zM471 -592v62q90 12 148.5 64.5t58.5 123.5q0 20 -6 35
q-36 -39 -86 -39q-46 0 -77.5 30.5t-31.5 77.5q0 54 37.5 87.5t95.5 33.5q69 0 113.5 -50.5t44.5 -133.5q0 -110 -80 -194t-217 -97z" />
    <glyph glyph-name="uni013C" unicode="&#x13c;" 
d="M209 0v68h123q170 0 170 155v1030q0 76 -38 116t-112 40h-143v68h770v-68h-143q-74 0 -112 -40t-38 -116v-1030q0 -155 170 -155h123v-68h-770zM455 -592v62q90 12 148.5 64.5t58.5 123.5q0 18 -7 35q-36 -39 -86 -39q-46 0 -77 30.5t-31 77.5q0 54 37.5 87.5t95.5 33.5
q69 0 113.5 -50.5t44.5 -133.5q0 -110 -80 -194t-217 -97z" />
    <glyph glyph-name="Lcaron" unicode="&#x13d;" 
d="M72 0v68h84q56 0 75 24.5t19 91.5v1065q0 66 -18 91.5t-76 25.5h-84v68h594v-68h-113q-58 0 -76 -25.5t-18 -91.5v-1044q0 -62 24 -84.5t90 -22.5h185q143 0 200.5 43.5t81.5 177.5h68l-21 -319h-1015zM834 989v445h190l-154 -445h-36z" />
    <glyph glyph-name="lcaron" unicode="&#x13e;" 
d="M209 0v68h92q170 0 170 155v1030q0 156 -149 156h-113v68h709v-68h-113q-74 0 -112 -40t-38 -116v-1030q0 -155 170 -155h93v-68h-709zM995 1032v445h191l-154 -445h-37z" />
    <glyph glyph-name="Ldot" unicode="&#x13f;" 
d="M72 0v68h84q56 0 75 24.5t19 91.5v1065q0 66 -18 91.5t-76 25.5h-84v68h594v-68h-113q-58 0 -76 -25.5t-18 -91.5v-1044q0 -62 24 -84.5t90 -22.5h185q143 0 200.5 43.5t81.5 177.5h68l-21 -319h-1015zM803 807q0 61 38.5 100t98.5 39q59 0 98 -39t39 -100t-39 -99
t-98 -38q-60 0 -98.5 38t-38.5 99z" />
    <glyph glyph-name="ldot" unicode="&#x140;" 
d="M209 0v68h123q170 0 170 155v1030q0 76 -38 116t-112 40h-143v68h770v-68h-143q-74 0 -112 -40t-38 -116v-1030q0 -155 170 -155h123v-68h-770zM1051 754q0 61 38.5 100t98.5 39q59 0 98 -39t39 -100t-39 -99.5t-98 -38.5q-60 0 -98.5 38.5t-38.5 99.5z" />
    <glyph glyph-name="Lslash" unicode="&#x141;" 
d="M72 0v68h84q56 0 75 24.5t19 91.5v451l-207 -100v118l207 101v495q0 66 -18 91.5t-76 25.5h-84v68h594v-68h-113q-58 0 -76 -25.5t-18 -91.5v-395l260 127v-119l-260 -127v-530q0 -62 24 -84.5t90 -22.5h185q143 0 200.5 43.5t81.5 177.5h68l-21 -319h-1015z" />
    <glyph glyph-name="lslash" unicode="&#x142;" 
d="M209 0v68h123q170 0 170 155v416l-185 -90v119l185 90v495q0 76 -38 116t-112 40h-143v68h770v-68h-143q-74 0 -112 -40t-38 -116v-405l184 90v-119l-184 -90v-506q0 -155 170 -155h123v-68h-770z" />
    <glyph glyph-name="Nacute" unicode="&#x143;" 
d="M41 0v68h22q78 0 108 29.5t30 121.5v1090q-21 32 -41 40.5t-66 8.5h-53v76h403l396 -1108h18v868q0 101 -34.5 136.5t-98.5 35.5h-63v68h485v-68h-23q-78 0 -107.5 -30t-29.5 -122v-1214h-215l-424 1182h-18v-942q0 -101 34.5 -136.5t98.5 -35.5h63v-68h-485zM569 1526
l56 319h229l-236 -319h-49z" />
    <glyph glyph-name="nacute" unicode="&#x144;" 
d="M49 0v61h68q51 0 74.5 22t23.5 73v622q0 58 -24 80.5t-82 22.5h-52v61h326l14 -156h4q44 77 127 124.5t181 47.5q129 0 212 -79t83 -199v-524q0 -52 23.5 -73.5t80.5 -21.5h47v-61h-496v61h52q55 0 81.5 22t26.5 73v465q0 106 -53 156t-137 50q-91 0 -160.5 -67.5
t-69.5 -181.5v-422q0 -51 26.5 -73t82.5 -22h51v-61h-510zM582 1032l20 445h191l-175 -445h-36z" />
    <glyph glyph-name="uni0145" unicode="&#x145;" 
d="M41 0v68h22q78 0 108 29.5t30 121.5v1090q-21 32 -41 40.5t-66 8.5h-53v76h403l396 -1108h18v868q0 101 -34.5 136.5t-98.5 35.5h-63v68h485v-68h-23q-78 0 -107.5 -30t-29.5 -122v-1214h-215l-424 1182h-18v-942q0 -101 34.5 -136.5t98.5 -35.5h63v-68h-485zM446 -592
v62q90 12 148.5 64.5t58.5 123.5q0 20 -6 35q-36 -39 -86 -39q-46 0 -77 30.5t-31 77.5q0 54 37.5 87.5t95.5 33.5q69 0 113 -50.5t44 -133.5q0 -110 -80 -194t-217 -97z" />
    <glyph glyph-name="uni0146" unicode="&#x146;" 
d="M49 0v61h68q51 0 74.5 22t23.5 73v622q0 58 -24 80.5t-82 22.5h-52v61h326l14 -156h4q44 77 127 124.5t181 47.5q129 0 212 -79t83 -199v-524q0 -52 23.5 -73.5t80.5 -21.5h47v-61h-496v61h52q55 0 81.5 22t26.5 73v465q0 106 -53 156t-137 50q-91 0 -160.5 -67.5
t-69.5 -181.5v-422q0 -51 26.5 -73t82.5 -22h51v-61h-510zM426 -592v62q90 12 148.5 64.5t58.5 123.5q0 20 -6 35q-36 -39 -86 -39q-46 0 -77.5 30.5t-31.5 77.5q0 54 37.5 87.5t95.5 33.5q69 0 113.5 -50.5t44.5 -133.5q0 -110 -80 -194t-217 -97z" />
    <glyph glyph-name="Ncaron" unicode="&#x147;" 
d="M41 0v68h22q78 0 108 29.5t30 121.5v1090q-21 32 -41 40.5t-66 8.5h-53v76h403l396 -1108h18v868q0 101 -34.5 136.5t-98.5 35.5h-63v68h485v-68h-23q-78 0 -107.5 -30t-29.5 -122v-1214h-215l-424 1182h-18v-942q0 -101 34.5 -136.5t98.5 -35.5h63v-68h-485zM301 1866
h43l246 -209h8l246 209h43l-191 -320h-202z" />
    <glyph glyph-name="ncaron" unicode="&#x148;" 
d="M49 0v61h68q51 0 74.5 22t23.5 73v622q0 58 -24 80.5t-82 22.5h-52v61h326l14 -156h4q44 77 127 124.5t181 47.5q129 0 212 -79t83 -199v-524q0 -52 23.5 -73.5t80.5 -21.5h47v-61h-496v61h52q55 0 81.5 22t26.5 73v465q0 106 -53 156t-137 50q-91 0 -160.5 -67.5
t-69.5 -181.5v-422q0 -51 26.5 -73t82.5 -22h51v-61h-510zM334 1507h37l225 -313h8l225 313h37l-170 -444h-190z" />
    <glyph glyph-name="Eng" unicode="&#x14a;" 
d="M668 -516q-152 0 -241 75t-89 167q0 54 34.5 82t82.5 28q102 0 118 -129q8 -64 37 -99.5t90 -35.5q56 0 81.5 35.5t25.5 116.5v282l-459 1176h-18v-942q0 -101 34.5 -136.5t98.5 -35.5h63v-68h-485v68h22q78 0 108 29.5t30 121.5v1090q-21 32 -41 40.5t-66 8.5h-53v76
h403l396 -1016h18v776q0 101 -34.5 136.5t-98.5 35.5h-63v68h485v-68h-23q-78 0 -107.5 -30t-29.5 -122v-1411q0 -67 -15.5 -121.5t-50.5 -100.5t-99 -71.5t-154 -25.5z" />
    <glyph glyph-name="eng" unicode="&#x14b;" 
d="M586 -612l-39 59l53 37q57 39 96 81t63.5 86.5t37.5 104t17.5 121.5t4.5 152v592q0 106 -53 156t-137 50q-91 0 -160.5 -67.5t-69.5 -181.5v-422q0 -51 26.5 -73t82.5 -22h51v-61h-510v61h68q51 0 74.5 22t23.5 73v622q0 58 -24 80.5t-82 22.5h-52v61h326l14 -156h4
q44 77 127 124.5t181 47.5q129 0 212 -79t83 -199v-651q0 -215 -75.5 -349t-256.5 -241z" />
    <glyph glyph-name="Omacron" unicode="&#x14c;" 
d="M582 -33q-102 0 -191 49t-155 139t-104 228t-38 307q0 350 145 562t367 212q102 0 191 -49t155 -139t104 -228t38 -307q0 -350 -145 -562t-367 -212zM295 1577v111h620v-111h-620zM311 709q0 -631 281 -631q138 0 211.5 161t73.5 484q0 315 -71.5 473t-207.5 158
q-139 0 -213 -161t-74 -484z" />
    <glyph glyph-name="omacron" unicode="&#x14d;" 
d="M582 -33q-95 0 -182 35.5t-153 97.5t-105.5 153.5t-39.5 197.5q0 141 71 258.5t186.5 183t246.5 65.5q127 0 236 -59.5t176 -171.5t67 -252q0 -141 -70.5 -258.5t-186 -183.5t-246.5 -66zM305 1188v110h621v-110h-621zM311 469q0 -198 73 -308t206 -110
q134 0 210.5 109.5t76.5 296.5q0 200 -73 308.5t-206 108.5q-134 0 -210.5 -109t-76.5 -296z" />
    <glyph glyph-name="Obreve" unicode="&#x14e;" 
d="M582 -33q-102 0 -191 49t-155 139t-104 228t-38 307q0 350 145 562t367 212q102 0 191 -49t155 -139t104 -228t38 -307q0 -350 -145 -562t-367 -212zM311 709q0 -631 281 -631q138 0 211.5 161t73.5 484q0 315 -71.5 473t-207.5 158q-139 0 -213 -161t-74 -484zM313 1845
h49q15 -71 81.5 -111t162.5 -40t162.5 40t81.5 111h49q-7 -59 -26 -108.5t-52.5 -92.5t-88.5 -67.5t-126 -24.5t-126 24.5t-88.5 67.5t-52.5 92.5t-26 108.5z" />
    <glyph glyph-name="obreve" unicode="&#x14f;" 
d="M582 -33q-95 0 -182 35.5t-153 97.5t-105.5 153.5t-39.5 197.5q0 141 71 258.5t186.5 183t246.5 65.5q127 0 236 -59.5t176 -171.5t67 -252q0 -141 -70.5 -258.5t-186 -183.5t-246.5 -66zM311 469q0 -198 73 -308t206 -110q134 0 210.5 109.5t76.5 296.5q0 200 -73 308.5
t-206 108.5q-134 0 -210.5 -109t-76.5 -296zM340 1407h41q8 -101 73.5 -150t161.5 -49t162 49t74 150h41q0 -67 -16.5 -126.5t-48.5 -108t-86.5 -77t-125.5 -28.5t-125 28.5t-86.5 77t-48.5 108t-16 126.5z" />
    <glyph glyph-name="Ohungarumlaut" unicode="&#x150;" 
d="M582 -33q-102 0 -191 49t-155 139t-104 228t-38 307q0 350 145 562t367 212q102 0 191 -49t155 -139t104 -228t38 -307q0 -350 -145 -562t-367 -212zM311 709q0 -631 281 -631q138 0 211.5 161t73.5 484q0 315 -71.5 473t-207.5 158q-139 0 -213 -161t-74 -484zM428 1526
l57 319h207l-215 -319h-49zM735 1526l78 319h207l-236 -319h-49z" />
    <glyph glyph-name="ohungarumlaut" unicode="&#x151;" 
d="M582 -33q-95 0 -182 35.5t-153 97.5t-105.5 153.5t-39.5 197.5q0 141 71 258.5t186.5 183t246.5 65.5q127 0 236 -59.5t176 -171.5t67 -252q0 -141 -70.5 -258.5t-186 -183.5t-246.5 -66zM311 469q0 -198 73 -308t206 -110q134 0 210.5 109.5t76.5 296.5q0 200 -73 308.5
t-206 108.5q-134 0 -210.5 -109t-76.5 -296zM483 1032v445h191l-154 -445h-37zM713 1032l71 445h191l-225 -445h-37z" />
    <glyph glyph-name="OE" unicode="&#x152;" 
d="M440 -33q-178 0 -279.5 185.5t-101.5 539.5q0 366 108.5 569t295.5 203q31 0 107 -15t126 -15h383l11 -320h-68q-15 122 -51.5 171.5t-104.5 49.5h-59q-52 0 -73 -22t-21 -80v-442h110q58 0 85 38.5t36 139.5h68v-457h-68q-9 102 -36 141t-85 39h-110v-487
q0 -61 22.5 -84t79.5 -23h64q65 0 107 47t65 174h67l-20 -319h-389q-55 0 -146.5 -16.5t-122.5 -16.5zM254 709q0 -344 50 -498t163 -154q27 0 61 17v1286q-25 14 -57 14q-113 0 -165 -157t-52 -508z" />
    <glyph glyph-name="oe" unicode="&#x153;" 
d="M389 -33q-138 0 -227.5 133t-89.5 349q0 220 94.5 364.5t243.5 144.5q144 0 231 -145q87 145 242 145q132 0 202.5 -107t61.5 -300h-426v-33q0 -195 50.5 -306.5t141.5 -111.5q61 0 111 48.5t66 142.5h57q-13 -145 -83.5 -230.5t-197.5 -85.5q-159 0 -237 138
q-94 -146 -240 -146zM252 461q0 -410 149 -410q148 0 148 416q0 407 -146 407q-72 0 -111.5 -104t-39.5 -309zM727 637h188q37 0 49.5 12t12.5 49q0 70 -31.5 123t-81.5 53q-49 0 -86.5 -58t-50.5 -179z" />
    <glyph glyph-name="Racute" unicode="&#x154;" 
d="M1026 0q-112 0 -160.5 34t-77.5 138l-100 358q-12 42 -30.5 72t-39 47.5t-50.5 27t-57.5 12.5t-66.5 3h-55v-508q0 -68 22.5 -92t92.5 -24h71v-68h-542v68h53q56 0 75 24.5t19 91.5v1065q0 66 -18 91.5t-76 25.5h-53v68h485q236 0 376 -96.5t140 -256.5
q0 -127 -91.5 -213.5t-270.5 -115.5v-17q74 -9 135.5 -66t95.5 -157l107 -319q26 -78 45.5 -101.5t68.5 -23.5h43v-68h-141zM389 797h76q170 0 261 69.5t91 208.5q0 273 -377 273h-51v-551zM494 1526l55 319h229l-235 -319h-49z" />
    <glyph glyph-name="racute" unicode="&#x155;" 
d="M135 0v61h58q79 0 114 32t35 104v581q0 58 -24 80.5t-82 22.5h-93v61h367l16 -209h6q50 104 142 164.5t207 60.5q92 0 148 -44.5t56 -108.5q0 -49 -30 -77t-76 -28q-25 0 -45.5 9t-32.5 23t-25.5 29.5t-25.5 29.5t-32.5 23t-45.5 9q-38 0 -80 -24t-79.5 -66t-62 -109.5
t-24.5 -144.5v-282q0 -72 35.5 -104t114.5 -32h147v-61h-688zM596 1032l20 445h191l-174 -445h-37z" />
    <glyph glyph-name="uni0156" unicode="&#x156;" 
d="M1026 0q-112 0 -160.5 34t-77.5 138l-100 358q-12 42 -30.5 72t-39 47.5t-50.5 27t-57.5 12.5t-66.5 3h-55v-508q0 -68 22.5 -92t92.5 -24h71v-68h-542v68h53q56 0 75 24.5t19 91.5v1065q0 66 -18 91.5t-76 25.5h-53v68h485q236 0 376 -96.5t140 -256.5
q0 -127 -91.5 -213.5t-270.5 -115.5v-17q74 -9 135.5 -66t95.5 -157l107 -319q26 -78 45.5 -101.5t68.5 -23.5h43v-68h-141zM389 797h76q170 0 261 69.5t91 208.5q0 273 -377 273h-51v-551zM496 -592v62q90 12 148 64.5t58 123.5q0 20 -6 35q-36 -39 -86 -39q-46 0 -77 30.5
t-31 77.5q0 54 37.5 87.5t95.5 33.5q69 0 113.5 -50.5t44.5 -133.5q0 -110 -80 -194t-217 -97z" />
    <glyph glyph-name="uni0157" unicode="&#x157;" 
d="M135 0v61h58q79 0 114 32t35 104v581q0 58 -24 80.5t-82 22.5h-93v61h367l16 -209h6q50 104 142 164.5t207 60.5q92 0 148 -44.5t56 -108.5q0 -49 -30 -77t-76 -28q-25 0 -45.5 9t-32.5 23t-25.5 29.5t-25.5 29.5t-32.5 23t-45.5 9q-38 0 -80 -24t-79.5 -66t-62 -109.5
t-24.5 -144.5v-282q0 -72 35.5 -104t114.5 -32h147v-61h-688zM295 -592v62q90 12 148.5 64.5t58.5 123.5q0 20 -6 35q-36 -39 -86 -39q-46 0 -77.5 30.5t-31.5 77.5q0 54 37.5 87.5t95.5 33.5q69 0 113.5 -50.5t44.5 -133.5q0 -110 -80 -194t-217 -97z" />
    <glyph glyph-name="Rcaron" unicode="&#x158;" 
d="M1026 0q-112 0 -160.5 34t-77.5 138l-100 358q-12 42 -30.5 72t-39 47.5t-50.5 27t-57.5 12.5t-66.5 3h-55v-508q0 -68 22.5 -92t92.5 -24h71v-68h-542v68h53q56 0 75 24.5t19 91.5v1065q0 66 -18 91.5t-76 25.5h-53v68h485q236 0 376 -96.5t140 -256.5
q0 -127 -91.5 -213.5t-270.5 -115.5v-17q74 -9 135.5 -66t95.5 -157l107 -319q26 -78 45.5 -101.5t68.5 -23.5h43v-68h-141zM225 1866h43l246 -209h8l246 209h43l-190 -320h-203zM389 797h76q170 0 261 69.5t91 208.5q0 273 -377 273h-51v-551z" />
    <glyph glyph-name="rcaron" unicode="&#x159;" 
d="M135 0v61h58q79 0 114 32t35 104v581q0 58 -24 80.5t-82 22.5h-93v61h367l16 -209h6q50 104 142 164.5t207 60.5q92 0 148 -44.5t56 -108.5q0 -49 -30 -77t-76 -28q-25 0 -45.5 9t-32.5 23t-25.5 29.5t-25.5 29.5t-32.5 23t-45.5 9q-38 0 -80 -24t-79.5 -66t-62 -109.5
t-24.5 -144.5v-282q0 -72 35.5 -104t114.5 -32h147v-61h-688zM348 1507h37l225 -313h8l226 313h37l-170 -444h-191z" />
    <glyph glyph-name="Sacute" unicode="&#x15a;" 
d="M551 -31q-115 0 -220.5 36.5t-168.5 82.5v281h57q90 -291 342 -291q126 0 209.5 73t83.5 197q0 87 -45.5 148.5t-149.5 99.5l-202 76q-127 47 -203 148t-76 233q0 173 126 292t319 119q93 0 176.5 -25.5t140.5 -68.5v-258h-57q-30 122 -106.5 183t-180.5 61
q-109 0 -178.5 -63.5t-69.5 -170.5q0 -180 207 -256l207 -75q121 -44 191.5 -140.5t70.5 -232.5q0 -120 -55.5 -221.5t-165 -164.5t-252.5 -63zM598 1526l55 319h230l-236 -319h-49z" />
    <glyph glyph-name="sacute" unicode="&#x15b;" 
d="M573 -31q-103 0 -199 30t-149 71v243h66q4 -70 29.5 -121.5t67 -80t90.5 -41.5t106 -13q109 0 172 42.5t63 119.5q0 119 -141 156l-209 51q-119 29 -178.5 93t-59.5 155q0 129 109 206.5t295 77.5q159 0 293 -61v-233h-66q0 55 -22 96.5t-60 64.5t-82.5 34t-95.5 11
q-96 0 -152.5 -38.5t-56.5 -112.5q0 -50 32.5 -83t113.5 -52l211 -49q109 -26 167 -93t58 -168q0 -139 -106.5 -222t-295.5 -83zM608 1032l21 445h190l-174 -445h-37z" />
    <glyph glyph-name="Scircumflex" unicode="&#x15c;" 
d="M551 -31q-115 0 -220.5 36.5t-168.5 82.5v281h57q90 -291 342 -291q126 0 209.5 73t83.5 197q0 87 -45.5 148.5t-149.5 99.5l-202 76q-127 47 -203 148t-76 233q0 173 126 292t319 119q93 0 176.5 -25.5t140.5 -68.5v-258h-57q-30 122 -106.5 183t-180.5 61
q-109 0 -178.5 -63.5t-69.5 -170.5q0 -180 207 -256l207 -75q121 -44 191.5 -140.5t70.5 -232.5q0 -120 -55.5 -221.5t-165 -164.5t-252.5 -63zM330 1526l192 319h203l190 -319h-43l-245 209h-9l-245 -209h-43z" />
    <glyph glyph-name="scircumflex" unicode="&#x15d;" 
d="M573 -31q-103 0 -199 30t-149 71v243h66q4 -70 29.5 -121.5t67 -80t90.5 -41.5t106 -13q109 0 172 42.5t63 119.5q0 119 -141 156l-209 51q-119 29 -178.5 93t-59.5 155q0 129 109 206.5t295 77.5q159 0 293 -61v-233h-66q0 55 -22 96.5t-60 64.5t-82.5 34t-95.5 11
q-96 0 -152.5 -38.5t-56.5 -112.5q0 -50 32.5 -83t113.5 -52l211 -49q109 -26 167 -93t58 -168q0 -139 -106.5 -222t-295.5 -83zM360 1032l172 445h191l170 -445h-37l-225 314h-8l-226 -314h-37z" />
    <glyph glyph-name="Scedilla" unicode="&#x15e;" 
d="M453 -244v43l73 170q-108 4 -207 40t-157 79v281h57q90 -291 342 -291q126 0 209.5 73t83.5 197q0 87 -45.5 148.5t-149.5 99.5l-202 76q-127 47 -203 148t-76 233q0 173 126 292t319 119q93 0 176.5 -25.5t140.5 -68.5v-258h-57q-30 122 -106.5 183t-180.5 61
q-109 0 -178.5 -63.5t-69.5 -170.5q0 -180 207 -256l207 -75q121 -44 191.5 -140.5t70.5 -232.5q0 -114 -50.5 -211.5t-150 -162t-229.5 -73.5l-33 -82q75 -3 119.5 -41.5t44.5 -99.5q0 -100 -112.5 -160t-284.5 -45v62q108 -6 172.5 17.5t64.5 70.5q0 60 -112 63z" />
    <glyph glyph-name="scedilla" unicode="&#x15f;" 
d="M457 -244v43l73 172q-93 6 -175.5 34t-129.5 65v243h66q4 -70 29.5 -121.5t67 -80t90.5 -41.5t106 -13q109 0 172 42.5t63 119.5q0 119 -141 156l-209 51q-119 29 -178.5 93t-59.5 155q0 129 109 206.5t295 77.5q159 0 293 -61v-233h-66q0 55 -22 96.5t-60 64.5t-82.5 34
t-95.5 11q-96 0 -152.5 -38.5t-56.5 -112.5q0 -50 32.5 -83t113.5 -52l211 -49q109 -26 167 -93t58 -168q0 -134 -100 -216.5t-279 -88.5l-31 -80q75 -3 119.5 -41.5t44.5 -99.5q0 -100 -112.5 -160t-284.5 -45v62q108 -6 172.5 17.5t64.5 70.5q0 60 -112 63z" />
    <glyph glyph-name="Scaron" unicode="&#x160;" 
d="M551 -31q-115 0 -220.5 36.5t-168.5 82.5v281h57q90 -291 342 -291q126 0 209.5 73t83.5 197q0 87 -45.5 148.5t-149.5 99.5l-202 76q-127 47 -203 148t-76 233q0 173 126 292t319 119q93 0 176.5 -25.5t140.5 -68.5v-258h-57q-30 122 -106.5 183t-180.5 61
q-109 0 -178.5 -63.5t-69.5 -170.5q0 -180 207 -256l207 -75q121 -44 191.5 -140.5t70.5 -232.5q0 -120 -55.5 -221.5t-165 -164.5t-252.5 -63zM330 1866h43l245 -209h9l245 209h43l-190 -320h-203z" />
    <glyph glyph-name="scaron" unicode="&#x161;" 
d="M573 -31q-103 0 -199 30t-149 71v243h66q4 -70 29.5 -121.5t67 -80t90.5 -41.5t106 -13q109 0 172 42.5t63 119.5q0 119 -141 156l-209 51q-119 29 -178.5 93t-59.5 155q0 129 109 206.5t295 77.5q159 0 293 -61v-233h-66q0 55 -22 96.5t-60 64.5t-82.5 34t-95.5 11
q-96 0 -152.5 -38.5t-56.5 -112.5q0 -50 32.5 -83t113.5 -52l211 -49q109 -26 167 -93t58 -168q0 -139 -106.5 -222t-295.5 -83zM360 1507h37l226 -313h8l225 313h37l-170 -444h-191z" />
    <glyph glyph-name="uni0162" unicode="&#x162;" 
d="M283 0v68h92q70 0 92 24t22 92v1141h-83q-143 0 -202 -46.5t-65 -164.5h-67v320h1044v-320h-67q-6 118 -65 164.5t-202 46.5h-84v-1141q0 -68 22.5 -92t92.5 -24h92v-68h-278l-43 -111q75 -3 119.5 -41.5t44.5 -99.5q0 -100 -113 -160t-285 -45v62q108 -6 173 17.5
t65 70.5q0 60 -113 63v43l86 201h-278z" />
    <glyph glyph-name="uni0163" unicode="&#x163;" 
d="M707 -33h-33l-31 -78q75 -3 119.5 -41.5t44.5 -99.5q0 -100 -112.5 -160t-284.5 -45v62q108 -6 172.5 17.5t64.5 70.5q0 60 -112 63v43l75 176q-110 21 -172.5 93.5t-62.5 197.5v574h-289v80h121q104 0 142 36.5t38 120.5v103h172v-238h463v-102h-463v-533
q0 -209 209 -209q92 0 158 44.5t88 138.5h55q-10 -150 -106.5 -232t-255.5 -82z" />
    <glyph glyph-name="Tcaron" unicode="&#x164;" 
d="M283 0v68h92q70 0 92 24t22 92v1141h-83q-143 0 -202 -46.5t-65 -164.5h-67v320h1044v-320h-67q-6 118 -65 164.5t-202 46.5h-84v-1141q0 -68 22.5 -92t92.5 -24h92v-68h-622zM301 1866h43l246 -209h8l246 209h43l-191 -320h-202z" />
    <glyph glyph-name="tcaron" unicode="&#x165;" 
d="M707 -33q-150 0 -241 74t-91 225v574h-289v80h121q104 0 142 36.5t38 120.5v103h172v-238h463v-102h-463v-533q0 -209 209 -209q92 0 158 44.5t88 138.5h55q-10 -150 -106.5 -232t-255.5 -82zM754 1032v445h190l-153 -445h-37z" />
    <glyph glyph-name="Tbar" unicode="&#x166;" 
d="M283 0v68h92q70 0 92 24t22 92v482h-241v102h241v557h-83q-143 0 -202 -46.5t-65 -164.5h-67v320h1044v-320h-67q-6 118 -65 164.5t-202 46.5h-84v-557h244v-102h-244v-482q0 -68 22.5 -92t92.5 -24h92v-68h-622z" />
    <glyph glyph-name="tbar" unicode="&#x167;" 
d="M707 -33q-150 0 -241 74t-91 225v256h-228v103h228v215h-289v80h121q104 0 142 36.5t38 120.5v103h172v-238h463v-102h-463v-215h371v-103h-371v-215q0 -209 209 -209q92 0 158 44.5t88 138.5h55q-10 -150 -106.5 -232t-255.5 -82z" />
    <glyph glyph-name="Utilde" unicode="&#x168;" 
d="M578 -33q-75 0 -144 21.5t-130.5 66.5t-98.5 126t-37 188v880q0 65 -18.5 91t-77.5 26h-31v68h502v-68h-72q-58 0 -76 -25.5t-18 -91.5v-811q0 -307 252 -307q117 0 173 70t56 215v778q0 101 -34.5 136.5t-98.5 35.5h-63v68h485v-68h-23q-78 0 -107.5 -30t-29.5 -122
v-806q0 -214 -109 -327.5t-300 -113.5zM281 1565q18 94 71.5 155.5t132.5 61.5q46 0 97 -25t97.5 -49.5t80.5 -24.5q37 0 67 26t45 73h52q-18 -94 -72 -155.5t-133 -61.5q-46 0 -97 24.5t-97.5 49t-80.5 24.5q-37 0 -67 -25.5t-45 -72.5h-51z" />
    <glyph glyph-name="utilde" unicode="&#x169;" 
d="M483 -33q-133 0 -205.5 76.5t-72.5 206.5v536q0 95 -109 95h-47v61h340v-659q0 -92 47 -138.5t117 -46.5q41 0 82.5 15.5t79 45.5t61 80.5t23.5 112.5v434q0 95 -109 95h-47v61h340v-786q0 -51 25 -73t79 -22h60v-61h-344v150h-4q-41 -80 -123.5 -131.5t-192.5 -51.5z
M244 1130q18 94 72 156t133 62q46 0 97 -25t97 -49.5t80 -24.5q37 0 67.5 26t45.5 73h51q-18 -94 -72 -156t-133 -62q-46 0 -97 25t-97 49.5t-80 24.5q-37 0 -67.5 -26t-45.5 -73h-51z" />
    <glyph glyph-name="Umacron" unicode="&#x16a;" 
d="M578 -33q-75 0 -144 21.5t-130.5 66.5t-98.5 126t-37 188v880q0 65 -18.5 91t-77.5 26h-31v68h502v-68h-72q-58 0 -76 -25.5t-18 -91.5v-811q0 -307 252 -307q117 0 173 70t56 215v778q0 101 -34.5 136.5t-98.5 35.5h-63v68h485v-68h-23q-78 0 -107.5 -30t-29.5 -122
v-806q0 -214 -109 -327.5t-300 -113.5zM291 1577v111h620v-111h-620z" />
    <glyph glyph-name="umacron" unicode="&#x16b;" 
d="M483 -33q-133 0 -205.5 76.5t-72.5 206.5v536q0 95 -109 95h-47v61h340v-659q0 -92 47 -138.5t117 -46.5q41 0 82.5 15.5t79 45.5t61 80.5t23.5 112.5v434q0 95 -109 95h-47v61h340v-786q0 -51 25 -73t79 -22h60v-61h-344v150h-4q-41 -80 -123.5 -131.5t-192.5 -51.5z
M254 1188v110h620v-110h-620z" />
    <glyph glyph-name="Ubreve" unicode="&#x16c;" 
d="M578 -33q-75 0 -144 21.5t-130.5 66.5t-98.5 126t-37 188v880q0 65 -18.5 91t-77.5 26h-31v68h502v-68h-72q-58 0 -76 -25.5t-18 -91.5v-811q0 -307 252 -307q117 0 173 70t56 215v778q0 101 -34.5 136.5t-98.5 35.5h-63v68h485v-68h-23q-78 0 -107.5 -30t-29.5 -122
v-806q0 -214 -109 -327.5t-300 -113.5zM309 1845h49q15 -71 81.5 -111t162.5 -40t162.5 40t81.5 111h49q-7 -59 -26 -108.5t-52.5 -92.5t-88.5 -67.5t-126 -24.5t-126 24.5t-88.5 67.5t-52.5 92.5t-26 108.5z" />
    <glyph glyph-name="ubreve" unicode="&#x16d;" 
d="M483 -33q-133 0 -205.5 76.5t-72.5 206.5v536q0 95 -109 95h-47v61h340v-659q0 -92 47 -138.5t117 -46.5q41 0 82.5 15.5t79 45.5t61 80.5t23.5 112.5v434q0 95 -109 95h-47v61h340v-786q0 -51 25 -73t79 -22h60v-61h-344v150h-4q-41 -80 -123.5 -131.5t-192.5 -51.5z
M289 1407h41q8 -101 73.5 -150t161.5 -49t162 49t74 150h41q0 -67 -16.5 -126.5t-48.5 -108t-86.5 -77t-125.5 -28.5t-125 28.5t-86.5 77t-48.5 108t-16 126.5z" />
    <glyph glyph-name="Uring" unicode="&#x16e;" 
d="M578 -33q-75 0 -144 21.5t-130.5 66.5t-98.5 126t-37 188v880q0 65 -18.5 91t-77.5 26h-31v68h502v-68h-72q-58 0 -76 -25.5t-18 -91.5v-811q0 -307 252 -307q117 0 173 70t56 215v778q0 101 -34.5 136.5t-98.5 35.5h-63v68h485v-68h-23q-78 0 -107.5 -30t-29.5 -122
v-806q0 -214 -109 -327.5t-300 -113.5zM403 1673q0 87 57 145t142 58t142 -58t57 -145q0 -85 -57 -141.5t-142 -56.5t-142 56.5t-57 141.5zM485 1673q0 -49 33.5 -83t83.5 -34t83.5 34t33.5 83q0 52 -33.5 86.5t-83.5 34.5t-83.5 -34.5t-33.5 -86.5z" />
    <glyph glyph-name="uring" unicode="&#x16f;" 
d="M483 -33q-133 0 -205.5 76.5t-72.5 206.5v536q0 95 -109 95h-47v61h340v-659q0 -92 47 -138.5t117 -46.5q41 0 82.5 15.5t79 45.5t61 80.5t23.5 112.5v434q0 95 -109 95h-47v61h340v-786q0 -51 25 -73t79 -22h60v-61h-344v150h-4q-41 -80 -123.5 -131.5t-192.5 -51.5z
M367 1309q0 87 56.5 144.5t141.5 57.5t142 -57.5t57 -144.5q0 -85 -57 -142t-142 -57t-141.5 57t-56.5 142zM449 1309q0 -50 33.5 -83.5t82.5 -33.5t83 34t34 83q0 52 -33.5 86.5t-83.5 34.5t-83 -34.5t-33 -86.5z" />
    <glyph glyph-name="Uhungarumlaut" unicode="&#x170;" 
d="M578 -33q-75 0 -144 21.5t-130.5 66.5t-98.5 126t-37 188v880q0 65 -18.5 91t-77.5 26h-31v68h502v-68h-72q-58 0 -76 -25.5t-18 -91.5v-811q0 -307 252 -307q117 0 173 70t56 215v778q0 101 -34.5 136.5t-98.5 35.5h-63v68h485v-68h-23q-78 0 -107.5 -30t-29.5 -122
v-806q0 -214 -109 -327.5t-300 -113.5zM424 1526l57 319h207l-215 -319h-49zM731 1526l78 319h207l-236 -319h-49z" />
    <glyph glyph-name="uhungarumlaut" unicode="&#x171;" 
d="M483 -33q-133 0 -205.5 76.5t-72.5 206.5v536q0 95 -109 95h-47v61h340v-659q0 -92 47 -138.5t117 -46.5q41 0 82.5 15.5t79 45.5t61 80.5t23.5 112.5v434q0 95 -109 95h-47v61h340v-786q0 -51 25 -73t79 -22h60v-61h-344v150h-4q-41 -80 -123.5 -131.5t-192.5 -51.5z
M432 1032v445h191l-154 -445h-37zM662 1032l71 445h191l-226 -445h-36z" />
    <glyph glyph-name="Uogonek" unicode="&#x172;" 
d="M578 -33q-75 0 -144 21.5t-130.5 66.5t-98.5 126t-37 188v880q0 65 -18.5 91t-77.5 26h-31v68h502v-68h-72q-58 0 -76 -25.5t-18 -91.5v-811q0 -307 252 -307q117 0 173 70t56 215v778q0 101 -34.5 136.5t-98.5 35.5h-63v68h485v-68h-23q-78 0 -107.5 -30t-29.5 -122
v-806q0 -140 -48.5 -239t-137.5 -149q-69 -85 -97 -141t-28 -112q0 -107 90 -107q76 0 104 68h56q-21 -76 -82 -124t-142 -48q-80 0 -126 40.5t-46 112.5q0 129 158 268q-58 -10 -110 -10z" />
    <glyph glyph-name="uogonek" unicode="&#x173;" 
d="M483 -33q-133 0 -205.5 76.5t-72.5 206.5v536q0 95 -109 95h-47v61h340v-659q0 -92 47 -138.5t117 -46.5q41 0 82.5 15.5t79 45.5t61 80.5t23.5 112.5v434q0 95 -109 95h-47v61h340v-786q0 -51 25 -73t79 -22h60v-61h-98q-59 -74 -84 -127t-25 -106q0 -107 90 -107
q77 0 105 68h55q-21 -76 -81.5 -124t-141.5 -48q-80 0 -126 40.5t-46 112.5q0 135 182 291h-174v150h-4q-41 -80 -123.5 -131.5t-192.5 -51.5z" />
    <glyph glyph-name="Wcircumflex" unicode="&#x174;" 
d="M131 1260q-8 64 -21.5 85t-48.5 21h-34v68h426v-68h-80q-53 0 -71.5 -22t-12.5 -84l108 -992h25l127 967h149l107 -967h29l118 955q10 80 -8 111.5t-65 31.5h-88v68h370v-68h-18q-42 0 -58 -32.5t-26 -116.5l-154 -1217h-190l-103 940h-22l-119 -940h-190zM330 1526
l192 319h203l190 -319h-43l-245 209h-9l-245 -209h-43z" />
    <glyph glyph-name="wcircumflex" unicode="&#x175;" 
d="M123 809q-7 41 -26 56.5t-52 15.5h-22v61h403v-61h-94q-35 0 -44.5 -24t1.5 -71l108 -608h11l149 651h133l146 -651h12l115 608q9 50 -4.5 72.5t-61.5 22.5h-80v61h348v-61h-26q-60 0 -78 -93l-154 -796h-168l-141 631h-8l-141 -631h-168zM358 1032l172 445h191l170 -445
h-37l-225 314h-8l-226 -314h-37z" />
    <glyph glyph-name="Ycircumflex" unicode="&#x176;" 
d="M207 1257q-35 69 -61 89t-68 20h-51v68h546v-68h-88q-111 0 -57 -109l207 -413h18l187 387q32 63 14.5 99t-86.5 36h-57v68h450v-68h-47q-46 0 -77 -27.5t-66 -99.5l-271 -549v-506q0 -68 22.5 -92t92.5 -24h92v-68h-622v68h92q70 0 92.5 24t22.5 92v510zM352 1526
l193 319h203l190 -319h-43l-246 209h-8l-246 -209h-43z" />
    <glyph glyph-name="ycircumflex" unicode="&#x177;" 
d="M285 -557q-106 0 -171 64.5t-65 138.5q0 46 29 77t74 31q52 0 75.5 -39t12.5 -86q-9 -40 10.5 -67t54.5 -27q39 0 67 33.5t54 93.5l139 322l-379 825q-20 43 -42 57.5t-66 14.5h-55v61h526v-61h-105q-42 0 -55 -26t8 -69l256 -573h9l243 573q20 43 6.5 69t-59.5 26h-113
v61h426v-61h-37q-42 0 -67.5 -22.5t-46.5 -72.5l-496 -1157q-37 -89 -90 -137.5t-143 -48.5zM379 1032l172 445h190l170 -445h-37l-225 314h-8l-225 -314h-37z" />
    <glyph glyph-name="Ydieresis" unicode="&#x178;" 
d="M207 1257q-35 69 -61 89t-68 20h-51v68h546v-68h-88q-111 0 -57 -109l207 -413h18l187 387q32 63 14.5 99t-86.5 36h-57v68h450v-68h-47q-46 0 -77 -27.5t-66 -99.5l-271 -549v-506q0 -68 22.5 -92t92.5 -24h92v-68h-622v68h92q70 0 92.5 24t22.5 92v510zM287 1677
q0 58 37.5 94.5t93.5 36.5q57 0 94 -36.5t37 -94.5t-37 -94.5t-94 -36.5q-56 0 -93.5 36.5t-37.5 94.5zM741 1677q0 58 37 94.5t94 36.5q56 0 94 -36.5t38 -94.5t-38 -94.5t-94 -36.5q-57 0 -94 36.5t-37 94.5z" />
    <glyph glyph-name="Zacute" unicode="&#x179;" 
d="M123 0v63l665 1262h-264q-143 0 -217.5 -48t-87.5 -163h-67l28 320h856v-64l-665 -1261h319q148 0 221 47.5t80 162.5h68l-12 -319h-924zM592 1526l55 319h230l-236 -319h-49z" />
    <glyph glyph-name="zacute" unicode="&#x17a;" 
d="M170 0v49l606 809h-315q-105 0 -146.5 -39.5t-54.5 -154.5h-65v278h823v-49l-606 -809h342q107 0 149.5 49.5t48.5 157.5h66v-291h-848zM575 1032l21 445h190l-174 -445h-37z" />
    <glyph glyph-name="Zdotaccent" unicode="&#x17b;" 
d="M123 0v63l665 1262h-264q-143 0 -217.5 -48t-87.5 -163h-67l28 320h856v-64l-665 -1261h319q148 0 221 47.5t80 162.5h68l-12 -319h-924zM479 1683q0 61 38.5 100.5t98.5 39.5q59 0 98.5 -39.5t39.5 -100.5t-39.5 -99t-98.5 -38q-60 0 -98.5 38t-38.5 99z" />
    <glyph glyph-name="zdotaccent" unicode="&#x17c;" 
d="M170 0v49l606 809h-315q-105 0 -146.5 -39.5t-54.5 -154.5h-65v278h823v-49l-606 -809h342q107 0 149.5 49.5t48.5 157.5h66v-291h-848zM457 1264q0 61 38.5 100t98.5 39q59 0 98 -39t39 -100t-39 -99.5t-98 -38.5q-60 0 -98.5 38.5t-38.5 99.5z" />
    <glyph glyph-name="Zcaron" unicode="&#x17d;" 
d="M123 0v63l665 1262h-264q-143 0 -217.5 -48t-87.5 -163h-67l28 320h856v-64l-665 -1261h319q148 0 221 47.5t80 162.5h68l-12 -319h-924zM324 1866h43l245 -209h9l245 209h43l-190 -320h-203z" />
    <glyph glyph-name="zcaron" unicode="&#x17e;" 
d="M170 0v49l606 809h-315q-105 0 -146.5 -39.5t-54.5 -154.5h-65v278h823v-49l-606 -809h342q107 0 149.5 49.5t48.5 157.5h66v-291h-848zM328 1507h37l225 -313h8l225 313h37l-170 -444h-190z" />
    <glyph glyph-name="AEacute" unicode="&#x1fc;" 
d="M20 0v68h27q53 0 78 39t47 135l223 999q29 125 -78 125h-84v68h883l10 -320h-67q-15 122 -51.5 171.5t-104.5 49.5h-59q-52 0 -73 -22t-21 -80v-442h110q58 0 85 38.5t36 139.5h68v-457h-68q-9 102 -36 141t-85 39h-110v-487q0 -61 22.5 -84t79.5 -23h63q65 0 107 47
t65 174h68l-20 -319h-680v68h43q41 0 57 25t16 91v451h-196l-86 -397q-25 -89 -19 -129.5t60 -40.5h35v-68h-345zM401 752h170v583h-43zM684 1526l55 319h230l-236 -319h-49z" />
    <glyph glyph-name="aeacute" unicode="&#x1fd;" 
d="M285 -33q-104 0 -164 63.5t-60 166.5q0 97 58 163t164 91l241 57v168q0 108 -33.5 159.5t-105.5 51.5q-119 0 -119 -125q0 -10 3 -37t3 -37q0 -47 -22.5 -75.5t-65.5 -28.5q-41 0 -65.5 27.5t-24.5 84.5q0 114 87 188t218 74q162 0 236 -110q86 110 221 110t207 -107
t63 -300h-436v-33q0 -195 52 -306.5t145 -111.5q62 0 113 48.5t67 142.5h59q-13 -145 -84.5 -230.5t-201.5 -85.5q-101 0 -172.5 55t-106.5 160h-4q-20 -93 -92 -158t-180 -65zM225 215q0 -61 32 -94t87 -33q81 0 130.5 68t49.5 161v121l-155 -41q-62 -16 -103 -64t-41 -118
zM616 1032l21 445h190l-174 -445h-37zM696 637h193q38 0 50.5 12t12.5 49q0 70 -31 123t-83 53q-50 0 -89.5 -58t-52.5 -179z" />
    <glyph glyph-name="Oslashacute" unicode="&#x1fe;" 
d="M90 -109l146 267q-142 198 -142 532q0 350 145 562t367 212q160 0 281 -112l104 190h107l-146 -266q142 -198 142 -535q0 -350 -145 -562t-367 -212q-163 0 -281 115l-104 -191h-107zM311 709q0 -221 33 -353l461 844q-71 154 -207 154q-139 0 -213 -161t-74 -484z
M383 233q70 -155 209 -155q138 0 211.5 161t73.5 484q0 219 -33 354zM582 1526l55 319h229l-235 -319h-49z" />
    <glyph glyph-name="oslashacute" unicode="&#x1ff;" 
d="M160 -109l121 179q-83 67 -131 165t-48 216q0 141 71 258.5t186.5 183t246.5 65.5q130 0 236 -59l92 135h94l-121 -178q83 -67 130.5 -165t47.5 -216q0 -141 -70.5 -258.5t-186 -183.5t-246.5 -66q-128 0 -236 60l-92 -136h-94zM311 469q0 -169 54 -274l411 606
q-67 73 -178 73q-134 0 -210.5 -109t-76.5 -296zM412 125q68 -74 178 -74q134 0 210.5 109.5t76.5 296.5q0 169 -54 274zM598 1032l20 445h191l-174 -445h-37z" />
    <glyph glyph-name="uni0218" unicode="&#x218;" 
d="M551 -31q-115 0 -220.5 36.5t-168.5 82.5v281h57q90 -291 342 -291q126 0 209.5 73t83.5 197q0 87 -45.5 148.5t-149.5 99.5l-202 76q-127 47 -203 148t-76 233q0 173 126 292t319 119q93 0 176.5 -25.5t140.5 -68.5v-258h-57q-30 122 -106.5 183t-180.5 61
q-109 0 -178.5 -63.5t-69.5 -170.5q0 -180 207 -256l207 -75q121 -44 191.5 -140.5t70.5 -232.5q0 -120 -55.5 -221.5t-165 -164.5t-252.5 -63zM432 -592v62q90 12 148.5 64.5t58.5 123.5q0 20 -6 35q-36 -39 -86 -39q-46 0 -77.5 30.5t-31.5 77.5q0 54 37.5 87.5t95.5 33.5
q69 0 113.5 -50.5t44.5 -133.5q0 -110 -80 -194t-217 -97z" />
    <glyph glyph-name="uni0219" unicode="&#x219;" 
d="M573 -31q-103 0 -199 30t-149 71v243h66q4 -70 29.5 -121.5t67 -80t90.5 -41.5t106 -13q109 0 172 42.5t63 119.5q0 119 -141 156l-209 51q-119 29 -178.5 93t-59.5 155q0 129 109 206.5t295 77.5q159 0 293 -61v-233h-66q0 55 -22 96.5t-60 64.5t-82.5 34t-95.5 11
q-96 0 -152.5 -38.5t-56.5 -112.5q0 -50 32.5 -83t113.5 -52l211 -49q109 -26 167 -93t58 -168q0 -139 -106.5 -222t-295.5 -83zM436 -592v62q90 12 148.5 64.5t58.5 123.5q0 20 -6 35q-36 -39 -86 -39q-46 0 -77.5 30.5t-31.5 77.5q0 54 37.5 87.5t95.5 33.5
q69 0 113.5 -50.5t44.5 -133.5q0 -110 -80 -194t-217 -97z" />
    <glyph glyph-name="uni021A" unicode="&#x21a;" 
d="M283 0v68h92q70 0 92 24t22 92v1141h-83q-143 0 -202 -46.5t-65 -164.5h-67v320h1044v-320h-67q-6 118 -65 164.5t-202 46.5h-84v-1141q0 -68 22.5 -92t92.5 -24h92v-68h-622zM455 -592v62q90 12 148.5 64.5t58.5 123.5q0 18 -7 35q-36 -39 -86 -39q-46 0 -77 30.5
t-31 77.5q0 54 37.5 87.5t95.5 33.5q69 0 113.5 -50.5t44.5 -133.5q0 -110 -80 -194t-217 -97z" />
    <glyph glyph-name="uni021B" unicode="&#x21b;" 
d="M707 -33q-150 0 -241 74t-91 225v574h-289v80h121q104 0 142 36.5t38 120.5v103h172v-238h463v-102h-463v-533q0 -209 209 -209q92 0 158 44.5t88 138.5h55q-10 -150 -106.5 -232t-255.5 -82zM514 -592v62q90 12 148.5 64.5t58.5 123.5q0 20 -6 35q-36 -39 -86 -39
q-46 0 -77.5 30.5t-31.5 77.5q0 54 37.5 87.5t95.5 33.5q69 0 113.5 -50.5t44.5 -133.5q0 -110 -80 -194t-217 -97z" />
    <glyph glyph-name="uni0226" unicode="&#x226;" 
d="M18 0v68h39q52 0 83.5 37t49.5 110l310 1231h227l301 -1270q17 -69 36 -88.5t64 -19.5h41v-68h-487v68h94q74 0 49 108l-77 342h-355l-67 -278q-45 -172 80 -172h59v-68h-447zM428 655h287l-131 578h-15zM475 1683q0 61 38.5 100.5t98.5 39.5q59 0 98.5 -39.5
t39.5 -100.5t-39.5 -99t-98.5 -38q-60 0 -98.5 38t-38.5 99z" />
    <glyph glyph-name="uni0227" unicode="&#x227;" 
d="M406 -33q-125 0 -196 63.5t-71 166.5q0 100 67 169.5t195 90.5l328 55v164q0 108 -43.5 159.5t-138.5 51.5q-80 0 -125 -33t-45 -96q0 -12 3 -36t3 -34q0 -48 -25.5 -76t-76.5 -28q-47 0 -75 27.5t-28 84.5q0 113 110 187.5t275 74.5q158 0 254.5 -71.5t95.5 -188.5
l-6 -471q-1 -61 21 -94t65 -33q42 0 66.5 30t30.5 83h49q-2 -104 -58 -175t-157 -71q-79 0 -127.5 45t-48.5 135v21h-7q-30 -76 -122.5 -138.5t-212.5 -62.5zM326 219q0 -68 39.5 -103.5t111.5 -35.5q109 0 180.5 71.5t71.5 165.5v121l-223 -39q-89 -15 -134.5 -61.5
t-45.5 -118.5zM436 1264q0 61 38.5 100t98.5 39q59 0 98.5 -39t39.5 -100t-39.5 -99.5t-98.5 -38.5q-60 0 -98.5 38.5t-38.5 99.5z" />
    <glyph glyph-name="uni0232" unicode="&#x232;" 
d="M207 1257q-35 69 -61 89t-68 20h-51v68h546v-68h-88q-111 0 -57 -109l207 -413h18l187 387q32 63 14.5 99t-86.5 36h-57v68h450v-68h-47q-46 0 -77 -27.5t-66 -99.5l-271 -549v-506q0 -68 22.5 -92t92.5 -24h92v-68h-622v68h92q70 0 92.5 24t22.5 92v510zM334 1577v111
h620v-111h-620z" />
    <glyph glyph-name="uni0233" unicode="&#x233;" 
d="M285 -557q-106 0 -171 64.5t-65 138.5q0 46 29 77t74 31q52 0 75.5 -39t12.5 -86q-9 -40 10.5 -67t54.5 -27q39 0 67 33.5t54 93.5l139 322l-379 825q-20 43 -42 57.5t-66 14.5h-55v61h526v-61h-105q-42 0 -55 -26t8 -69l256 -573h9l243 573q20 43 6.5 69t-59.5 26h-113
v61h426v-61h-37q-42 0 -67.5 -22.5t-46.5 -72.5l-496 -1157q-37 -89 -90 -137.5t-143 -48.5zM334 1188v110h620v-110h-620z" />
    <glyph glyph-name="uni0237" unicode="&#x237;" 
d="M268 -612l-39 59l54 37q57 39 96 81t63.5 86.5t37.5 104t17.5 121.5t4.5 152v690q0 155 -150 155h-143v68h770v-68h-143q-150 0 -150 -155v-690q0 -215 -75.5 -349t-256.5 -241z" />
    <glyph glyph-name="circumflex" unicode="&#x2c6;" 
d="M328 1032l172 445h190l170 -445h-37l-225 314h-8l-225 -314h-37z" />
    <glyph glyph-name="caron" unicode="&#x2c7;" 
d="M328 1507h37l225 -313h8l225 313h37l-170 -444h-190z" />
    <glyph glyph-name="breve" unicode="&#x2d8;" 
d="M594 1067q-71 0 -125.5 28.5t-86.5 77t-48.5 108t-16.5 126.5h41q8 -101 74 -150t162 -49t161.5 49t73.5 150h41q0 -67 -16 -126.5t-48.5 -108t-86.5 -77t-125 -28.5z" />
    <glyph glyph-name="dotaccent" unicode="&#x2d9;" 
d="M594 1126q-60 0 -98.5 38.5t-38.5 99.5t38.5 100t98.5 39q59 0 98 -39t39 -100t-39 -99.5t-98 -38.5z" />
    <glyph glyph-name="ring" unicode="&#x2da;" 
d="M594 1110q-85 0 -142 57t-57 142q0 87 57 144.5t142 57.5t142 -57.5t57 -144.5q0 -85 -57 -142t-142 -57zM477 1309q0 -49 33.5 -83t83.5 -34t83.5 34t33.5 83q0 52 -33.5 86.5t-83.5 34.5t-83.5 -34.5t-33.5 -86.5z" />
    <glyph glyph-name="ogonek" unicode="&#x2db;" 
d="M569 -457q-80 0 -126 41t-46 113q0 150 221 321h58q-73 -89 -103 -147.5t-30 -116.5q0 -106 90 -106q76 0 104 67h56q-21 -76 -82 -124t-142 -48z" />
    <glyph glyph-name="tilde" unicode="&#x2dc;" 
d="M272 1130q18 94 72 156t133 62q46 0 97 -25t97.5 -49.5t80.5 -24.5q37 0 67 26t45 73h51q-18 -94 -71.5 -156t-132.5 -62q-46 0 -97 25t-97.5 49.5t-80.5 24.5q-37 0 -67 -26t-45 -73h-52z" />
    <glyph glyph-name="hungarumlaut" unicode="&#x2dd;" 
d="M578 1032l71 445h191l-226 -445h-36zM348 1032v445h191l-154 -445h-37z" />
    <glyph glyph-name="Wgrave" unicode="&#x1e80;" 
d="M131 1260q-8 64 -21.5 85t-48.5 21h-34v68h426v-68h-80q-53 0 -71.5 -22t-12.5 -84l108 -992h25l127 967h149l107 -967h29l118 955q10 80 -8 111.5t-65 31.5h-88v68h370v-68h-18q-42 0 -58 -32.5t-26 -116.5l-154 -1217h-190l-103 940h-22l-119 -940h-190zM362 1845h230
l55 -319h-49z" />
    <glyph glyph-name="wgrave" unicode="&#x1e81;" 
d="M123 809q-7 41 -26 56.5t-52 15.5h-22v61h403v-61h-94q-35 0 -44.5 -24t1.5 -71l108 -608h11l149 651h133l146 -651h12l115 608q9 50 -4.5 72.5t-61.5 22.5h-80v61h348v-61h-26q-60 0 -78 -93l-154 -796h-168l-141 631h-8l-141 -631h-168zM432 1477h191l20 -445h-37z" />
    <glyph glyph-name="Wacute" unicode="&#x1e82;" 
d="M131 1260q-8 64 -21.5 85t-48.5 21h-34v68h426v-68h-80q-53 0 -71.5 -22t-12.5 -84l108 -992h25l127 967h149l107 -967h29l118 955q10 80 -8 111.5t-65 31.5h-88v68h370v-68h-18q-42 0 -58 -32.5t-26 -116.5l-154 -1217h-190l-103 940h-22l-119 -940h-190zM598 1526
l55 319h230l-236 -319h-49z" />
    <glyph glyph-name="wacute" unicode="&#x1e83;" 
d="M123 809q-7 41 -26 56.5t-52 15.5h-22v61h403v-61h-94q-35 0 -44.5 -24t1.5 -71l108 -608h11l149 651h133l146 -651h12l115 608q9 50 -4.5 72.5t-61.5 22.5h-80v61h348v-61h-26q-60 0 -78 -93l-154 -796h-168l-141 631h-8l-141 -631h-168zM606 1032l21 445h190l-174 -445
h-37z" />
    <glyph glyph-name="Wdieresis" unicode="&#x1e84;" 
d="M131 1260q-8 64 -21.5 85t-48.5 21h-34v68h426v-68h-80q-53 0 -71.5 -22t-12.5 -84l108 -992h25l127 967h149l107 -967h29l118 955q10 80 -8 111.5t-65 31.5h-88v68h370v-68h-18q-42 0 -58 -32.5t-26 -116.5l-154 -1217h-190l-103 940h-22l-119 -940h-190zM264 1677
q0 58 37.5 94.5t93.5 36.5q57 0 94 -36.5t37 -94.5t-37 -94.5t-94 -36.5q-56 0 -93.5 36.5t-37.5 94.5zM719 1677q0 58 37 94.5t94 36.5q56 0 93.5 -36.5t37.5 -94.5t-37.5 -94.5t-93.5 -36.5q-57 0 -94 36.5t-37 94.5z" />
    <glyph glyph-name="wdieresis" unicode="&#x1e85;" 
d="M123 809q-7 41 -26 56.5t-52 15.5h-22v61h403v-61h-94q-35 0 -44.5 -24t1.5 -71l108 -608h11l149 651h133l146 -651h12l115 608q9 50 -4.5 72.5t-61.5 22.5h-80v61h348v-61h-26q-60 0 -78 -93l-154 -796h-168l-141 631h-8l-141 -631h-168zM289 1257q0 55 36 90t89 35
q54 0 89.5 -35t35.5 -90t-35.5 -89.5t-89.5 -34.5q-53 0 -89 34.5t-36 89.5zM711 1257q0 55 35.5 90t89.5 35q53 0 89 -35t36 -90t-36 -89.5t-89 -34.5q-54 0 -89.5 34.5t-35.5 89.5z" />
    <glyph glyph-name="uni1E9E" unicode="&#x1e9e;" 
d="M786 -31q-88 0 -157.5 21.5t-110.5 48.5v262h57q27 -118 89 -174.5t149 -56.5q81 0 133.5 60t52.5 173q0 59 -13.5 102.5t-44 78t-65.5 59t-92 55.5l-231 123v72l420 522h-490q-54 0 -74 -22t-20 -81v-1089v-55v-68h-356v68h55q55 0 73.5 24.5t18.5 91.5v1065
q0 66 -18 91.5t-76 25.5h-53v68h1112v-78l-406 -508l146 -74q63 -32 108 -65.5t84 -80.5t58.5 -110.5t19.5 -142.5q0 -178 -105.5 -292t-263.5 -114z" />
    <glyph glyph-name="Ygrave" unicode="&#x1ef2;" 
d="M207 1257q-35 69 -61 89t-68 20h-51v68h546v-68h-88q-111 0 -57 -109l207 -413h18l187 387q32 63 14.5 99t-86.5 36h-57v68h450v-68h-47q-46 0 -77 -27.5t-66 -99.5l-271 -549v-506q0 -68 22.5 -92t92.5 -24h92v-68h-622v68h92q70 0 92.5 24t22.5 92v510zM385 1845h229
l56 -319h-49z" />
    <glyph glyph-name="ygrave" unicode="&#x1ef3;" 
d="M285 -557q-106 0 -171 64.5t-65 138.5q0 46 29 77t74 31q52 0 75.5 -39t12.5 -86q-9 -40 10.5 -67t54.5 -27q39 0 67 33.5t54 93.5l139 322l-379 825q-20 43 -42 57.5t-66 14.5h-55v61h526v-61h-105q-42 0 -55 -26t8 -69l256 -573h9l243 573q20 43 6.5 69t-59.5 26h-113
v61h426v-61h-37q-42 0 -67.5 -22.5t-46.5 -72.5l-496 -1157q-37 -89 -90 -137.5t-143 -48.5zM453 1477h190l21 -445h-37z" />
    <glyph glyph-name="uni2002" unicode="&#x2002;" 
 />
    <glyph glyph-name="uni2003" unicode="&#x2003;" 
 />
    <glyph glyph-name="uni2009" unicode="&#x2009;" 
 />
    <glyph glyph-name="uni200A" unicode="&#x200a;" 
 />
    <glyph glyph-name="endash" unicode="&#x2013;" 
d="M133 498v112h922v-112h-922z" />
    <glyph glyph-name="emdash" unicode="&#x2014;" 
d="M102 498v112h983v-112h-983z" />
    <glyph glyph-name="quoteleft" unicode="&#x2018;" 
d="M848 1399q-92 -13 -159.5 -41.5t-104 -66.5t-53.5 -77t-17 -79q0 -24 6 -45q34 30 84 30q52 0 83.5 -32.5t31.5 -86.5q0 -61 -40.5 -97t-96.5 -36q-73 0 -119.5 59.5t-46.5 159.5q0 66 22.5 126t71 115t135 94.5t203.5 54.5v-78z" />
    <glyph glyph-name="quoteright" unicode="&#x2019;" 
d="M340 934q92 13 159.5 41.5t104 66.5t53.5 77t17 79q0 24 -6 45q-36 -31 -84 -31q-52 0 -83.5 32.5t-31.5 86.5q0 61 40.5 97t96.5 36q73 0 119.5 -59.5t46.5 -159.5q0 -66 -22.5 -126t-71 -114.5t-135 -93.5t-203.5 -55v78z" />
    <glyph glyph-name="quotesinglbase" unicode="&#x201a;" 
d="M319 -279q92 13 159.5 42t104 67t53.5 77t17 79q0 24 -6 45q-36 -31 -84 -31q-52 0 -83 32.5t-31 86.5q0 61 40.5 97t96.5 36q73 0 119.5 -59.5t46.5 -159.5q0 -66 -23 -126t-71.5 -114.5t-135 -93.5t-203.5 -55v77z" />
    <glyph glyph-name="quotedblleft" unicode="&#x201c;" 
d="M1063 1419q-92 -13 -159.5 -41.5t-104 -66.5t-53.5 -77t-17 -79q0 -24 6 -45q36 31 84 31q52 0 83.5 -32.5t31.5 -86.5q0 -61 -40.5 -97t-96.5 -36q-73 0 -119.5 59.5t-46.5 159.5q0 66 22.5 126t71 114.5t135 93.5t203.5 55v-78zM201 1108q0 66 22.5 126t71 114.5
t135 93.5t203.5 55v-78q-92 -13 -159.5 -41.5t-104 -66.5t-53.5 -77t-17 -79q0 -24 6 -45q36 31 84 31q52 0 83.5 -32.5t31.5 -86.5q0 -61 -40.5 -97t-96.5 -36q-73 0 -119.5 59.5t-46.5 159.5z" />
    <glyph glyph-name="quotedblright" unicode="&#x201d;" 
d="M125 934q92 13 159.5 41.5t104 66.5t53.5 77t17 79q0 24 -6 45q-36 -31 -84 -31q-52 0 -83.5 32.5t-31.5 86.5q0 61 40.5 97t96.5 36q73 0 119.5 -59.5t46.5 -159.5q0 -66 -22.5 -126t-71 -114.5t-135 -93.5t-203.5 -55v78zM555 856v78q92 13 159.5 41.5t104 66.5
t53.5 77t17 79q0 24 -6 45q-36 -31 -84 -31q-52 0 -83.5 32.5t-31.5 86.5q0 61 40.5 97t96.5 36q73 0 119.5 -59.5t46.5 -159.5q0 -66 -22.5 -126t-71 -114.5t-135 -93.5t-203.5 -55z" />
    <glyph glyph-name="quotedblbase" unicode="&#x201e;" 
d="M98 -279q92 13 159.5 42t104 67t53.5 77t17 79q0 24 -6 45q-36 -31 -84 -31q-52 0 -83.5 32.5t-31.5 86.5q0 61 41 97t97 36q73 0 119 -59.5t46 -159.5q0 -66 -22.5 -126t-71 -114.5t-135 -93.5t-203.5 -55v77zM528 -356v77q92 13 159.5 42t104 67t53.5 77t17 79
q0 24 -6 45q-36 -31 -84 -31q-52 0 -83.5 32.5t-31.5 86.5q0 61 41 97t97 36q73 0 119.5 -59.5t46.5 -159.5q0 -66 -23 -126t-71.5 -114.5t-135 -93.5t-203.5 -55z" />
    <glyph glyph-name="dagger" unicode="&#x2020;" 
d="M362 0v61h41q109 0 109 95v694h-248q-51 0 -72.5 -22.5t-21.5 -75.5v-41h-68v422h68v-41q0 -53 21.5 -76t72.5 -23h248v285q0 54 -18.5 74t-69.5 20h-62v62h463v-62h-61q-51 0 -69.5 -20t-18.5 -74v-285h248q51 0 72.5 23t21.5 76v41h67v-422h-67v41q0 53 -21.5 75.5
t-72.5 22.5h-248v-694q0 -95 108 -95h41v-61h-463z" />
    <glyph glyph-name="daggerdbl" unicode="&#x2021;" 
d="M102 250v391h68v-31q0 -53 21.5 -75.5t72.5 -22.5h248v410h-248q-51 0 -72.5 -23t-21.5 -76v-30h-68v391h68v-31q0 -53 21.5 -75.5t72.5 -22.5h248v223q0 54 -18.5 74t-69.5 20h-62v62h463v-62h-61q-51 0 -69.5 -20t-18.5 -74v-223h248q51 0 72.5 22.5t21.5 75.5v31h67
v-391h-67v30q0 53 -21.5 76t-72.5 23h-248v-410h248q51 0 72.5 22.5t21.5 75.5v31h67v-391h-67v31q0 53 -21.5 75.5t-72.5 22.5h-248v-223q0 -95 108 -95h41v-61h-463v61h41q109 0 109 95v223h-248q-51 0 -72.5 -22.5t-21.5 -75.5v-31h-68z" />
    <glyph glyph-name="bullet" unicode="&#x2022;" 
d="M594 449q-124 0 -203.5 77.5t-79.5 202.5q0 124 80 204.5t203 80.5q119 0 199.5 -80.5t80.5 -204.5t-80 -202t-200 -78z" />
    <glyph glyph-name="ellipsis" unicode="&#x2026;" 
d="M233 -31q-56 0 -94.5 37t-38.5 92q0 58 37.5 96.5t95.5 38.5q56 0 95 -37t39 -92q0 -56 -38 -95.5t-96 -39.5zM461 98q0 58 37.5 96.5t95.5 38.5q56 0 94.5 -37t38.5 -92q0 -56 -37.5 -95.5t-95.5 -39.5q-56 0 -94.5 37t-38.5 92zM821 98q0 58 37.5 96.5t95.5 38.5
q56 0 94.5 -37t38.5 -92q0 -56 -37.5 -95.5t-95.5 -39.5q-56 0 -94.5 37t-38.5 92z" />
    <glyph glyph-name="guilsinglleft" unicode="&#x2039;" 
d="M780 0l-497 471l516 471h106l-416 -463l410 -479h-119z" />
    <glyph glyph-name="guilsinglright" unicode="&#x203a;" 
d="M408 942l497 -471l-516 -471h-106l415 463l-409 479h119z" />
    <glyph glyph-name="fraction" unicode="&#x2044;" 
d="M41 446l1106 664v-121l-1106 -663v120z" />
    <glyph glyph-name="uni2070" unicode="&#x2070;" 
d="M582 590q-143 0 -243.5 117.5t-100.5 308.5q0 105 32.5 192t85.5 141.5t118 84.5t134 30q143 0 243.5 -117.5t100.5 -308.5q0 -105 -32.5 -192t-85.5 -141.5t-118 -84.5t-134 -30zM422 1022q0 -185 44.5 -263.5t125.5 -78.5q87 0 131.5 84.5t44.5 267.5
q0 185 -44.5 263.5t-125.5 78.5q-87 0 -131.5 -84.5t-44.5 -267.5z" />
    <glyph glyph-name="uni2074" unicode="&#x2074;" 
d="M522 618v64h51q70 0 70 55v133h-459v74l529 520h86v-483h67q40 0 57 15t17 51v26h66v-289h-66v21q0 35 -17 50t-57 15h-67v-133q0 -30 16.5 -42.5t52.5 -12.5h52v-64h-398zM365 981h278v279h-6l-272 -273v-6z" />
    <glyph glyph-name="uni2075" unicode="&#x2075;" 
d="M573 590q-128 0 -215.5 50t-87.5 136q0 43 23 65.5t61 22.5q40 0 60 -24t22 -64q3 -53 39.5 -82.5t97.5 -29.5q86 0 132.5 57t46.5 141q0 81 -46 127.5t-124 46.5q-48 0 -95 -18.5t-77 -44.5h-84l45 461h538v-224h-63q-2 56 -11.5 71t-50.5 15h-333l-23 -233h8
q98 72 211 72t190.5 -68.5t77.5 -181.5q0 -131 -94 -213t-248 -82z" />
    <glyph glyph-name="uni2076" unicode="&#x2076;" 
d="M594 590q-146 0 -245 84t-99 237q0 125 54.5 228.5t145 170t198 105.5t222.5 49v-69q-154 -20 -275.5 -114t-154.5 -189h15q68 51 184 51q129 0 215 -71.5t86 -188.5q0 -123 -100 -208t-246 -85zM422 872q0 -83 47.5 -137.5t132.5 -54.5q79 0 124.5 49t45.5 131
q0 83 -49.5 139t-132.5 56q-80 0 -124 -50.5t-44 -132.5z" />
    <glyph glyph-name="uni2077" unicode="&#x2077;" 
d="M385 606l383 680h-330q-54 0 -67 -14.5t-19 -71.5h-65l20 234h656v-25l-447 -803h-131z" />
    <glyph glyph-name="uni2078" unicode="&#x2078;" 
d="M578 590q-147 0 -237.5 63.5t-90.5 163.5q0 66 45 120.5t137 88.5q-135 57 -135 197q0 112 91.5 176.5t244.5 64.5q136 0 219.5 -57.5t83.5 -142.5q0 -63 -43.5 -115.5t-128.5 -87.5q86 -36 130 -81t44 -118q0 -108 -96.5 -190t-263.5 -82zM395 836q0 -67 55.5 -109.5
t147.5 -42.5q88 0 139 37.5t51 97.5q0 44 -33.5 71.5t-103.5 53.5l-145 53q-56 -29 -83.5 -72.5t-27.5 -88.5zM446 1253q0 -36 24.5 -61.5t82.5 -48.5l133 -51q52 31 78.5 72t26.5 83q0 57 -48 90t-125 33q-76 0 -124 -32.5t-48 -84.5z" />
    <glyph glyph-name="uni2079" unicode="&#x2079;" 
d="M596 1464q146 0 245 -84t99 -237q0 -101 -36 -188.5t-97 -150t-141.5 -109t-168 -72t-178.5 -33.5v69q154 20 276 114.5t155 189.5h-15q-70 -52 -184 -52q-129 0 -215 71.5t-86 188.5q0 123 100 208t246 85zM418 1194q0 -83 49.5 -139t132.5 -56q80 0 124 50.5t44 132.5
q0 83 -47.5 137.5t-132.5 54.5q-79 0 -124.5 -49t-45.5 -131z" />
    <glyph glyph-name="uni20A9" unicode="&#x20a9;" 
d="M563 1260q-6 60 -22.5 83t-46.5 23h-31v68h317v-68h-30q-43 0 -55 -21t-7 -85l27 -308h198l39 271q11 79 -7.5 111t-65.5 32h-27v68h309v-68h-18q-41 0 -56.5 -31.5t-27.5 -117.5l-39 -265h147v-112h-163l-21 -154h184v-113h-200l-84 -573h-209l-51 573h-29l-82 -573
h-209l-78 573h-205v113h189l-21 154h-168v112h152l-41 308q-9 64 -22 85t-48 21h-34v68h364v-68h-18q-54 0 -72.5 -22t-11.5 -84l39 -308h262zM342 840l18 -154h254l-14 154h-258zM375 573l47 -366h29l51 366h-127zM723 840l14 -154h140l22 154h-176zM745 573l31 -366h33
l51 366h-115z" />
    <glyph glyph-name="Euro" unicode="&#x20ac;" 
d="M729 -33q-201 0 -334 152.5t-164 412.5h-190v113h182v39q0 41 4 115h-186v112h203q50 257 199.5 405t361.5 148q89 0 176.5 -23t132.5 -57l6 -272h-55q-38 123 -113.5 182.5t-167.5 59.5q-118 0 -209 -110t-120 -333h477l-41 -112h-447q-2 -29 -2 -88q0 -46 2 -66h392
l-41 -113h-344q24 -221 104.5 -337.5t200.5 -116.5q108 0 186 73t129 238h55l-12 -270q-175 -152 -385 -152z" />
    <glyph glyph-name="uni2117" unicode="&#x2117;" 
d="M356 367v61h41q31 0 43.5 14.5t12.5 55.5v458q0 41 -12.5 55.5t-43.5 14.5h-41v61h283q113 0 174 -60t61 -161q0 -102 -57 -166.5t-149 -64.5q-44 0 -97 18v-155q0 -41 13 -55.5t43 -14.5h49v-61h-320zM41 707q0 313 155 495t404 182q245 0 396 -176t151 -481
q0 -313 -155 -495.5t-404 -182.5q-245 0 -396 176.5t-151 481.5zM162 717q0 -261 121 -414t311 -153t311 153t121 414t-121 414t-311 153t-311 -153t-121 -414zM571 723q38 -12 64 -12q59 0 90 42.5t31 110.5q0 78 -45 114t-119 36h-21v-291z" />
    <glyph glyph-name="trademark" unicode="&#x2122;" 
d="M41 1260v174h438v-174h-55q0 59 -12.5 78.5t-55.5 19.5h-39v-440q0 -30 7.5 -44t27.5 -14h58v-51h-299v51h57q20 0 27.5 14t7.5 44v440h-39q-42 0 -55 -20t-13 -78h-55zM496 809v51h22q26 0 36.5 17t12.5 59l17 381q2 36 -6.5 48.5t-38.5 12.5h-19v56h232l51 -400h20
l60 400h241v-52h-18q-30 0 -39.5 -11.5t-7.5 -43.5l16 -401q1 -41 10.5 -53.5t36.5 -12.5h25v-51h-250v51h33q24 0 30.5 12t4.5 54l-15 397h-22l-66 -438h-121l-59 438h-25l-14 -387q-1 -41 8.5 -58.5t32.5 -17.5h31v-51h-219z" />
    <glyph glyph-name="uni2153" unicode="&#x2153;" 
d="M119 829v48h63q39 0 56.5 14.5t17.5 54.5v379q0 20 -10 25t-35 -4l-170 -62v70l291 110h67v-518q0 -40 17.5 -54.5t58.5 -14.5h39v-48h-395zM41 346v121l1106 663v-120zM569 119q0 65 70 65q65 0 68 -65q3 -40 34 -62t86 -22q68 0 106 34.5t38 92.5q0 112 -156 112
q-59 0 -113 -12v70q142 30 200.5 59.5t58.5 75.5q0 36 -32 57t-95 21q-69 0 -117.5 -28t-63.5 -75h-57q12 83 91 138t185 55q103 0 162.5 -43t59.5 -103q0 -115 -232 -157v-8q105 14 175.5 -25t70.5 -123q0 -89 -80.5 -144t-206.5 -55q-105 0 -178.5 38.5t-73.5 103.5z" />
    <glyph glyph-name="uni2154" unicode="&#x2154;" 
d="M0 829v64l240 172q69 48 105 91t36 101q0 51 -34.5 79t-92.5 28q-67 0 -117 -31t-59 -80h-55q12 89 86.5 150t185.5 61q100 0 162.5 -48t62.5 -126q0 -41 -16.5 -78t-48.5 -69t-59 -53t-68 -48l-152 -106v-6h217q57 0 76.5 18.5t24.5 65.5h51l-13 -185h-532zM41 346v121
l1106 663v-120zM569 119q0 65 70 65q65 0 68 -65q3 -40 34 -62t86 -22q68 0 106 34.5t38 92.5q0 112 -156 112q-59 0 -113 -12v70q142 30 200.5 59.5t58.5 75.5q0 36 -32 57t-95 21q-69 0 -117.5 -28t-63.5 -75h-57q12 83 91 138t185 55q103 0 162.5 -43t59.5 -103
q0 -115 -232 -157v-8q105 14 175.5 -25t70.5 -123q0 -89 -80.5 -144t-206.5 -55q-105 0 -178.5 38.5t-73.5 103.5z" />
    <glyph glyph-name="uni2155" unicode="&#x2155;" 
d="M119 829v48h63q39 0 56.5 14.5t17.5 54.5v379q0 20 -10 25t-35 -4l-170 -62v70l291 110h67v-518q0 -40 17.5 -54.5t58.5 -14.5h39v-48h-395zM41 346v121l1106 663v-120zM571 119q0 65 70 65q65 0 68 -65q3 -40 32 -62t80 -22q71 0 109.5 42t38.5 105q0 61 -37.5 96
t-102.5 35q-85 0 -143 -47h-70l39 346h445v-168h-53q0 42 -8 54t-42 12h-276l-19 -176h7q78 53 174 53q94 0 157.5 -50.5t63.5 -135.5q0 -99 -77.5 -161.5t-205.5 -62.5q-106 0 -178 38.5t-72 103.5z" />
    <glyph glyph-name="uni2156" unicode="&#x2156;" 
d="M0 829v64l240 172q69 48 105 91t36 101q0 51 -34.5 79t-92.5 28q-67 0 -117 -31t-59 -80h-55q12 89 86.5 150t185.5 61q100 0 162.5 -48t62.5 -126q0 -41 -16.5 -78t-48.5 -69t-59 -53t-68 -48l-152 -106v-6h217q57 0 76.5 18.5t24.5 65.5h51l-13 -185h-532zM41 346v121
l1106 663v-120zM571 119q0 65 70 65q65 0 68 -65q3 -40 32 -62t80 -22q71 0 109.5 42t38.5 105q0 61 -37.5 96t-102.5 35q-85 0 -143 -47h-70l39 346h445v-168h-53q0 42 -8 54t-42 12h-276l-19 -176h7q78 53 174 53q94 0 157.5 -50.5t63.5 -135.5q0 -99 -77.5 -161.5
t-205.5 -62.5q-106 0 -178 38.5t-72 103.5z" />
    <glyph glyph-name="uni2157" unicode="&#x2157;" 
d="M281 807q-105 0 -178.5 38t-73.5 103q0 33 18.5 49.5t50.5 16.5q33 0 49.5 -17.5t18.5 -48.5q3 -40 34.5 -63t86.5 -23q68 0 105.5 35.5t37.5 93.5q0 113 -156 113q-58 0 -112 -12v69q142 30 200 59.5t58 75.5q0 36 -32 57t-95 21q-69 0 -117 -27.5t-63 -74.5h-58
q12 83 91.5 137.5t185.5 54.5q103 0 162 -42.5t59 -102.5q0 -116 -231 -158v-8q105 14 175 -25t70 -122q0 -89 -80.5 -144t-205.5 -55zM41 346v121l1106 663v-120zM571 119q0 65 70 65q65 0 68 -65q3 -40 32 -62t80 -22q71 0 109.5 42t38.5 105q0 61 -37.5 96t-102.5 35
q-85 0 -143 -47h-70l39 346h445v-168h-53q0 42 -8 54t-42 12h-276l-19 -176h7q78 53 174 53q94 0 157.5 -50.5t63.5 -135.5q0 -99 -77.5 -161.5t-205.5 -62.5q-106 0 -178 38.5t-72 103.5z" />
    <glyph glyph-name="uni2158" unicode="&#x2158;" 
d="M266 829v48h39q55 0 55 41v100h-354v55l408 391h65v-362h53q31 0 44.5 11t13.5 38v20h49v-217h-49v15q0 27 -13.5 38t-44.5 11h-53v-100q0 -23 13 -32t40 -9h41v-48h-307zM41 346v121l1106 663v-120zM143 1102h217v209h-6l-211 -205v-4zM571 119q0 65 70 65q65 0 68 -65
q3 -40 32 -62t80 -22q71 0 109.5 42t38.5 105q0 61 -37.5 96t-102.5 35q-85 0 -143 -47h-70l39 346h445v-168h-53q0 42 -8 54t-42 12h-276l-19 -176h7q78 53 174 53q94 0 157.5 -50.5t63.5 -135.5q0 -99 -77.5 -161.5t-205.5 -62.5q-106 0 -178 38.5t-72 103.5z" />
    <glyph glyph-name="uni2159" unicode="&#x2159;" 
d="M119 829v48h63q39 0 56.5 14.5t17.5 54.5v379q0 20 -10 25t-35 -4l-170 -62v70l291 110h67v-518q0 -40 17.5 -54.5t58.5 -14.5h39v-48h-395zM41 346v121l1106 663v-120zM555 219q0 94 45 172t119.5 128t163.5 79.5t184 36.5v-51q-127 -16 -227.5 -87t-126.5 -141h10
q58 37 154 37q107 0 177 -52.5t70 -141.5q0 -93 -82 -157.5t-202 -64.5q-122 0 -203.5 63.5t-81.5 178.5zM696 190q0 -62 40 -102.5t110 -40.5q66 0 103.5 36.5t37.5 98.5t-41 104t-110 42q-66 0 -103 -38t-37 -100z" />
    <glyph glyph-name="uni215A" unicode="&#x215a;" 
d="M256 807q-106 0 -178 38t-72 103q0 33 19 49.5t51 16.5q64 0 67 -66q3 -40 32.5 -63t80.5 -23q71 0 109 43.5t38 106.5q0 61 -37 96t-102 35q-85 0 -143 -47h-70l39 346h445v-168h-54q0 42 -7.5 53.5t-41.5 11.5h-276l-19 -176h6q80 54 174 54t158 -51t64 -136
q0 -99 -77.5 -161t-205.5 -62zM41 346v121l1106 663v-120zM555 219q0 94 45 172t119.5 128t163.5 79.5t184 36.5v-51q-127 -16 -227.5 -87t-126.5 -141h10q58 37 154 37q107 0 177 -52.5t70 -141.5q0 -93 -82 -157.5t-202 -64.5q-122 0 -203.5 63.5t-81.5 178.5zM696 190
q0 -62 40 -102.5t110 -40.5q66 0 103.5 36.5t37.5 98.5t-41 104t-110 42q-66 0 -103 -38t-37 -100z" />
    <glyph glyph-name="oneeighth" unicode="&#x215b;" 
d="M119 829v48h63q39 0 56.5 14.5t17.5 54.5v379q0 20 -10 25t-35 -4l-170 -62v70l291 110h67v-518q0 -40 17.5 -54.5t58.5 -14.5h39v-48h-395zM41 346v121l1106 663v-120zM555 150q0 104 150 157q-111 42 -111 148q0 83 75.5 131.5t200.5 48.5q114 0 183 -43.5t69 -106.5
q0 -98 -143 -153q71 -26 108 -60t37 -90q0 -80 -80.5 -142.5t-218.5 -62.5q-120 0 -195 48.5t-75 124.5zM676 164q0 -51 45 -83t121 -32q72 0 114.5 29t42.5 74q0 33 -27 53t-85 39l-121 41q-46 -22 -68 -54.5t-22 -66.5zM717 477q0 -26 20.5 -45.5t67.5 -38.5l110 -37
q43 22 64.5 53.5t21.5 63.5q0 42 -39.5 67t-101.5 25q-63 0 -103 -25t-40 -63z" />
    <glyph glyph-name="threeeighths" unicode="&#x215c;" 
d="M281 807q-105 0 -178.5 38t-73.5 103q0 33 18.5 49.5t50.5 16.5q33 0 49.5 -17.5t18.5 -48.5q3 -40 34.5 -63t86.5 -23q68 0 105.5 35.5t37.5 93.5q0 113 -156 113q-58 0 -112 -12v69q142 30 200 59.5t58 75.5q0 36 -32 57t-95 21q-69 0 -117 -27.5t-63 -74.5h-58
q12 83 91.5 137.5t185.5 54.5q103 0 162 -42.5t59 -102.5q0 -116 -231 -158v-8q105 14 175 -25t70 -122q0 -89 -80.5 -144t-205.5 -55zM41 346v121l1106 663v-120zM555 150q0 104 150 157q-111 42 -111 148q0 83 75.5 131.5t200.5 48.5q114 0 183 -43.5t69 -106.5
q0 -98 -143 -153q71 -26 108 -60t37 -90q0 -80 -80.5 -142.5t-218.5 -62.5q-120 0 -195 48.5t-75 124.5zM676 164q0 -51 45 -83t121 -32q72 0 114.5 29t42.5 74q0 33 -27 53t-85 39l-121 41q-46 -22 -68 -54.5t-22 -66.5zM717 477q0 -26 20.5 -45.5t67.5 -38.5l110 -37
q43 22 64.5 53.5t21.5 63.5q0 42 -39.5 67t-101.5 25q-63 0 -103 -25t-40 -63z" />
    <glyph glyph-name="fiveeighths" unicode="&#x215d;" 
d="M256 807q-106 0 -178 38t-72 103q0 33 19 49.5t51 16.5q64 0 67 -66q3 -40 32.5 -63t80.5 -23q71 0 109 43.5t38 106.5q0 61 -37 96t-102 35q-85 0 -143 -47h-70l39 346h445v-168h-54q0 42 -7.5 53.5t-41.5 11.5h-276l-19 -176h6q80 54 174 54t158 -51t64 -136
q0 -99 -77.5 -161t-205.5 -62zM41 346v121l1106 663v-120zM555 150q0 104 150 157q-111 42 -111 148q0 83 75.5 131.5t200.5 48.5q114 0 183 -43.5t69 -106.5q0 -98 -143 -153q71 -26 108 -60t37 -90q0 -80 -80.5 -142.5t-218.5 -62.5q-120 0 -195 48.5t-75 124.5zM676 164
q0 -51 45 -83t121 -32q72 0 114.5 29t42.5 74q0 33 -27 53t-85 39l-121 41q-46 -22 -68 -54.5t-22 -66.5zM717 477q0 -26 20.5 -45.5t67.5 -38.5l110 -37q43 22 64.5 53.5t21.5 63.5q0 42 -39.5 67t-101.5 25q-63 0 -103 -25t-40 -63z" />
    <glyph glyph-name="seveneighths" unicode="&#x215e;" 
d="M182 819l318 512h-273q-45 0 -55.5 -11t-15.5 -54h-54l17 176h540v-19l-368 -604h-109zM41 346v121l1106 663v-120zM555 150q0 104 150 157q-111 42 -111 148q0 83 75.5 131.5t200.5 48.5q114 0 183 -43.5t69 -106.5q0 -98 -143 -153q71 -26 108 -60t37 -90
q0 -80 -80.5 -142.5t-218.5 -62.5q-120 0 -195 48.5t-75 124.5zM676 164q0 -51 45 -83t121 -32q72 0 114.5 29t42.5 74q0 33 -27 53t-85 39l-121 41q-46 -22 -68 -54.5t-22 -66.5zM717 477q0 -26 20.5 -45.5t67.5 -38.5l110 -37q43 22 64.5 53.5t21.5 63.5q0 42 -39.5 67
t-101.5 25q-63 0 -103 -25t-40 -63z" />
    <glyph glyph-name="uni2160" unicode="&#x2160;" 
d="M201 1366v68h786v-68h-153q-66 0 -101 -35.5t-35 -122.5v-983q0 -93 30.5 -125t105.5 -32h153v-68h-786v68h153q75 0 105 32t30 125v983q0 87 -34.5 122.5t-100.5 35.5h-153z" />
    <glyph glyph-name="uni2161" unicode="&#x2161;" horiz-adv-x="2375" 
d="M201 1366v68h1974v-68h-283q-66 0 -100.5 -35.5t-34.5 -122.5v-983q0 -93 30 -125t105 -32h283v-68h-1974v68h282q75 0 105 32t30 125v983q0 87 -34.5 122.5t-100.5 35.5h-282zM827 225q0 -93 30.5 -125t105.5 -32h450q75 0 105 32t30 125v983q0 87 -34.5 122.5
t-100.5 35.5h-450q-66 0 -101 -35.5t-35 -122.5v-983z" />
    <glyph glyph-name="uni2162" unicode="&#x2162;" horiz-adv-x="3563" 
d="M201 1366v68h3162v-68h-412q-66 0 -100.5 -35.5t-34.5 -122.5v-983q0 -93 30 -125t105 -32h412v-68h-3162v68h411q75 0 105.5 32t30.5 125v983q0 87 -35 122.5t-101 35.5h-411zM956 225q0 -93 30.5 -125t105.5 -32h450q75 0 105 32t30 125v983q0 87 -34.5 122.5
t-100.5 35.5h-450q-66 0 -101 -35.5t-35 -122.5v-983zM1886 225q0 -93 30 -125t105 -32h451q75 0 105 32t30 125v983q0 87 -34.5 122.5t-100.5 35.5h-451q-66 0 -100.5 -35.5t-34.5 -122.5v-983z" />
    <glyph glyph-name="uni2163" unicode="&#x2163;" horiz-adv-x="2375" 
d="M115 1366v68h2148v-68h-113q-61 0 -87.5 -30.5t-47.5 -116.5l-284 -1151h532v-68h-2148v68h233q75 0 105 32t30 125v983q0 87 -34.5 122.5t-100.5 35.5h-233zM692 225q0 -93 30 -125t105 -32h691l-301 1189q-18 71 -35.5 90t-61.5 19h-293q-66 0 -100.5 -35.5
t-34.5 -122.5v-983zM1434 1257l225 -921h16l215 878q21 76 2 114t-90 38h-297q-54 0 -69 -26.5t-2 -82.5z" />
    <glyph glyph-name="uni2164" unicode="&#x2164;" 
d="M27 1366v68h1134v-68h-31q-61 0 -87.5 -30.5t-47.5 -116.5l-305 -1231h-172l-321 1269q-18 71 -35.5 90t-61.5 19h-73zM414 1257l225 -921h16l215 878q21 76 2 114t-90 38h-297q-54 0 -69 -26.5t-2 -82.5z" />
    <glyph glyph-name="uni2165" unicode="&#x2165;" horiz-adv-x="2375" 
d="M115 1366v68h2148v-68h-235q-66 0 -101 -35.5t-35 -122.5v-983q0 -93 30.5 -125t105.5 -32h235v-68h-2148v68h553l-301 1189q-18 71 -35.5 90t-61.5 19h-155zM584 1257l225 -921h16l215 878q21 76 2 114t-90 38h-297q-54 0 -69 -26.5t-2 -82.5zM881 68h667q75 0 105 32
t30 125v983q0 87 -34.5 122.5t-100.5 35.5h-248q-61 0 -87.5 -30.5t-47.5 -116.5z" />
    <glyph glyph-name="uni2166" unicode="&#x2166;" horiz-adv-x="3563" 
d="M115 1366v68h3336v-68h-291q-66 0 -100.5 -35.5t-34.5 -122.5v-983q0 -93 30 -125t105 -32h291v-68h-3336v68h608l-301 1189q-19 71 -36 90t-60 19h-211zM639 1257l225 -921h17l215 878q21 76 2 114t-90 38h-297q-54 0 -69.5 -26.5t-2.5 -82.5zM936 68h817q75 0 105 32
t30 125v983q0 87 -34.5 122.5t-100.5 35.5h-397q-61 0 -87.5 -30.5t-47.5 -116.5zM2097 225q0 -93 30 -125t105 -32h449q75 0 105 32t30 125v983q0 87 -34.5 122.5t-100.5 35.5h-449q-66 0 -100.5 -35.5t-34.5 -122.5v-983z" />
    <glyph glyph-name="uni2167" unicode="&#x2167;" horiz-adv-x="4751" 
d="M115 1366v68h4524v-68h-412q-66 0 -100.5 -35.5t-34.5 -122.5v-983q0 -81 22 -115t74 -40h451v-70h-4524v70h727l-299 1187q-18 71 -35.5 90t-61.5 19h-331zM760 1257l225 -921h16l216 878q21 76 1.5 114t-90.5 38h-297q-54 0 -69 -26.5t-2 -82.5zM1057 70h870
q52 6 74 40t22 115v983q0 87 -34.5 122.5t-100.5 35.5h-411q-61 0 -88 -30.5t-48 -116.5zM2232 225q0 -81 22.5 -115t74.5 -40h528q52 6 74 40t22 115v983q0 87 -34.5 122.5t-100.5 35.5h-451q-66 0 -100.5 -35.5t-34.5 -122.5v-983zM3162 225q0 -81 22 -115t74 -40h529
q52 6 74 40t22 115v983q0 87 -34.5 122.5t-100.5 35.5h-451q-66 0 -100.5 -35.5t-34.5 -122.5v-983z" />
    <glyph glyph-name="uni2168" unicode="&#x2168;" horiz-adv-x="2375" 
d="M115 1366v68h2130v-68h-144q-43 0 -73.5 -26.5t-73.5 -100.5l-277 -469l305 -594q32 -63 59 -85.5t68 -22.5h154v-68h-2148v68h262q75 0 105 32t30 125v983q0 87 -34.5 122.5t-100.5 35.5h-262zM721 225q0 -93 30 -125t105 -32h197q44 0 73 25.5t74 101.5l293 497
l-291 565q-33 62 -59.5 85.5t-67.5 23.5h-219q-66 0 -100.5 -35.5t-34.5 -122.5v-983zM1350 215q-35 -61 -22.5 -104t63.5 -43h329q41 0 52.5 30.5t-13.5 77.5l-196 383h-19zM1425 1257l183 -354h18l178 314q35 63 23.5 106t-64.5 43h-299q-41 0 -52.5 -31t13.5 -78z" />
    <glyph glyph-name="uni2169" unicode="&#x2169;" 
d="M27 1366v68h1134v-68h-53q-43 0 -73.5 -26.5t-73.5 -100.5l-277 -469l305 -594q32 -63 59 -85.5t68 -22.5h45v-68h-1134v68h32q44 0 73.5 25.5t74.5 101.5l293 497l-291 565q-33 62 -59.5 85.5t-67.5 23.5h-55zM356 215q-35 -61 -22.5 -104t63.5 -43h330q41 0 52.5 30.5
t-13.5 77.5l-197 383h-18zM432 1257l182 -354h19l178 314q35 63 23.5 106t-64.5 43h-299q-41 0 -52.5 -31t13.5 -78z" />
    <glyph glyph-name="uni216C" unicode="&#x216c;" 
d="M72 1366v68h594v-68h-113q-58 0 -76 -25.5t-18 -91.5v-1044q0 -62 24 -84.5t90 -22.5h185q143 0 200.5 43.5t81.5 177.5h68l-21 -319h-1015v68h84q56 0 75 24.5t19 91.5v1065q0 66 -18 91.5t-76 25.5h-84z" />
    <glyph glyph-name="uni216D" unicode="&#x216d;" 
d="M688 -33q-273 0 -426 193.5t-153 535.5q0 177 47 322.5t130 242.5t197.5 150t249.5 53q86 0 173.5 -22.5t142.5 -57.5l16 -272h-61q-44 124 -126.5 183t-185.5 59q-58 0 -109.5 -20t-99.5 -67.5t-82 -118.5t-54.5 -180.5t-20.5 -246.5q0 -643 368 -643q120 0 205.5 72.5
t140.5 238.5h58l-8 -270q-75 -65 -180 -108.5t-222 -43.5z" />
    <glyph glyph-name="uni216E" unicode="&#x216e;" 
d="M31 1366v68h465q130 0 231.5 -34.5t170 -95t113 -149t64 -191.5t19.5 -227q0 -166 -37.5 -299.5t-112.5 -232t-195.5 -152t-279.5 -53.5h-438v68h53q56 0 75 24.5t19 91.5v1065q0 66 -18 91.5t-76 25.5h-53zM387 215q0 -68 22 -92.5t91 -24.5h20q122 0 203 78t117.5 215
t36.5 332q0 289 -95 450.5t-293 161.5h-102v-1120z" />
    <glyph glyph-name="uni216F" unicode="&#x216f;" 
d="M33 0v68h14q60 0 82.5 38t22.5 134v1024q0 50 -12.5 72t-47.5 22h-59v76h366l174 -1004h23l182 1004h377v-68h-53q-38 0 -52 -28t-14 -99v-1024q0 -92 17 -119.5t71 -27.5h31v-68h-430v68h55q54 0 71 27.5t17 119.5v1092h-22l-207 -1172h-150l-204 1172h-25v-1067
q0 -96 22.5 -134t82.5 -38h47v-68h-379z" />
    <glyph glyph-name="arrowleft" unicode="&#x2190;" 
d="M621 1159q-67 -185 -70 -430l395 55q71 10 110.5 -17.5t39.5 -80.5q0 -51 -39.5 -78.5t-110.5 -17.5l-395 57q3 -245 70 -430h-78q-24 81 -46.5 138t-61.5 117t-87 96.5t-121 59.5t-166 23v74q93 0 166 23t121 59.5t87 96.5t61.5 117t46.5 138h78z" />
    <glyph glyph-name="arrowup" unicode="&#x2191;" 
d="M123 963q57 17 100 32.5t90.5 39t81.5 50t66 64t52 82.5t32 104t12 129h74q0 -70 12 -129t32 -104t52 -82.5t66 -64t81.5 -50t90.5 -39t100 -32.5v-78q-185 66 -436 69l69 -878q4 -49 -24 -79t-78 -30q-51 0 -79 29.5t-25 79.5l67 878q-251 -3 -436 -69v78z" />
    <glyph glyph-name="arrowright" unicode="&#x2192;" 
d="M645 1159q20 -67 38.5 -116t46 -102.5t63 -89.5t82.5 -66t110 -45t141 -15v-74q-78 0 -141 -15t-110 -45t-82.5 -66t-63 -89.5t-46 -102.5t-38.5 -116h-78q67 185 70 430l-395 -57q-71 -10 -110.5 17.5t-39.5 78.5q0 53 39.5 80.5t110.5 17.5l395 -55q-3 245 -70 430h78z
" />
    <glyph glyph-name="arrowdown" unicode="&#x2193;" 
d="M123 549q188 -67 436 -70l-67 879q-3 50 25 79t79 29q50 0 78 -29.5t24 -78.5l-69 -879q248 3 436 70v-78q-81 -24 -138.5 -47.5t-117 -63.5t-96 -90.5t-59.5 -127t-23 -173.5h-74q0 97 -23 173.5t-59.5 127t-96 90.5t-117 63.5t-138.5 47.5v78z" />
    <glyph glyph-name="uni2196" unicode="&#x2196;" 
d="M809 1372q-174 -80 -358 -258l647 -557q37 -32 38 -73t-34 -78q-35 -34 -77 -33t-73 37l-551 655q-181 -187 -258 -358l-55 55q41 74 65 131t38 127.5t4 132t-47.5 131.5t-106.5 139l51 54q69 -69 140 -107t132.5 -48t132 3.5t127.5 37.5t130 64z" />
    <glyph glyph-name="uni2197" unicode="&#x2197;" 
d="M434 1427q73 -40 130 -64t127.5 -37.5t132 -3.5t132.5 48t140 107l51 -54q-69 -69 -106.5 -139t-47.5 -131.5t4 -132t38 -127.5t65 -131l-56 -55q-77 171 -258 358l-550 -655q-31 -36 -73 -37t-77 33q-35 37 -34 78t38 73l647 557q-184 178 -358 258z" />
    <glyph glyph-name="uni2198" unicode="&#x2198;" 
d="M379 61q174 80 358 258l-647 558q-37 32 -38 73t34 78q35 34 77 33t73 -37l550 -655q181 187 258 358l56 -55q-41 -74 -65 -131.5t-38 -127.5t-4 -131.5t47.5 -132t106.5 -139.5l-51 -53q-69 69 -140 107t-132.5 48t-132 -4t-127.5 -38t-130 -64z" />
    <glyph glyph-name="uni2199" unicode="&#x2199;" 
d="M754 4q-73 40 -130 64t-127.5 38t-132 4t-132.5 -48t-140 -107l-51 53q69 69 106.5 139.5t47.5 132t-4 131.5t-38 127.5t-65 131.5l55 55q77 -171 258 -358l551 655q31 36 73 37t77 -33q35 -37 34 -78.5t-38 -73.5l-647 -557q184 -178 358 -258z" />
    <glyph glyph-name="minus" unicode="&#x2212;" 
d="M127 664v143h934v-143h-934z" />
    <glyph glyph-name="notequal" unicode="&#x2260;" 
d="M305 219l98 240h-276v143h334l110 266h-444v144h502l98 239h156l-99 -239h277v-144h-334l-111 -266h445v-143h-502l-98 -240h-156z" />
    <glyph glyph-name="angleleft" unicode="&#x2329;" 
d="M911 -471l-809 952l809 953h174l-790 -953l790 -952h-174z" />
    <glyph glyph-name="angleright" unicode="&#x232a;" 
d="M276 1434l809 -953l-809 -952h-174l791 952l-791 953h174z" />
    <glyph glyph-name="uni2460" unicode="&#x2460;" 
d="M594 -16q-119 0 -223.5 55t-179 151.5t-117.5 233t-43 293.5t43 293.5t117.5 233t179 151.5t223.5 55t223.5 -55t179 -151.5t117.5 -233t43 -293.5t-43 -293.5t-117.5 -233t-179 -151.5t-223.5 -55zM147 717q0 -277 127 -455t320 -178q127 0 228.5 80t159.5 225t58 328
t-58 328t-159.5 225t-228.5 80q-193 0 -320 -178t-127 -455zM322 893v84l317 133h74v-623q0 -48 18.5 -64.5t61.5 -16.5h45v-58h-432v58h69q43 0 61.5 16.5t18.5 64.5v455q0 25 -10.5 31t-38.5 -6z" />
    <glyph glyph-name="uni2461" unicode="&#x2461;" 
d="M594 -16q-119 0 -223.5 55t-179 151.5t-117.5 233t-43 293.5t43 293.5t117.5 233t179 151.5t223.5 55t223.5 -55t179 -151.5t117.5 -233t43 -293.5t-43 -293.5t-117.5 -233t-179 -151.5t-223.5 -55zM147 717q0 -277 127 -455t320 -178q127 0 228.5 80t159.5 225t58 328
t-58 328t-159.5 225t-228.5 80q-193 0 -320 -178t-127 -455zM299 348v78l260 205q75 57 114.5 109t39.5 120q0 63 -37.5 96t-100.5 33q-74 0 -128 -37.5t-64 -95.5h-59q12 107 94 180.5t203 73.5q108 0 175.5 -58t67.5 -151q0 -49 -18 -93t-53 -83t-64 -64.5t-74 -58.5
l-166 -125v-8h238q61 0 82 21.5t27 78.5h55l-12 -221h-580z" />
    <glyph glyph-name="uni2462" unicode="&#x2462;" 
d="M594 -16q-119 0 -223.5 55t-179 151.5t-117.5 233t-43 293.5t43 293.5t117.5 233t179 151.5t223.5 55t223.5 -55t179 -151.5t117.5 -233t43 -293.5t-43 -293.5t-117.5 -233t-179 -151.5t-223.5 -55zM147 717q0 -277 127 -455t320 -178q127 0 228.5 80t159.5 225t58 328
t-58 328t-159.5 225t-228.5 80q-193 0 -320 -178t-127 -455zM281 489q0 39 20 59.5t55 20.5t53.5 -21.5t20.5 -58.5q3 -46 37.5 -73t93.5 -27q73 0 114.5 42t41.5 112q0 135 -170 135q-69 0 -123 -14v81q156 36 219.5 71.5t63.5 90.5q0 44 -36 69t-104 25q-75 0 -127 -33
t-69 -91h-62q12 101 98 167t203 66q112 0 176 -51.5t64 -124.5q0 -139 -250 -189v-10q113 18 189.5 -29t76.5 -147q0 -106 -88 -171.5t-223 -65.5q-114 0 -194 45t-80 122z" />
    <glyph glyph-name="uni2463" unicode="&#x2463;" 
d="M594 -16q-119 0 -223.5 55t-179 151.5t-117.5 233t-43 293.5t43 293.5t117.5 233t179 151.5t223.5 55t223.5 -55t179 -151.5t117.5 -233t43 -293.5t-43 -293.5t-117.5 -233t-179 -151.5t-223.5 -55zM147 717q0 -277 127 -455t320 -178q127 0 228.5 80t159.5 225t58 328
t-58 328t-159.5 225t-228.5 80q-193 0 -320 -178t-127 -455zM197 575v66l475 469h78v-436h61q35 0 50.5 13.5t15.5 45.5v25h59v-260h-59v18q0 32 -15.5 45.5t-50.5 13.5h-61v-120q0 -27 15 -38t48 -11h45v-58h-356v58h45q32 0 47.5 11t15.5 38v120h-413zM358 674h252v252h-6
l-246 -246v-6z" />
    <glyph glyph-name="uni2464" unicode="&#x2464;" 
d="M594 -16q-119 0 -223.5 55t-179 151.5t-117.5 233t-43 293.5t43 293.5t117.5 233t179 151.5t223.5 55t223.5 -55t179 -151.5t117.5 -233t43 -293.5t-43 -293.5t-117.5 -233t-179 -151.5t-223.5 -55zM147 717q0 -277 127 -455t320 -178q127 0 228.5 80t159.5 225t58 328
t-58 328t-159.5 225t-228.5 80q-193 0 -320 -178t-127 -455zM279 489q0 39 20 59.5t55 20.5t53.5 -21.5t20.5 -58.5q3 -46 35.5 -73t87.5 -27q78 0 119 51t41 127q0 73 -40.5 115.5t-111.5 42.5q-43 0 -86 -17t-70 -40h-75l41 413h485v-200h-57q-2 51 -10.5 64t-45.5 13
h-301l-20 -210h8q86 65 188 65t172 -62t70 -163q0 -118 -84.5 -192t-222.5 -74q-115 0 -193.5 45t-78.5 122z" />
    <glyph glyph-name="uni2465" unicode="&#x2465;" 
d="M594 -16q-119 0 -223.5 55t-179 151.5t-117.5 233t-43 293.5t43 293.5t117.5 233t179 151.5t223.5 55t223.5 -55t179 -151.5t117.5 -233t43 -293.5t-43 -293.5t-117.5 -233t-179 -151.5t-223.5 -55zM147 717q0 -277 127 -455t320 -178q127 0 228.5 80t159.5 225t58 328
t-58 328t-159.5 225t-228.5 80q-193 0 -320 -178t-127 -455zM274 612q0 91 32.5 169.5t87 134.5t127.5 98.5t152 65.5t161 30v-63q-139 -17 -248.5 -102.5t-139.5 -170.5h13q62 45 166 45q116 0 193 -64t77 -169q0 -111 -89.5 -187.5t-221.5 -76.5t-221 76t-89 214zM428 578
q0 -75 43.5 -125t120.5 -50q70 0 110.5 44.5t40.5 117.5q0 75 -44 125.5t-119 50.5q-71 0 -111.5 -45.5t-40.5 -117.5z" />
    <glyph glyph-name="uni2466" unicode="&#x2466;" 
d="M594 -16q-119 0 -223.5 55t-179 151.5t-117.5 233t-43 293.5t43 293.5t117.5 233t179 151.5t223.5 55t223.5 -55t179 -151.5t117.5 -233t43 -293.5t-43 -293.5t-117.5 -233t-179 -151.5t-223.5 -55zM147 717q0 -277 127 -455t320 -178q127 0 228.5 80t159.5 225t58 328
t-58 328t-159.5 225t-228.5 80q-193 0 -320 -178t-127 -455zM309 872l19 209h590v-22l-402 -721h-119l346 610h-297q-50 0 -61 -12.5t-16 -63.5h-60z" />
    <glyph glyph-name="uni2467" unicode="&#x2467;" 
d="M594 -16q-119 0 -223.5 55t-179 151.5t-117.5 233t-43 293.5t43 293.5t117.5 233t179 151.5t223.5 55t223.5 -55t179 -151.5t117.5 -233t43 -293.5t-43 -293.5t-117.5 -233t-179 -151.5t-223.5 -55zM147 717q0 -277 127 -455t320 -178q127 0 228.5 80t159.5 225t58 328
t-58 328t-159.5 225t-228.5 80q-193 0 -320 -178t-127 -455zM276 526q0 60 40.5 109t123.5 80q-121 50 -121 178q0 99 82.5 158t219.5 59q123 0 197.5 -52t74.5 -128q0 -57 -39.5 -105t-114.5 -80q77 -30 116.5 -71t39.5 -107q0 -97 -87.5 -171t-236.5 -74q-132 0 -213.5 57
t-81.5 147zM408 543q0 -60 49.5 -97.5t132.5 -37.5q78 0 125 33.5t47 86.5q0 40 -31 65.5t-94 47.5l-131 49q-51 -26 -74.5 -65.5t-23.5 -81.5zM453 920q0 -33 22 -56t74 -45l121 -45q92 57 92 139q0 53 -42.5 82t-111.5 29q-68 0 -111.5 -28.5t-43.5 -75.5z" />
    <glyph glyph-name="uni2468" unicode="&#x2468;" 
d="M594 -16q-119 0 -223.5 55t-179 151.5t-117.5 233t-43 293.5t43 293.5t117.5 233t179 151.5t223.5 55t223.5 -55t179 -151.5t117.5 -233t43 -293.5t-43 -293.5t-117.5 -233t-179 -151.5t-223.5 -55zM147 717q0 -277 127 -455t320 -178q127 0 228.5 80t159.5 225t58 328
t-58 328t-159.5 225t-228.5 80q-193 0 -320 -178t-127 -455zM289 846q0 111 89.5 187.5t221.5 76.5t220.5 -76.5t88.5 -214.5q0 -91 -32.5 -169.5t-87 -134.5t-127 -98t-151.5 -65t-161 -30v63q140 19 248.5 103t138.5 169h-12q-62 -45 -166 -45q-116 0 -193 64.5t-77 169.5
zM440 866q0 -75 44 -125.5t120 -50.5q71 0 111.5 46t40.5 120t-43.5 123t-120.5 49q-70 0 -111 -44t-41 -118z" />
    <glyph glyph-name="uni24EA" unicode="&#x24ea;" 
d="M594 -16q-119 0 -223.5 55t-179 151.5t-117.5 233t-43 293.5t43 293.5t117.5 233t179 151.5t223.5 55t223.5 -55t179 -151.5t117.5 -233t43 -293.5t-43 -293.5t-117.5 -233t-179 -151.5t-223.5 -55zM147 717q0 -277 127 -455t320 -178q127 0 228.5 80t159.5 225t58 328
t-58 328t-159.5 225t-228.5 80q-193 0 -320 -178t-127 -455zM270 707q0 94 29 172t77 127.5t107 76.5t121 27q129 0 220 -105.5t91 -277.5q0 -95 -29 -173.5t-77 -128t-106.5 -76.5t-120.5 -27q-129 0 -220.5 106t-91.5 279zM436 711q0 -308 154 -308q160 0 160 318
q0 307 -154 307q-160 0 -160 -317z" />
    <glyph glyph-name="uni24FF" unicode="&#x24ff;" 
d="M594 -16q119 0 223.5 55t179 151.5t117.5 233t43 293.5t-43 293.5t-117.5 233t-179 151.5t-223.5 55t-223.5 -55t-179 -151.5t-117.5 -233t-43 -293.5t43 -293.5t117.5 -233t179 -151.5t223.5 -55zM307 707q0 84 26 153.5t68.5 113.5t95 67.5t107.5 23.5q114 0 194.5 -94
t80.5 -246q0 -84 -26 -153.5t-68.5 -113.5t-95 -67.5t-107.5 -23.5q-114 0 -194.5 94t-80.5 246zM455 713q0 -149 35 -212t100 -63q141 0 141 283q0 147 -35 209.5t-100 62.5q-141 0 -141 -280z" />
    <glyph glyph-name="uni2776" unicode="&#x2776;" 
d="M594 -16q119 0 223.5 55t179 151.5t117.5 233t43 293.5t-43 293.5t-117.5 233t-179 151.5t-223.5 55t-223.5 -55t-179 -151.5t-117.5 -233t-43 -293.5t43 -293.5t117.5 -233t179 -151.5t223.5 -55zM352 872v76l283 117h65v-551q0 -43 16 -58.5t56 -15.5h39v-51h-383v51
h59q39 0 56.5 16t17.5 58v404q0 22 -10 26.5t-35 -4.5z" />
    <glyph glyph-name="uni2777" unicode="&#x2777;" 
d="M594 -16q119 0 223.5 55t179 151.5t117.5 233t43 293.5t-43 293.5t-117.5 233t-179 151.5t-223.5 55t-223.5 -55t-179 -151.5t-117.5 -233t-43 -293.5t43 -293.5t117.5 -233t179 -151.5t223.5 -55zM332 389v70l231 180q66 51 100.5 97t34.5 108q0 56 -32 85t-88 29
q-65 0 -114 -33t-56 -85h-56q12 96 84.5 160.5t179.5 64.5q97 0 158.5 -50.5t61.5 -133.5q0 -44 -16 -83t-48.5 -74.5t-57.5 -57t-67 -52.5l-147 -110v-6h213q54 0 72.5 19.5t23.5 68.5h49l-12 -197h-514z" />
    <glyph glyph-name="uni2778" unicode="&#x2778;" 
d="M594 -16q119 0 223.5 55t179 151.5t117.5 233t43 293.5t-43 293.5t-117.5 233t-179 151.5t-223.5 55t-223.5 -55t-179 -151.5t-117.5 -233t-43 -293.5t43 -293.5t117.5 -233t179 -151.5t223.5 -55zM322 516q0 70 67 70q31 0 47.5 -19t18.5 -51q1 -43 31 -66.5t83 -23.5
q66 0 103 37t37 98q0 121 -150 121q-56 0 -110 -12v73q137 32 194 63t57 79q0 39 -31 61.5t-91 22.5q-68 0 -115 -29t-62 -80h-53q10 89 86.5 147t179.5 58q99 0 156 -45.5t57 -110.5q0 -121 -223 -166v-10q101 16 169.5 -26.5t68.5 -131.5q0 -93 -78 -150.5t-199 -57.5
q-102 0 -172.5 40t-70.5 109z" />
    <glyph glyph-name="uni2779" unicode="&#x2779;" 
d="M594 -16q119 0 223.5 55t179 151.5t117.5 233t43 293.5t-43 293.5t-117.5 233t-179 151.5t-223.5 55t-223.5 -55t-179 -151.5t-117.5 -233t-43 -293.5t43 -293.5t117.5 -233t179 -151.5t223.5 -55zM240 592v57l422 418h69v-387h53q33 0 46.5 11t13.5 40v23h53v-232h-53
v17q0 28 -14 40.5t-46 12.5h-53v-107q0 -45 55 -45h41v-51h-317v51h41q55 0 55 45v107h-366zM383 680h223v223h-4l-219 -219v-4z" />
    <glyph glyph-name="uni277A" unicode="&#x277a;" 
d="M594 -16q119 0 223.5 55t179 151.5t117.5 233t43 293.5t-43 293.5t-117.5 233t-179 151.5t-223.5 55t-223.5 -55t-179 -151.5t-117.5 -233t-43 -293.5t43 -293.5t117.5 -233t179 -151.5t223.5 -55zM324 516q0 34 17.5 52t47.5 18q33 0 49.5 -19t16.5 -51q3 -43 32 -66.5
t78 -23.5q69 0 106.5 45.5t37.5 112.5q0 65 -37 102t-101 37q-38 0 -76 -15t-61 -36h-67l36 368h431v-178h-52q0 45 -7.5 57.5t-41.5 12.5h-266l-18 -187h6q86 58 170 58q91 0 153 -55t62 -146q0 -105 -75.5 -170t-199.5 -65q-103 0 -172 40t-69 109z" />
    <glyph glyph-name="uni277B" unicode="&#x277b;" 
d="M594 -16q119 0 223.5 55t179 151.5t117.5 233t43 293.5t-43 293.5t-117.5 233t-179 151.5t-223.5 55t-223.5 -55t-179 -151.5t-117.5 -233t-43 -293.5t43 -293.5t117.5 -233t179 -151.5t223.5 -55zM309 623q0 81 29 151t77 120t112.5 87.5t134.5 57.5t143 26v-55
q-123 -16 -220.5 -91.5t-123.5 -150.5h12q56 41 148 41q102 0 170.5 -57t68.5 -152q0 -98 -79.5 -165.5t-196.5 -67.5t-196 67t-79 189zM446 592q0 -66 38.5 -110t105.5 -44q64 0 100.5 39.5t36.5 104.5q0 67 -40 111t-107 44q-63 0 -98.5 -39.5t-35.5 -105.5z" />
    <glyph glyph-name="uni277C" unicode="&#x277c;" 
d="M594 -16q119 0 223.5 55t179 151.5t117.5 233t43 293.5t-43 293.5t-117.5 233t-179 151.5t-223.5 55t-223.5 -55t-179 -151.5t-117.5 -233t-43 -293.5t43 -293.5t117.5 -233t179 -151.5t223.5 -55zM342 854l16 186h525v-18l-357 -643h-106l307 545h-264
q-42 0 -52.5 -12.5t-15.5 -57.5h-53z" />
    <glyph glyph-name="uni277D" unicode="&#x277d;" 
d="M594 -16q119 0 223.5 55t179 151.5t117.5 233t43 293.5t-43 293.5t-117.5 233t-179 151.5t-223.5 55t-223.5 -55t-179 -151.5t-117.5 -233t-43 -293.5t43 -293.5t117.5 -233t179 -151.5t223.5 -55zM276 526q0 60 40.5 109t123.5 80q-121 50 -121 176q0 101 82.5 160
t219.5 59q123 0 197.5 -52.5t74.5 -129.5q0 -56 -39 -103.5t-115 -79.5q78 -32 117 -72t39 -106q0 -98 -87 -171.5t-237 -73.5q-132 0 -213.5 57t-81.5 147zM408 543q0 -60 49.5 -97.5t132.5 -37.5q78 0 125 33.5t47 86.5q0 40 -30.5 64t-94.5 49l-131 47q-98 -50 -98 -145z
M453 920q0 -33 22 -56t74 -45l121 -45q92 57 92 139q0 52 -42.5 81.5t-111.5 29.5q-68 0 -111.5 -29t-43.5 -75z" />
    <glyph glyph-name="uni277E" unicode="&#x277e;" 
d="M594 -16q119 0 223.5 55t179 151.5t117.5 233t43 293.5t-43 293.5t-117.5 233t-179 151.5t-223.5 55t-223.5 -55t-179 -151.5t-117.5 -233t-43 -293.5t43 -293.5t117.5 -233t179 -151.5t223.5 -55zM324 831q0 98 79.5 166t196.5 68t195.5 -67t78.5 -189q0 -81 -28.5 -151
t-77 -120t-112.5 -87.5t-134 -57.5t-143 -26v55q123 16 220.5 91.5t123.5 150.5h-12q-56 -41 -148 -41q-102 0 -170.5 57.5t-68.5 150.5zM457 850q0 -66 39.5 -111t105.5 -45q64 0 99.5 40t35.5 106q0 67 -38 110t-105 43q-64 0 -100.5 -39t-36.5 -104z" />
    <glyph glyph-name="uni300A" unicode="&#x300a;" 
d="M578 -471l-476 952l476 953h151l-465 -953l465 -952h-151zM459 481l475 953h151l-464 -953l464 -952h-151z" />
    <glyph glyph-name="uni300B" unicode="&#x300b;" 
d="M610 1434l475 -953l-475 -952h-151l465 952l-465 953h151zM102 -471l465 952l-465 953h152l475 -953l-475 -952h-152z" />
    <glyph glyph-name="uni300C" unicode="&#x300c;" 
d="M348 473v961h656v-68h-332q-76 0 -105.5 -30t-29.5 -107v-756h-189z" />
    <glyph glyph-name="uni300D" unicode="&#x300d;" 
d="M840 694v-960h-656v67h332q76 0 105.5 30.5t29.5 107.5v755h189z" />
    <glyph glyph-name="uni300E" unicode="&#x300e;" 
d="M242 473v961h704v-246h-282v-715h-422zM393 541h119v714h283v111h-402v-825z" />
    <glyph glyph-name="uni300F" unicode="&#x300f;" 
d="M946 489v-960h-704v246h282v714h422zM393 -403h402v825h-119v-715h-283v-110z" />
    <glyph glyph-name="uni3010" unicode="&#x3010;" 
d="M379 -471v1905h532v-48q-114 -66 -201 -165.5t-140 -218.5t-79 -250t-26 -271t26 -271t79 -250t140 -218.5t201 -165.5v-47h-532z" />
    <glyph glyph-name="uni3011" unicode="&#x3011;" 
d="M809 1434v-1905h-533v47q114 66 201 165.5t140 218.5t79.5 250t26.5 271t-26.5 271t-79.5 250t-140 218.5t-201 165.5v48h533z" />
    <glyph glyph-name="uni3014" unicode="&#x3014;" 
d="M1004 -502l-656 238v1491l656 237v-88l-359 -131q-64 -24 -86 -50.5t-22 -90.5v-1245q0 -64 22 -91t86 -51l359 -131v-88z" />
    <glyph glyph-name="uni3015" unicode="&#x3015;" 
d="M184 1464l656 -237v-1491l-656 -238v88l359 131q64 24 86 51t22 91v1245q0 64 -22 90.5t-86 50.5l-359 131v88z" />
    <glyph glyph-name="uniF8FF" unicode="&#xf8ff;" horiz-adv-x="2375" 
d="M698 125q54 8 -36 -75l-3 -3q0 -2 2 -2q4 -1 9 -4q6 -4 26 -4l49 55q17 10 21 -4.5t-2 -34.5q87 28 117 68q28 35 -0.5 71.5t-73.5 34.5q-34 -1 -68 -29t-57 -63q-4 -6 -14 -18t-13 -17q8 6 25 15.5t18 9.5zM162 858q5 55 35.5 90t72.5 21q67 -25 69 -30q2 -4 -13 -18
q-33 -29 -47 -73q-16 -35 -5 -86l19 -98q3 -8 10.5 -33t11.5 -36.5t11.5 -30.5t16 -33t17.5 -25l9 -8q1 3 4 9t4 9q7 18 45 55q42 45 107.5 50.5t101.5 -27.5q-3 116 49 270q14 38 21.5 75t9 89t2 74t-3.5 94t-4 84q-3 59 26 83t84 5q11 -3 24.5 -10.5t22.5 -14t22.5 -17
t14.5 -11.5q16 -12 50.5 -43.5t58 -46t47.5 -13.5q31 0 97.5 10t100.5 11q24 1 65 -2.5t72 -3.5t52 8q19 7 39.5 30.5t50 68.5t37.5 55q11 15 30 41.5t26.5 36.5t21.5 27.5t22 23.5t19.5 14.5t22.5 11t24 2.5q26 0 43.5 -13.5t28 -40.5t17.5 -59.5t14 -76.5q0 -5 0.5 -7.5
t1 -6.5t1.5 -7q3 -23 6.5 -64.5t7.5 -74.5t9 -59q2 -7 4 -12t7 -11t8 -9t14.5 -12.5t17.5 -15.5q14 -12 33 -35.5t20 -25.5q99 -96 113 -221q13 -95 -23 -224q-5 -20 -12.5 -39t-19.5 -47.5t-15 -35.5l-10 -17q7 -4 54.5 -28t75 -46.5t46.5 -56.5q91 -168 -12 -242
q-60 -45 -120 -29.5t-100.5 54t-80 74.5t-58.5 32q-28 -6 -86.5 -41.5t-81.5 -46.5q-111 -50 -190 -67q-112 -28 -227 -28t-209 40q-5 2 -15 6.5t-14 6t-11 4t-11.5 3.5t-9.5 0.5t-9 -1.5q-9 -2 -29 -21t-32 -27q-56 -35 -112 -48.5t-138 -10.5q-59 42 -61 112t53 128
q4 4 15 15.5t18 18t17.5 16.5t21.5 17t22 13q7 3 15 7t11.5 5.5l7 3t4.5 3t1 3.5q-3 5 -9.5 5.5t-21.5 -4t-29 -10t-31 -11.5t-28 -9q-165 -48 -231 35q-12 19 -23 45q-1 0 -33 8q-47 13 -90 80q-63 89 -89 201.5t-9 216.5zM444 479q-1 -17 8.5 -22.5t24.5 2.5q10 5 32 14
t32.5 15t21.5 19t15 32q-73 -4 -95 -19q-36 -24 -39 -41zM514 379h6q5 -2 20 0t23 3.5t24 5.5t23 5q40 12 68 23q-1 1 -2.5 6t-4.5 12.5t-7 16.5l-13 30q-10 -26 -33 -42t-55 -30.5t-49 -29.5zM754 768q0 6 1 17.5t1 17.5q-34 -48 -42.5 -113.5t4 -127.5t40.5 -116
q5 -9 55 -84q5 -8 19.5 -39t27.5 -47q5 -6 16.5 -17t16.5 -17q2 -3 8.5 -13t12 -18t8.5 -10q18 -14 46 -3t42 5q-10 -30 4 -52.5t42.5 -33.5t66.5 -17t71 -7.5t61 -2.5h17q175 19 311 74q130 54 226.5 150t150.5 227q56 135 29 270q-1 5 -2.5 18t-3 20t-4.5 17.5t-7 18.5
q-7 10 -24.5 30.5t-22.5 26.5q-49 67 -100 92q-4 -25 -19 -28q-12 -3 -15.5 0t-2 9.5t-2.5 12.5q-4 8 -8.5 23t-11 26.5t-17.5 20.5q-45 38 -147 47q-57 5 -74 0q-20 -5 -32.5 -25t-18.5 -24q-15 -10 -22 -6t-8.5 10t-3 16.5t-3.5 13.5q-3 6 -7.5 9.5t-7 5.5t-9 3t-9 1
h-11.5h-12q-63 4 -145.5 2t-142.5 -21q-121 -39 -230 -133q-70 -62 -78 -127q-1 -9 1.5 -31t3.5 -37.5t-8 -26t-31 -7.5zM793 981q33 43 76.5 74.5t107.5 69.5q9 5 14 8q-121 109 -198 153q-2 -30 1 -84t3 -72q0 -19 -2.5 -70t-1.5 -79zM799 455q7 12 58 32t56 23
q22 15 55 53t38 43q18 21 24 21q8 0 12 -17q3 -10 -28 -49q-2 -2 -8.5 -11.5t-8.5 -12t-8 -11t-8 -12t-6.5 -11t-5.5 -12.5t-3.5 -12t-3 -13t-0.5 -13.5t1 -14.5q9 -54 60 -99.5t112 -74.5q102 -47 258 -14q163 38 233 94q20 16 45.5 53t32.5 45q27 34 27 6q0 -33 -19 -63
q-36 -54 -92.5 -92.5t-123 -58.5t-130.5 -28.5t-131 -8.5q-77 13 -135.5 41t-110.5 81q-15 14 -38.5 62t-43.5 57q-19 3 -21 4.5t-15.5 -4.5t-20.5 -8q-16 -7 -41.5 -3.5t-9.5 28.5zM879 793q6 133 135 176q41 10 84 7t79 -30.5t44 -71.5q4 -14 1.5 -26.5t-20.5 -11.5
q-6 0 -11.5 7.5t-11.5 20t-8 15.5q-23 34 -50 48.5t-66 8.5q-28 -3 -59.5 -19t-51.5 -38q-9 -7 -19 -32t-21 -41.5t-25 -12.5zM1106 629q38 110 138.5 157t207.5 -4q-2 -4 19.5 -27t47.5 -49t31 -34q45 -63 31 -160q-11 -84 -85 -124t-165 -40q-142 23 -213 84
q-22 19 -32 41.5t-6.5 52t9 49t17.5 54.5zM1159 449q75 -58 234 -58q76 13 113.5 63t31.5 130q-1 34 -14.5 57.5t-42.5 50.5q-6 6 -18 19t-19 19.5t-18 15.5t-22.5 14.5t-23.5 7.5q-59 13 -111.5 -13.5t-88.5 -78.5q-110 -155 -21 -227zM1198 524q9 -10 23 -15t24 -5t29 1
t26 1q11 19 16.5 32t5.5 31.5t-11 34.5q-30 48 -88 12q-22 -14 -32.5 -26t-10.5 -29t18 -37zM1376 518q17 1 51 4t52 4q8 63 0 84q-11 30 -54 29q-10 0 -18 -3t-13 -8.5t-9 -11t-6 -15t-3.5 -15.5t-1.5 -18v-17t1 -18t1 -15zM1405 940q22 51 65 76q46 28 108 28t95 -36
q24 -27 33.5 -48.5t9.5 -54.5q0 -19 -1.5 -29.5t-10.5 -20.5t-27 -7q-4 10 -4.5 18.5t1 18.5t1.5 16q-3 15 -16 51q-9 23 -24.5 34.5t-35 13t-43.5 -0.5q-64 -4 -92 -32q-22 -25 -28 -54q-1 -3 -3.5 -23.5t-7.5 -23.5q-28 -21 -28 24q1 30 8 50zM1530 1192q130 -8 248 -59
q-1 15 -4 52.5t-6.5 62.5t-10.5 50q-2 10 -5 46t-8.5 62.5t-17.5 31.5q-17 7 -57 -42t-89 -126zM1628 670q11 39 55 94q164 131 256 -12q36 -54 9 -124t-93 -85q-70 -15 -126.5 29.5t-26.5 115.5q23 52 82 62q54 10 82 -23q25 -30 6 -80q-15 -38 -48 -48.5t-59 26.5
q-10 12 -5 34t22 31q27 16 32 -5q4 -21 -18 -40q12 -15 29 7q19 25 9 44q-9 17 -40 15q-33 -2 -51.5 -35t0.5 -62q24 -36 66 -36t75 28.5t37 67.5q6 60 -49 93.5t-111 4.5q-58 -30 -84 -86q-4 -7 -9 -54t-15 -52q-11 -3 -18 7t-8.5 27t-1 32t2.5 24zM1892 340
q-20 -19 -26 -36.5t4 -34.5t19 -27t33 -28.5t32 -25.5q49 -45 74 -57q-16 51 0 70q35 -26 65 -78q19 5 27 8q0 6 2 10q-2 3 -6 8q-57 76 -39 91q12 10 47 -29q-7 66 -62 100q-17 10 -82 39q-30 18 -46.5 16.5t-41.5 -26.5z" />
    <glyph glyph-name="fi" unicode="&#xfb01;" horiz-adv-x="2375" 
d="M178 0v61h123q84 0 127 36t43 120v623h-293v80h129q89 0 126.5 33t37.5 100v59q0 188 119 291.5t307 103.5q150 0 255 -69.5t105 -173.5q0 -55 -28.5 -83t-75.5 -28q-44 0 -68 25.5t-24 68.5q0 10 3 31t3 31q0 56 -49.5 90.5t-130.5 34.5q-115 0 -173.5 -66t-58.5 -194
v-232h422v-102h-422v-623q0 -84 43 -120t127 -36h189v-61h-836zM1397 0v68h123q170 0 170 155v496q0 155 -150 155h-143v68h770v-68h-144q-149 0 -149 -155v-496q0 -155 170 -155h123v-68h-770zM1645 1305q0 61 38.5 100t98.5 39q59 0 98 -39t39 -100t-39 -99.5t-98 -38.5
q-60 0 -98.5 38.5t-38.5 99.5z" />
    <glyph glyph-name="fl" unicode="&#xfb02;" horiz-adv-x="2375" 
d="M178 0v61h123q84 0 127 36t43 120v623h-293v80h129q89 0 126.5 33t37.5 100v59q0 188 119 291.5t307 103.5q150 0 255 -69.5t105 -173.5q0 -55 -28.5 -83t-75.5 -28q-44 0 -68 25.5t-24 68.5q0 10 3 31t3 31q0 56 -49.5 90.5t-130.5 34.5q-115 0 -173.5 -66t-58.5 -194
v-232h422v-102h-422v-623q0 -84 43 -120t127 -36h189v-61h-836zM1397 0v68h123q170 0 170 155v1030q0 76 -38 116t-112 40h-143v68h770v-68h-144q-149 0 -149 -156v-1030q0 -155 170 -155h123v-68h-770z" />
    <glyph glyph-name="b.ss01" 
d="M164 1321q0 54 -18.5 74t-69.5 20h-35v62h307v-676h4q48 71 132.5 115.5t187.5 44.5q182 0 297.5 -134t115.5 -346q0 -155 -72 -274t-183.5 -178.5t-239.5 -59.5q-183 0 -287 117l-92 -137h-47v1372zM348 279q0 -59 20.5 -103t55 -68t74 -35.5t82.5 -11.5
q138 0 225.5 100.5t87.5 284.5q0 179 -90.5 280t-224.5 101q-148 0 -230 -112v-436z" />
    <glyph glyph-name="d.ss01" 
d="M516 -33q-182 0 -298 133.5t-116 345.5q0 117 42 215.5t111.5 162t158.5 99t184 35.5q140 0 242 -77v440q0 54 -18.5 74t-69.5 20h-68v62h340v-1321q0 -51 25 -73t79 -22h39v-61h-323v127h-4q-52 -71 -136.5 -115.5t-187.5 -44.5zM295 481q0 -179 90.5 -280t224.5 -101
q147 0 230 113v434q0 59 -20.5 103.5t-55 68.5t-73.5 35.5t-83 11.5q-138 0 -225.5 -100.5t-87.5 -284.5z" />
    <glyph glyph-name="dcaron.ss01" 
d="M455 -33q-182 0 -298 133.5t-116 345.5q0 117 42 215.5t111.5 162t158.5 99t184 35.5q139 0 241 -77v440q0 54 -18.5 74t-69.5 20h-67v62h340v-1321q0 -51 25 -73t79 -22h39v-61h-324v127h-4q-52 -72 -136 -116t-187 -44zM233 481q0 -179 91 -280t225 -101q146 0 229 113
v434q0 60 -20.5 104t-55 68t-73 35.5t-82.5 11.5q-138 0 -226 -100.5t-88 -284.5zM1096 1032v445h190l-153 -445h-37z" />
    <glyph glyph-name="dcroat.ss01" 
d="M516 -33q-182 0 -298 133.5t-116 345.5q0 117 42 215.5t111.5 162t158.5 99t184 35.5q140 0 242 -77v243h-254v103h254v94q0 54 -18.5 74t-69.5 20h-68v62h340v-250h164v-103h-164v-968q0 -51 25 -73t79 -22h39v-61h-323v127h-4q-52 -71 -136.5 -115.5t-187.5 -44.5z
M295 481q0 -179 90.5 -280t224.5 -101q147 0 230 113v434q0 59 -20.5 103.5t-55 68.5t-73.5 35.5t-83 11.5q-138 0 -225.5 -100.5t-87.5 -284.5z" />
    <glyph glyph-name="g.ss02" 
d="M481 -557q-199 0 -321.5 67t-122.5 175q0 66 50 120.5t149 106.5q-47 13 -83 55.5t-36 100.5q0 149 192 235q-76 46 -120 118.5t-44 160.5q0 106 57.5 193.5t151.5 135t201 47.5q95 0 178.5 -37t134.5 -102v12q0 86 50.5 137.5t132.5 51.5q66 0 104.5 -32t38.5 -85
q0 -39 -23 -60.5t-57 -21.5q-25 0 -42 13.5t-23.5 29.5t-20 29.5t-33.5 13.5q-53 0 -53 -86v-200q0 -106 -57.5 -193.5t-151.5 -135.5t-201 -48q-88 0 -165 30q-93 -49 -93 -118q0 -85 113 -82l422 6q112 2 188 -70t76 -188t-80 -203t-213.5 -131.5t-298.5 -44.5zM197 -287
q0 -83 81.5 -133.5t237.5 -50.5q179 0 298.5 60t119.5 165q0 63 -42.5 100.5t-113.5 39.5l-463 10q-118 -88 -118 -191zM330 598q0 -138 56.5 -211.5t152.5 -73.5q103 0 161 80t58 211q0 138 -56.5 211.5t-152.5 73.5q-103 0 -161 -80t-58 -211z" />
    <glyph glyph-name="gbreve.ss02" 
d="M481 -557q-199 0 -321.5 67t-122.5 175q0 66 50 120.5t149 106.5q-47 13 -83 55.5t-36 100.5q0 149 192 235q-76 46 -120 118.5t-44 160.5q0 106 57.5 193.5t151.5 135t201 47.5q95 0 178.5 -37t134.5 -102v12q0 86 50.5 137.5t132.5 51.5q66 0 104.5 -32t38.5 -85
q0 -39 -23 -60.5t-57 -21.5q-25 0 -42 13.5t-23.5 29.5t-20 29.5t-33.5 13.5q-53 0 -53 -86v-200q0 -106 -57.5 -193.5t-151.5 -135.5t-201 -48q-88 0 -165 30q-93 -49 -93 -118q0 -85 113 -82l422 6q112 2 188 -70t76 -188t-80 -203t-213.5 -131.5t-298.5 -44.5zM197 -287
q0 -83 81.5 -133.5t237.5 -50.5q179 0 298.5 60t119.5 165q0 63 -42.5 100.5t-113.5 39.5l-463 10q-118 -88 -118 -191zM279 1407h40q8 -101 74 -150t162 -49t162 49t74 150h40q0 -67 -16 -126.5t-48.5 -108t-86.5 -77t-125 -28.5t-125 28.5t-86.5 77t-48.5 108t-16 126.5z
M330 598q0 -138 56.5 -211.5t152.5 -73.5q103 0 161 80t58 211q0 138 -56.5 211.5t-152.5 73.5q-103 0 -161 -80t-58 -211z" />
    <glyph glyph-name="gcircumflex.ss02" 
d="M481 -557q-199 0 -321.5 67t-122.5 175q0 66 50 120.5t149 106.5q-47 13 -83 55.5t-36 100.5q0 149 192 235q-76 46 -120 118.5t-44 160.5q0 106 57.5 193.5t151.5 135t201 47.5q95 0 178.5 -37t134.5 -102v12q0 86 50.5 137.5t132.5 51.5q66 0 104.5 -32t38.5 -85
q0 -39 -23 -60.5t-57 -21.5q-25 0 -42 13.5t-23.5 29.5t-20 29.5t-33.5 13.5q-53 0 -53 -86v-200q0 -106 -57.5 -193.5t-151.5 -135.5t-201 -48q-88 0 -165 30q-93 -49 -93 -118q0 -85 113 -82l422 6q112 2 188 -70t76 -188t-80 -203t-213.5 -131.5t-298.5 -44.5zM197 -287
q0 -83 81.5 -133.5t237.5 -50.5q179 0 298.5 60t119.5 165q0 63 -42.5 100.5t-113.5 39.5l-463 10q-118 -88 -118 -191zM262 1096l193 319h202l191 -319h-43l-246 209h-8l-246 -209h-43zM330 598q0 -138 56.5 -211.5t152.5 -73.5q103 0 161 80t58 211q0 138 -56.5 211.5
t-152.5 73.5q-103 0 -161 -80t-58 -211z" />
    <glyph glyph-name="uni0123.ss02" 
d="M481 -557q-199 0 -321.5 67t-122.5 175q0 66 50 120.5t149 106.5q-47 13 -83 55.5t-36 100.5q0 149 192 235q-76 46 -120 118.5t-44 160.5q0 106 57.5 193.5t151.5 135t201 47.5q95 0 178.5 -37t134.5 -102v12q0 86 50.5 137.5t132.5 51.5q66 0 104.5 -32t38.5 -85
q0 -39 -23 -60.5t-57 -21.5q-25 0 -42 13.5t-23.5 29.5t-20 29.5t-33.5 13.5q-53 0 -53 -86v-200q0 -106 -57.5 -193.5t-151.5 -135.5t-201 -48q-88 0 -165 30q-93 -49 -93 -118q0 -85 113 -82l422 6q112 2 188 -70t76 -188t-80 -203t-213.5 -131.5t-298.5 -44.5zM197 -287
q0 -83 81.5 -133.5t237.5 -50.5q179 0 298.5 60t119.5 165q0 63 -42.5 100.5t-113.5 39.5l-463 10q-118 -88 -118 -191zM330 598q0 -138 56.5 -211.5t152.5 -73.5q103 0 161 80t58 211q0 138 -56.5 211.5t-152.5 73.5q-103 0 -161 -80t-58 -211zM403 1255q0 110 80 194
t217 97v-61q-90 -12 -148 -64.5t-58 -124.5q0 -19 6 -34q35 38 86 38q46 0 77 -30.5t31 -77.5q0 -54 -37.5 -87.5t-95.5 -33.5q-69 0 -113.5 50.5t-44.5 133.5z" />
    <glyph glyph-name="gdotaccent.ss02" 
d="M481 -557q-199 0 -321.5 67t-122.5 175q0 66 50 120.5t149 106.5q-47 13 -83 55.5t-36 100.5q0 149 192 235q-76 46 -120 118.5t-44 160.5q0 106 57.5 193.5t151.5 135t201 47.5q95 0 178.5 -37t134.5 -102v12q0 86 50.5 137.5t132.5 51.5q66 0 104.5 -32t38.5 -85
q0 -39 -23 -60.5t-57 -21.5q-25 0 -42 13.5t-23.5 29.5t-20 29.5t-33.5 13.5q-53 0 -53 -86v-200q0 -106 -57.5 -193.5t-151.5 -135.5t-201 -48q-88 0 -165 30q-93 -49 -93 -118q0 -85 113 -82l422 6q112 2 188 -70t76 -188t-80 -203t-213.5 -131.5t-298.5 -44.5zM197 -287
q0 -83 81.5 -133.5t237.5 -50.5q179 0 298.5 60t119.5 165q0 63 -42.5 100.5t-113.5 39.5l-463 10q-118 -88 -118 -191zM330 598q0 -138 56.5 -211.5t152.5 -73.5q103 0 161 80t58 211q0 138 -56.5 211.5t-152.5 73.5q-103 0 -161 -80t-58 -211zM418 1264q0 61 38.5 100
t98.5 39q59 0 98 -39t39 -100t-39 -99.5t-98 -38.5q-60 0 -98.5 38.5t-38.5 99.5z" />
    <glyph glyph-name="h.ss01" 
d="M63 0v61h68q51 0 74.5 22t23.5 73v1165q0 54 -18.5 74t-69.5 20h-75v62h348v-691h4q43 78 125.5 125t179.5 47q129 0 212 -79t83 -199v-524q0 -52 23.5 -73.5t80.5 -21.5h47v-61h-495v61h51q56 0 82.5 22t26.5 73v465q0 106 -53.5 156t-137.5 50q-91 0 -160 -67.5
t-69 -181.5v-422q0 -51 26 -73t82 -22h51v-61h-510z" />
    <glyph glyph-name="hbar.ss01" 
d="M63 0v61h68q51 0 74.5 22t23.5 73v968h-163v103h163v94q0 54 -18.5 74t-69.5 20h-75v62h348v-250h254v-103h-254v-338h4q43 78 125.5 125t179.5 47q129 0 212 -79t83 -199v-524q0 -52 23.5 -73.5t80.5 -21.5h47v-61h-495v61h51q56 0 82.5 22t26.5 73v465q0 106 -53.5 156
t-137.5 50q-91 0 -160 -67.5t-69 -181.5v-422q0 -51 26 -73t82 -22h51v-61h-510z" />
    <glyph glyph-name="hcircumflex.ss01" 
d="M63 0v61h68q51 0 74.5 22t23.5 73v1165q0 54 -18.5 74t-69.5 20h-75v62h348v-691h4q43 78 125.5 125t179.5 47q129 0 212 -79t83 -199v-524q0 -52 23.5 -73.5t80.5 -21.5h47v-61h-495v61h51q56 0 82.5 22t26.5 73v465q0 106 -53.5 156t-137.5 50q-91 0 -160 -67.5
t-69 -181.5v-422q0 -51 26 -73t82 -22h51v-61h-510zM29 1569l192 319h203l190 -319h-43l-245 209h-9l-245 -209h-43z" />
    <glyph glyph-name="i.ss01" 
d="M209 0v68h123q170 0 170 155v496q0 155 -150 155h-143v68h477v-719q0 -155 170 -155h123v-68h-770zM457 1305q0 61 38.5 100t98.5 39q59 0 98 -39t39 -100t-39 -99.5t-98 -38.5q-60 0 -98.5 38.5t-38.5 99.5z" />
    <glyph glyph-name="dotlessi.ss01" 
d="M209 0v68h123q170 0 170 155v496q0 155 -150 155h-143v68h477v-719q0 -155 170 -155h123v-68h-770z" />
    <glyph glyph-name="iacute.ss01" 
d="M209 0v68h123q170 0 170 155v496q0 155 -150 155h-143v68h477v-719q0 -155 170 -155h123v-68h-770zM575 1032l21 445h190l-174 -445h-37z" />
    <glyph glyph-name="ibreve.ss01" 
d="M209 0v68h123q170 0 170 155v496q0 155 -150 155h-143v68h477v-719q0 -155 170 -155h123v-68h-770zM317 1407h41q8 -101 74 -150t162 -49t161.5 49t73.5 150h41q0 -67 -16 -126.5t-48.5 -108t-86.5 -77t-125 -28.5t-125.5 28.5t-86.5 77t-48.5 108t-16.5 126.5z" />
    <glyph glyph-name="icircumflex.ss01" 
d="M209 0v68h123q170 0 170 155v496q0 155 -150 155h-143v68h477v-719q0 -155 170 -155h123v-68h-770zM328 1032l172 445h190l170 -445h-37l-225 314h-8l-225 -314h-37z" />
    <glyph glyph-name="idieresis.ss01" 
d="M209 0v68h123q170 0 170 155v496q0 155 -150 155h-143v68h477v-719q0 -155 170 -155h123v-68h-770zM299 1257q0 55 36 90t89 35q54 0 89.5 -35t35.5 -90t-35.5 -89.5t-89.5 -34.5q-53 0 -89 34.5t-36 89.5zM639 1257q0 55 35.5 90t89.5 35q53 0 89 -35t36 -90t-36 -89.5
t-89 -34.5q-54 0 -89.5 34.5t-35.5 89.5z" />
    <glyph glyph-name="i.loclTRK" 
d="M209 0v68h123q170 0 170 155v496q0 155 -150 155h-143v68h770v-68h-143q-150 0 -150 -155v-496q0 -155 170 -155h123v-68h-770zM457 1264q0 61 38.5 100t98.5 39q59 0 98 -39t39 -100t-39 -99.5t-98 -38.5q-60 0 -98.5 38.5t-38.5 99.5z" />
    <glyph glyph-name="i.loclTRK.ss01" 
d="M209 0v68h123q170 0 170 155v496q0 155 -150 155h-143v68h477v-719q0 -155 170 -155h123v-68h-770zM457 1264q0 61 38.5 100t98.5 39q59 0 98 -39t39 -100t-39 -99.5t-98 -38.5q-60 0 -98.5 38.5t-38.5 99.5z" />
    <glyph glyph-name="igrave.ss01" 
d="M209 0v68h123q170 0 170 155v496q0 155 -150 155h-143v68h477v-719q0 -155 170 -155h123v-68h-770zM401 1477h191l20 -445h-37z" />
    <glyph glyph-name="ij.ss01" 
d="M72 0v61h41q108 0 108 95v630q0 54 -18.5 74.5t-69.5 20.5h-61v61h334v-786q0 -95 108 -95h41v-61h-483zM182 1305q0 58 37 95.5t94 37.5q56 0 93.5 -37.5t37.5 -95.5t-37.5 -94.5t-93.5 -36.5q-57 0 -94 36.5t-37 94.5zM561 -559l39 37q128 122 171.5 232.5t43.5 318.5
v757q0 54 -18.5 74.5t-69.5 20.5h-61v61h333v-913q0 -209 -73 -336.5t-250 -253.5l-72 -51zM776 1305q0 58 37 95.5t94 37.5q56 0 93.5 -37.5t37.5 -95.5t-37.5 -94.5t-93.5 -36.5q-57 0 -94 36.5t-37 94.5z" />
    <glyph glyph-name="imacron.ss01" 
d="M209 0v68h123q170 0 170 155v496q0 155 -150 155h-143v68h477v-719q0 -155 170 -155h123v-68h-770zM283 1188v110h620v-110h-620z" />
    <glyph glyph-name="iogonek.ss01" 
d="M209 0v68h123q170 0 170 155v496q0 155 -150 155h-143v68h477v-719q0 -155 170 -155h123v-68h-287q-59 -74 -83.5 -126.5t-24.5 -106.5q0 -107 90 -107q76 0 104 68h56q-21 -76 -82 -124t-142 -48q-80 0 -126 40.5t-46 112.5q0 134 183 291h-412zM457 1264q0 61 38.5 100
t98.5 39q59 0 98 -39t39 -100t-39 -99.5t-98 -38.5q-60 0 -98.5 38.5t-38.5 99.5z" />
    <glyph glyph-name="itilde.ss01" 
d="M209 0v68h123q170 0 170 155v496q0 155 -150 155h-143v68h477v-719q0 -155 170 -155h123v-68h-770zM272 1130q18 94 72 156t133 62q46 0 97 -25t97.5 -49.5t80.5 -24.5q37 0 67 26t45 73h51q-18 -94 -71.5 -156t-132.5 -62q-46 0 -97 25t-97.5 49.5t-80.5 24.5
q-37 0 -67 -26t-45 -73h-52z" />
    <glyph glyph-name="j.ss01" 
d="M350 -612l-39 59l54 37q57 39 96 81t63.5 86.5t37.5 104t17.5 121.5t4.5 152v690q0 155 -150 155h-143v68h477v-913q0 -215 -75.5 -349t-256.5 -241zM539 1305q0 61 38.5 100t98.5 39q59 0 98 -39t39 -100t-39 -99.5t-98 -38.5q-60 0 -98.5 38.5t-38.5 99.5z" />
    <glyph glyph-name="uni0237.ss01" 
d="M350 -612l-39 59l54 37q57 39 96 81t63.5 86.5t37.5 104t17.5 121.5t4.5 152v690q0 155 -150 155h-143v68h477v-913q0 -215 -75.5 -349t-256.5 -241z" />
    <glyph glyph-name="jcircumflex.ss01" 
d="M350 -612l-39 59l54 37q57 39 96 81t63.5 86.5t37.5 104t17.5 121.5t4.5 152v690q0 155 -150 155h-143v68h477v-913q0 -215 -75.5 -349t-256.5 -241zM401 1032l172 445h191l170 -445h-37l-225 314h-8l-226 -314h-37z" />
    <glyph glyph-name="k.ss01" 
d="M63 0v61h68q51 0 74.5 22t23.5 73v1165q0 54 -18.5 74t-69.5 20h-75v62h348v-918q37 0 57 7.5t49 33.5l223 188q42 35 34 64t-56 29h-117v61h543v-61h-57q-57 0 -106.5 -25t-119.5 -84l-256 -219l387 -424q38 -41 67 -55.5t73 -14.5h34v-59h-534v59h86q36 0 47.5 22.5
t-18.5 59.5l-232 269q-26 31 -39 38t-41 7h-24v-299q0 -51 26 -73t82 -22h39v-61h-498z" />
    <glyph glyph-name="uni0137.ss01" 
d="M63 0v61h68q51 0 74.5 22t23.5 73v1165q0 54 -18.5 74t-69.5 20h-75v62h348v-918q37 0 57 7.5t49 33.5l223 188q42 35 34 64t-56 29h-117v61h543v-61h-57q-57 0 -106.5 -25t-119.5 -84l-256 -219l387 -424q38 -41 67 -55.5t73 -14.5h34v-59h-534v59h86q36 0 47.5 22.5
t-18.5 59.5l-232 269q-26 31 -39 38t-41 7h-24v-299q0 -51 26 -73t82 -22h39v-61h-498zM455 -592v62q90 12 148.5 64.5t58.5 123.5q0 18 -7 35q-36 -39 -86 -39q-46 0 -77 30.5t-31 77.5q0 54 37.5 87.5t95.5 33.5q69 0 113.5 -50.5t44.5 -133.5q0 -110 -80 -194t-217 -97z
" />
    <glyph glyph-name="l.ss01" 
d="M209 0v68h123q170 0 170 155v1030q0 76 -38 116t-112 40h-143v68h477v-1254q0 -155 170 -155h123v-68h-770z" />
    <glyph glyph-name="lacute.ss01" 
d="M209 0v68h123q170 0 170 155v1030q0 76 -38 116t-112 40h-143v68h477v-1254q0 -155 170 -155h123v-68h-770zM569 1569l56 319h229l-236 -319h-49z" />
    <glyph glyph-name="lcaron.ss01" 
d="M209 0v68h123q170 0 170 155v1030q0 76 -38 116t-112 40h-143v68h477v-1254q0 -155 170 -155h123v-68h-770zM940 1032v445h190l-153 -445h-37z" />
    <glyph glyph-name="uni013C.ss01" 
d="M209 0v68h123q170 0 170 155v1030q0 76 -38 116t-112 40h-143v68h477v-1254q0 -155 170 -155h123v-68h-770zM455 -592v62q90 12 148.5 64.5t58.5 123.5q0 18 -7 35q-36 -39 -86 -39q-46 0 -77 30.5t-31 77.5q0 54 37.5 87.5t95.5 33.5q69 0 113.5 -50.5t44.5 -133.5
q0 -110 -80 -194t-217 -97z" />
    <glyph glyph-name="ldot.ss01" 
d="M209 0v68h123q170 0 170 155v1030q0 76 -38 116t-112 40h-143v68h477v-1254q0 -155 170 -155h123v-68h-770zM1030 754q0 61 38.5 100t98.5 39q59 0 98.5 -39t39.5 -100t-39.5 -99.5t-98.5 -38.5q-60 0 -98.5 38.5t-38.5 99.5z" />
    <glyph glyph-name="lslash.ss01" 
d="M209 0v68h123q170 0 170 155v416l-185 -90v119l185 90v495q0 76 -38 116t-112 40h-143v68h477v-629l184 90v-119l-184 -90v-506q0 -155 170 -155h123v-68h-770z" />
    <glyph glyph-name="thorn.ss01" 
d="M20 -530v61h56q51 0 69.5 20t18.5 74v1696q0 54 -18.5 74t-69.5 20h-35v62h303v-678h4q52 71 136.5 115t187.5 44q182 0 297.5 -133.5t115.5 -345.5q0 -155 -72 -274t-183.5 -178.5t-239.5 -59.5q-139 0 -242 78v-420q0 -54 18.5 -74t69.5 -20h68v-61h-484zM348 279
q0 -59 20.5 -103.5t55 -69t73.5 -36t83 -11.5q138 0 225.5 100.5t87.5 284.5q0 179 -90.5 280t-224.5 101q-148 0 -230 -112v-434z" />
    <glyph glyph-name="a.sc" 
d="M41 0v61h27q61 0 95 34.5t68 119.5l306 780h151l307 -819q27 -70 50 -92.5t73 -22.5h29v-61h-508v61h86q61 0 82.5 29.5t1.5 85.5l-55 156h-363l-41 -109q-35 -91 -16.5 -126.5t106.5 -35.5h37v-61h-436zM430 434h287l-133 373h-15z" />
    <glyph glyph-name="aacute.sc" 
d="M41 0v61h27q61 0 95 34.5t68 119.5l306 780h151l307 -819q27 -70 50 -92.5t73 -22.5h29v-61h-508v61h86q61 0 82.5 29.5t1.5 85.5l-55 156h-363l-41 -109q-35 -91 -16.5 -126.5t106.5 -35.5h37v-61h-436zM430 434h287l-133 373h-15zM594 1073l20 445h191l-174 -445h-37z
" />
    <glyph glyph-name="abreve.sc" 
d="M41 0v61h27q61 0 95 34.5t68 119.5l306 780h151l307 -819q27 -70 50 -92.5t73 -22.5h29v-61h-508v61h86q61 0 82.5 29.5t1.5 85.5l-55 156h-363l-41 -109q-35 -91 -16.5 -126.5t106.5 -35.5h37v-61h-436zM336 1448h41q8 -101 73.5 -150t161.5 -49t162 49t74 150h41
q0 -67 -16.5 -126.5t-48.5 -108t-86.5 -77t-125.5 -28.5t-125 28.5t-86.5 77t-48.5 108t-16 126.5zM430 434h287l-133 373h-15z" />
    <glyph glyph-name="acircumflex.sc" 
d="M41 0v61h27q61 0 95 34.5t68 119.5l306 780h151l307 -819q27 -70 50 -92.5t73 -22.5h29v-61h-508v61h86q61 0 82.5 29.5t1.5 85.5l-55 156h-363l-41 -109q-35 -91 -16.5 -126.5t106.5 -35.5h37v-61h-436zM346 1073l172 445h191l170 -445h-37l-226 313h-8l-225 -313h-37z
M430 434h287l-133 373h-15z" />
    <glyph glyph-name="adieresis.sc" 
d="M41 0v61h27q61 0 95 34.5t68 119.5l306 780h151l307 -819q27 -70 50 -92.5t73 -22.5h29v-61h-508v61h86q61 0 82.5 29.5t1.5 85.5l-55 156h-363l-41 -109q-35 -91 -16.5 -126.5t106.5 -35.5h37v-61h-436zM276 1298q0 55 36 90t89 35q54 0 89.5 -35t35.5 -90t-35.5 -89.5
t-89.5 -34.5q-53 0 -89 34.5t-36 89.5zM430 434h287l-133 373h-15zM698 1298q0 55 35.5 90t89.5 35q53 0 89 -35t36 -90t-36 -89.5t-89 -34.5q-54 0 -89.5 34.5t-35.5 89.5z" />
    <glyph glyph-name="uni0227.sc" 
d="M41 0v61h27q61 0 95 34.5t68 119.5l306 780h151l307 -819q27 -70 50 -92.5t73 -22.5h29v-61h-508v61h86q61 0 82.5 29.5t1.5 85.5l-55 156h-363l-41 -109q-35 -91 -16.5 -126.5t106.5 -35.5h37v-61h-436zM430 434h287l-133 373h-15zM475 1305q0 61 38.5 100t98.5 39
q59 0 98.5 -39t39.5 -100t-39.5 -99.5t-98.5 -38.5q-60 0 -98.5 38.5t-38.5 99.5z" />
    <glyph glyph-name="agrave.sc" 
d="M41 0v61h27q61 0 95 34.5t68 119.5l306 780h151l307 -819q27 -70 50 -92.5t73 -22.5h29v-61h-508v61h86q61 0 82.5 29.5t1.5 85.5l-55 156h-363l-41 -109q-35 -91 -16.5 -126.5t106.5 -35.5h37v-61h-436zM420 1518h190l21 -445h-37zM430 434h287l-133 373h-15z" />
    <glyph glyph-name="amacron.sc" 
d="M41 0v61h27q61 0 95 34.5t68 119.5l306 780h151l307 -819q27 -70 50 -92.5t73 -22.5h29v-61h-508v61h86q61 0 82.5 29.5t1.5 85.5l-55 156h-363l-41 -109q-35 -91 -16.5 -126.5t106.5 -35.5h37v-61h-436zM301 1229v110h621v-110h-621zM430 434h287l-133 373h-15z" />
    <glyph glyph-name="aogonek.sc" 
d="M41 0v61h27q61 0 95 34.5t68 119.5l306 780h151l307 -819q27 -70 50 -92.5t73 -22.5h29v-61h-148q-59 -74 -83.5 -126.5t-24.5 -106.5q0 -107 90 -107q76 0 104 68h56q-21 -76 -81.5 -124t-141.5 -48q-80 0 -126.5 40.5t-46.5 112.5q0 134 183 291h-289v61h86
q61 0 82.5 29.5t1.5 85.5l-55 156h-363l-41 -109q-35 -91 -16.5 -126.5t106.5 -35.5h37v-61h-436zM430 434h287l-133 373h-15z" />
    <glyph glyph-name="aring.sc" 
d="M41 0v61h27q61 0 95 34.5t68 119.5l306 780h151l307 -819q27 -70 50 -92.5t73 -22.5h29v-61h-508v61h86q61 0 82.5 29.5t1.5 85.5l-55 156h-363l-41 -109q-35 -91 -16.5 -126.5t106.5 -35.5h37v-61h-436zM414 1350q0 87 56.5 144.5t141.5 57.5t142 -57.5t57 -144.5
q0 -85 -57 -142t-142 -57t-141.5 57t-56.5 142zM430 434h287l-133 373h-15zM496 1350q0 -50 33.5 -83.5t82.5 -33.5q50 0 83.5 33.5t33.5 83.5q0 52 -33.5 86t-83.5 34t-83 -34t-33 -86z" />
    <glyph glyph-name="atilde.sc" 
d="M41 0v61h27q61 0 95 34.5t68 119.5l306 780h151l307 -819q27 -70 50 -92.5t73 -22.5h29v-61h-508v61h86q61 0 82.5 29.5t1.5 85.5l-55 156h-363l-41 -109q-35 -91 -16.5 -126.5t106.5 -35.5h37v-61h-436zM291 1171q18 94 72 156t133 62q37 0 77 -15.5t69.5 -34t64.5 -34
t63 -15.5q37 0 67.5 26t45.5 73h51q-18 -94 -72 -156t-133 -62q-37 0 -77 15.5t-69.5 34t-64.5 34t-63 15.5q-37 0 -67.5 -26t-45.5 -73h-51zM430 434h287l-133 373h-15z" />
    <glyph glyph-name="ae.sc" 
d="M20 0v61h27q52 0 78 25t41 76l199 653q19 54 5 80.5t-71 26.5h-82v61h870l11 -233h-62q-15 84 -51 117.5t-104 33.5h-56q-55 0 -76.5 -18t-21.5 -72v-262h111q58 0 84.5 27t35.5 100h62v-334h-62q-9 73 -35.5 100t-84.5 27h-111v-295q0 -55 23 -73.5t84 -18.5h59
q65 0 107 32t65 119h61l-20 -233h-651v61h24q47 0 65.5 17t18.5 63v293h-207l-82 -276q-28 -97 56 -97h35v-61h-345zM381 514h182v387h-65z" />
    <glyph glyph-name="aeacute.sc" 
d="M20 0v61h27q52 0 78 25t41 76l199 653q19 54 5 80.5t-71 26.5h-82v61h870l11 -233h-62q-15 84 -51 117.5t-104 33.5h-56q-55 0 -76.5 -18t-21.5 -72v-262h111q58 0 84.5 27t35.5 100h62v-334h-62q-9 73 -35.5 100t-84.5 27h-111v-295q0 -55 23 -73.5t84 -18.5h59
q65 0 107 32t65 119h61l-20 -233h-651v61h24q47 0 65.5 17t18.5 63v293h-207l-82 -276q-28 -97 56 -97h35v-61h-345zM381 514h182v387h-65zM668 1073l20 445h191l-174 -445h-37z" />
    <glyph glyph-name="b.sc" 
d="M61 0v61h76q111 0 111 95v671q0 54 -18.5 74.5t-69.5 20.5h-99v61h547q189 0 295.5 -65t106.5 -179q0 -88 -66 -145.5t-192 -77.5v-12q313 -25 313 -240q0 -119 -106 -191.5t-304 -72.5h-594zM432 178q0 -52 30 -80t103 -28h84q101 0 164.5 49t63.5 137q0 97 -76 150
t-207 53h-162v-281zM432 545h162q110 0 168.5 46t58.5 132q0 94 -68.5 138t-174.5 44h-146v-360z" />
    <glyph glyph-name="c.sc" 
d="M655 -33q-120 0 -220.5 38.5t-168.5 106t-105.5 160.5t-37.5 201q0 231 161.5 381t417.5 150q86 0 181 -16t153 -40l21 -221h-64q-44 97 -130 142.5t-187 45.5q-148 0 -244 -108.5t-96 -314.5q0 -201 92 -319t262 -118q110 0 190 54.5t130 183.5h61l-12 -221
q-210 -105 -404 -105z" />
    <glyph glyph-name="cacute.sc" 
d="M655 -33q-120 0 -220.5 38.5t-168.5 106t-105.5 160.5t-37.5 201q0 231 161.5 381t417.5 150q86 0 181 -16t153 -40l21 -221h-64q-44 97 -130 142.5t-187 45.5q-148 0 -244 -108.5t-96 -314.5q0 -201 92 -319t262 -118q110 0 190 54.5t130 183.5h61l-12 -221
q-210 -105 -404 -105zM659 1073l21 445h190l-174 -445h-37z" />
    <glyph glyph-name="ccaron.sc" 
d="M655 -33q-120 0 -220.5 38.5t-168.5 106t-105.5 160.5t-37.5 201q0 231 161.5 381t417.5 150q86 0 181 -16t153 -40l21 -221h-64q-44 97 -130 142.5t-187 45.5q-148 0 -244 -108.5t-96 -314.5q0 -201 92 -319t262 -118q110 0 190 54.5t130 183.5h61l-12 -221
q-210 -105 -404 -105zM412 1548h37l225 -313h8l225 313h37l-170 -444h-190z" />
    <glyph glyph-name="ccedilla.sc" 
d="M543 -244v43l73 170q-224 12 -358.5 153t-134.5 351q0 231 161.5 381t417.5 150q86 0 181 -16t153 -40l21 -221h-64q-44 97 -130 142.5t-187 45.5q-148 0 -244 -108.5t-96 -314.5q0 -201 92 -319t262 -118q110 0 190 54.5t130 183.5h61l-12 -221q-192 -98 -377 -105
l-31 -78q75 -3 119.5 -41.5t44.5 -99.5q0 -100 -112.5 -160t-284.5 -45v62q108 -6 172.5 17.5t64.5 70.5q0 60 -112 63z" />
    <glyph glyph-name="ccircumflex.sc" 
d="M655 -33q-120 0 -220.5 38.5t-168.5 106t-105.5 160.5t-37.5 201q0 231 161.5 381t417.5 150q86 0 181 -16t153 -40l21 -221h-64q-44 97 -130 142.5t-187 45.5q-148 0 -244 -108.5t-96 -314.5q0 -201 92 -319t262 -118q110 0 190 54.5t130 183.5h61l-12 -221
q-210 -105 -404 -105zM412 1073l172 445h190l170 -445h-37l-225 313h-8l-225 -313h-37z" />
    <glyph glyph-name="cdotaccent.sc" 
d="M655 -33q-120 0 -220.5 38.5t-168.5 106t-105.5 160.5t-37.5 201q0 231 161.5 381t417.5 150q86 0 181 -16t153 -40l21 -221h-64q-44 97 -130 142.5t-187 45.5q-148 0 -244 -108.5t-96 -314.5q0 -201 92 -319t262 -118q110 0 190 54.5t130 183.5h61l-12 -221
q-210 -105 -404 -105zM541 1305q0 61 38.5 100t98.5 39q59 0 98 -39t39 -100t-39 -99.5t-98 -38.5q-60 0 -98.5 38.5t-38.5 99.5z" />
    <glyph glyph-name="d.sc" 
d="M41 0v61h43q109 0 109 95v671q0 54 -19 74.5t-70 20.5h-63v61h463q276 0 439 -133t163 -350q0 -216 -157 -358t-402 -142h-506zM377 178q0 -56 32 -82t111 -26h19q156 0 261 117.5t105 297.5q0 193 -121 306.5t-311 113.5h-96v-727z" />
    <glyph glyph-name="eth.sc" 
d="M41 0v61h43q109 0 109 95v311h-152v102h152v258q0 54 -19 74.5t-70 20.5h-63v61h463q276 0 439 -133t163 -350q0 -216 -157 -358t-402 -142h-506zM377 178q0 -56 32 -82t111 -26h19q156 0 261 117.5t105 297.5q0 193 -121 306.5t-311 113.5h-96v-336h266v-102h-266v-289z
" />
    <glyph glyph-name="dcaron.sc" 
d="M41 0v61h43q109 0 109 95v671q0 54 -19 74.5t-70 20.5h-63v61h463q276 0 439 -133t163 -350q0 -216 -157 -358t-402 -142h-506zM246 1548h37l225 -313h8l225 313h37l-170 -444h-190zM377 178q0 -56 32 -82t111 -26h19q156 0 261 117.5t105 297.5q0 193 -121 306.5
t-311 113.5h-96v-727z" />
    <glyph glyph-name="dcroat.sc" 
d="M41 0v61h43q109 0 109 95v311h-152v102h152v258q0 54 -19 74.5t-70 20.5h-63v61h463q276 0 439 -133t163 -350q0 -216 -157 -358t-402 -142h-506zM377 178q0 -56 32 -82t111 -26h19q156 0 261 117.5t105 297.5q0 193 -121 306.5t-311 113.5h-96v-336h266v-102h-266v-289z
" />
    <glyph glyph-name="e.sc" 
d="M1047 0h-934v61h75q111 0 111 95v671q0 54 -18.5 74.5t-69.5 20.5h-98v61h899l16 -244h-61q-22 91 -66.5 126.5t-136.5 35.5h-189q-53 0 -72.5 -21.5t-19.5 -76.5v-250h181q83 0 122 28t45 95h62v-334h-62q-6 68 -45 96.5t-122 28.5h-181v-287q0 -55 19.5 -76.5
t72.5 -21.5h201q103 0 151.5 38.5t76.5 143.5h61z" />
    <glyph glyph-name="eacute.sc" 
d="M1047 0h-934v61h75q111 0 111 95v671q0 54 -18.5 74.5t-69.5 20.5h-98v61h899l16 -244h-61q-22 91 -66.5 126.5t-136.5 35.5h-189q-53 0 -72.5 -21.5t-19.5 -76.5v-250h181q83 0 122 28t45 95h62v-334h-62q-6 68 -45 96.5t-122 28.5h-181v-287q0 -55 19.5 -76.5
t72.5 -21.5h201q103 0 151.5 38.5t76.5 143.5h61zM596 1073l20 445h191l-174 -445h-37z" />
    </font>
</defs>
</svg>
