<?xml version="1.0" encoding="UTF-8"?><svg id="Layer_2" xmlns="http://www.w3.org/2000/svg" viewBox="0 0 661.79 335.33"><defs><style>.cls-1{fill:#41290b;}</style></defs><g id="Layer_1-2"><g><g><g><path class="cls-1" d="M160.89,92.8l-.27,.07s.09,.02,.27-.07Z"/><path class="cls-1" d="M169.01,115.89l-.06,.04s.05-.04,.06-.04Z"/><path class="cls-1" d="M150.45,96.83s.01-.01,.01-.01c.02-.02,.03-.04,.05-.07l-.06,.08Z"/><path class="cls-1" d="M163.04,89.39c-1.82,.7-2.93,1.21-4.04,1.74-1.11,.53-2.2,1.13-3.81,2.21-1.58,.96-3.28,2.11-4.72,3.48-.52,.78-1.85,1.88-2.26,2.99l-.34,.31c-.14,.37-.29,.81-.53,1.13l-.03-.04c-.05,.16-.09,.3-.13,.44-.06,.18-.11,.35-.17,.51-.11,.33-.23,.63-.3,.89,0,.13,.01,.24,.02,.32l-.04-.02c.03,.3-.04,.63,.08,.9l-.11-.12c.3,.66,.95,.97,1.69,1.15,.36,.1,.77,.14,1.14,.2,.27,.03,.53,.06,.79,.09l-.06-.18c1.86,.27,2.5-.13,4.14,0l-.02,.04c2.01-.61,3.28,.02,5.32-.76-.25,.1,.13,.07,.11,.11,.96-.22,1.98-.48,1.92-.81,.69-.16,.59-.03,.71,.07-.04-.14,.55-.35,1.08-.52l-.23,.13c.51-.17,1.02-.34,1.52-.54l-.39-.16c.82-.21,.34,.25,1.06-.1l-.09-.21c1.08-.37,1.83-.28,2.91-.49,2.13-.72,4.28-1.51,6.46-1.79,1.07-.14,2.22-.15,3.17,.01,.9,.19,1.14,.64,1.14,1.41l-.17,.14c-.13,.03-.03,.22,.05,.46,.07,.24,.12,.52-.01,.56,0,.14,.01,.29,0,.43-.08,.1-.21,.32-.19,.11-.13,.36-.1,.38-.15,.69l-.33,.35c-.81,1.45-1.34,2.83-2.58,4.15-.83,.7-1.95,1.76-3.2,2.75-1.24,.99-2.6,1.9-3.64,2.5-1.43,.92-3.22,1.43-5.04,1.75-1.82,.34-3.65,.54-5.35,1-.12-.02-.4,.1-.39,.13-1.06,.13-2.13,.21-3.2,.29,0,0-.97,.07-2.25,.16-1.28,.09-2.87,.19-4.1,.35-2.44,.29-3.41,.85,2.67,1.73l-.08,.06c1.81,.07,2.95,.02,4.18-.35,.23,.33,1.49-.09,1.92-.03l-.04,.03c1.07-.38,2.3-.06,3.33-.48-.04,.03-.04,.13-.29,.18,.77-.17,1.81-.46,1.9-.28,1.83-.41,4.41-1.12,5.42-1.88l-.06,.08c.56-.45,.82-.36,1.48-.78,.05,0,.1,0,.1,.01,.6-.49,1.94-1.01,2.42-1.4l.1,.09c.42-.28,.85-.53,1.25-.83-.16,.1-.32,.2-.48,.28-.04-.41,1.09-.42,1.81-1.29,.85-.59,1.08-1.89,1.92-2.49,.21-.48-.1,.51,.31-.12,.16,.11-.15,.34,.09,.3,.44-.59,.97-.77,1.45-1.57l.14,.06c.49-1.12,1.48-1.77,1.61-2.63,.47-1.16,.77-.55,1.04-1.9,.12-.15,.25-.3,.36-.46,.19-.6-.12-.48,.09-1.14,.14,.07,.17-.89,.27-.46,.13-.82-.02-1.85-.77-2.77-.36-.44-.87-.81-1.4-1.03-.52-.23-1.04-.36-1.53-.5-.45,.2-1.38,0-1.69,.19-.05-.13-1.89,.06-.84-.23,.09-.02,.25-.03,.24,.02l.12-.15c-1.11-.24-1.96,.29-2.98,.45,.31,0,.72-.09,.46,.06-.32,.05-.64,.1-.95,.16l.17-.16c-.48,.07-.95,.16-1.42,.26l.23,.1c-.69,.1-1.01-.08-1.69,.36-.3,.22,.69,0,0,.26-.91,.18-2.25,.49-3.35,.86,.16,.12-.13,.23-.41,.37l-.09-.13c-1.04,.62-.56-.13-1.56,.42l.06-.13-.17,.39c-.88,.6-.6-.12-1.6,.58,.43-.15,.3,.27-.27,.34l.1-.17c-.3,.1-.38,.19-.59,.21,.16-.12,.05-.22-.4-.1l.26-.24-.79,.45c-.69,0-1.71,.36-2.02,.2,0,0-1.45,.11-1.76,.37,.27-.17-.53-.13-.32-.32-.35,.2-1.46,.43-1.92,.3l.08-.02c-1.64-.06-2.82,.39-4.23,.11,.03,.09-.15,.1-.3,.11-.1,0-.12,.02-.13,.04-.01,.02-.03,.06-.02,.11-.21,.06-.43,0-.51-.11-.05-.05-.06-.14,0-.21,.04-.07,.06-.12,.05-.16,0-.07-.07-.14-.23-.25,.03-.14,.18-.34,.28-.46,.11-.12,.21-.2,.3-.34-.02,.05-.03,.1-.04,.15,.52-1.09,.76-1.37,1.35-2.06,.25-.38,.07-.66,.74-1.19-.12,.28,.12,.03,.36-.18-.14,.15-.15,.22,.21,.02,.02-.07,.07-.14,.13-.21,0,0,.03,0,.03,.02,.38-.37,.29-.34,.08-.2,0-.02-.03-.03-.12,0,.52-.23,1.23-.95,1.42-.81,1.3-.97,2.22-1.78,3.35-2.58,.19,.01-.03,.27-.35,.51l.81-.55c.08,.14-.43,.37-.67,.56,1.13-.39,1.92-1.49,3.23-1.93l.18-.25,.08-.02c-.04-.06,.19-.28,.36-.39,.24,.03,.14,.29,.73-.03,.53-.11,1.31-.71,1.92-1.05-.35,.13-.27,0-.14-.1,.3-.14,.54-.07,.75-.22l.1,.17c-.19-.13,.74-.49,.84-.59,.22,.07-.45,.28-.49,.41,1.25-.44,.62-.24,1.88-.62,.65-.32-.17-.14,.11-.39,.6-.19,1.18-.46,1.92-.47l-.26-.12c1.16-.35,1.89-.41,2.71-.33,2.2-.57,3.45-.88,4.04-1.16,.59-.27,.54-.45,.21-.59-.34-.13-.96-.21-1.5-.25-.54-.03-1-.03-1-.03-1.83-.05-3.23,.14-4.7,.5-1.47,.37-3.01,.9-5.05,1.79Z"/></g><g><path class="cls-1" d="M131.61,51.32l.98,.02s-.27-.05-.98-.02Z"/><path class="cls-1" d="M379.73,38.9c.08,0,.16-.02,.23-.03-.16,.02-.22,.02-.23,.03Z"/><path class="cls-1" d="M169.83,51.92s-.04,0-.05,0c-.08,0-.18,.02-.25,.03l.31-.03Z"/></g><g><path class="cls-1" d="M204.63,37.92l-.13,.71s.08-.19,.13-.71Z"/><path class="cls-1" d="M198.28,220.28c0,.06,.01,.12,.01,.17,0-.12,0-.16-.01-.17Z"/><path class="cls-1" d="M200.1,65.69s0-.03,0-.04c0-.06,0-.13,0-.19v.23Z"/></g><g><path class="cls-1" d="M219.29,103.28l-.05,.15s.05-.04,.05-.15Z"/><path class="cls-1" d="M237.79,103.38v-.04s0,.03,0,.04Z"/><path class="cls-1" d="M217.8,109.05h0s-.02-.03-.02-.04l.03,.04Z"/><path class="cls-1" d="M216.96,101.81c.11,1.9-.15,2.45,.27,4.4,.12,.94,.36,1.92,.57,2.82,.33,.39,.23,1.18,.57,1.68l-.09,.24c.12,.17,.22,.37,.2,.57h-.04c.19,.24,.22,.57,.31,.68h-.04s.13,.32,.13,.32l-.08-.04c.27,.43,.47,.9,.62,1.34l.14-.11c.25,.97,.74,1.11,1.09,1.99l-.04,.02c.53,.34,.8,.72,1.12,1.11,.16,.2,.37,.38,.59,.54,.26,.14,.54,.29,.92,.29-.19,0,.04,.11,.01,.14,.64,.2,1.37,.19,1.37-.16,.44,0,.36,.1,.43,.23,0-.14,.37-.23,.7-.33-.05,.03-.09,.06-.14,.09,.32-.08,.62-.2,.9-.33l-.27-.2c.46-.1,.25,.28,.64,.02l-.11-.21c.58-.25,1.08-.16,1.67-.37,1.97-1.35,3.53-3.37,5.41-4.6l.19,.06c.21,.16,.17-.7,.4-.59l.1-.26c.08-.02,.23-.09,.18,.04,.17-.17,.15-.2,.21-.38l.29-.08c.74-.61,1.05-1.42,1.71-2.17,1.02-.74,2.05-2.86,2.43-4.12,.24-.91,.76-1.75,1.21-2.67,.45-.91,.84-1.9,.77-2.9,.05-.06-.02-.23-.04-.23,.09-.58,.16-1.16,.19-1.75,0,0,0-.13,0-.36,0-.22,0-.53-.03-.89-.04-.7-.22-1.57-.46-2.2-.26-.63-.56-1.01-.81-.83-.27,.18-.42,.93-.8,2.39l-.06-.03c-.05,.85-.09,1.36,.17,1.96-.36,.07-.08,.69-.22,.88l-.03-.02c.21,.55-.36,1.02-.22,1.55-.02-.02-.11-.05-.1-.17-.03,.36-.07,.87-.27,.84-.15,.86-.65,1.95-.58,2.59l-.04-.06c.07,.38-.13,.4-.18,.77-.03,0-.06,.02-.06,.02,.05,.41-.43,.93-.49,1.22l-.13-.05c-.1,.21-.22,.41-.33,.62l.16-.21c.27,.27-.46,.34-.54,.89-.3,.37,.08,1.25-.38,1.55,0,.3-.09-.34-.21,.03-.16-.11,0-.21-.17-.23-.14,.34-.51,.33-.68,.75l-.13-.08c-.15,.61-.84,.68-.9,1.13-.3,.52-.59-.02-.79,.62l-.31,.03c-.21,.16,.04,.31-.23,.44-.08-.1-.33,.18-.29-.02-.6,.3-.76,1.12-1.64,1.43,.02,.31-.41,.48-.39,.71-.08-.07-.68,.55-.45,.05,.02-.04,.08-.09,.1-.05l-.05-.15c-.55,.1-.59,.69-1,.96,.14-.05,.29-.18,.25-.02l-.37,.27v-.16s-.58,.36-.58,.36l.17,.06c-.31,.14-.56,0-.73,.41-.06,.2,.38-.03,.13,.22-.42,.19-1.04,.47-1.47,.69,.13,.12,.02,.19-.08,.29l-.09-.12c-.33,.42-.32-.19-.63,.14v-.11s0,.33,0,.33c-.28,.4-.27-.22-.56,.25,.15-.05,.13,.32-.1,.27l.04-.15c-.11,.03-.15,.09-.22,.06,.07-.08,.03-.21-.12-.18l.1-.18c-.09,.1-.19,.18-.3,.24-.19-.16-.59-.12-.59-.36,0,.01-.37-.33-.61-.25,.17-.03-.02-.28,.15-.34-.2,.04-.61-.21-.6-.46l.04,.02c-.27-.62-.88-.89-.99-1.61-.14,.1-.21-.27-.38-.1-.49-.6-.04-1.39-.77-1.45-.14-.32,.05-.44,.03-.61l.06,.07c-.22-.6-.25-.77-.34-1.27-.11-.23-.44-.21-.44-.66,.15,.12,.09-.06,.06-.22,.04,.1,.09,.12,.13-.11-.04-.02-.08-.07-.1-.11,0,0,.02-.01,.03-.01-.1-.26-.12-.21-.12-.08-.02,0-.04,.01-.07,.06,.11-.31-.15-.79,.06-.86-.19-.81-.51-1.37-.69-2.05,.1-.09,.22,.05,.29,.25l-.11-.48c.16-.02,.13,.27,.19,.41,.17-.62-.43-1.16-.28-1.88l-.14-.13,.02-.04c-.07,.01-.18-.13-.21-.23,.13-.11,.32-.03,.27-.37,.1-.28-.15-.75-.26-1.1,0,.19-.09,.14-.15,.06-.02-.17,.11-.28,.04-.41l.19-.03c-.17,.08-.23-.43-.31-.48,.13-.11,.14,.25,.25,.29-.07-.68-.04-.34-.11-1.02-.17-.35-.17,.08-.35-.08-.06-.32-.21-.63-.12-1l-.16,.13c-.17-.6-.17-.97-.01-1.39-.77-2.24-1.21-2.5-1.51-2.15-.29,.34-.39,1.26-.39,1.26-.3,1.85,.23,2.77,.56,4.92Z"/></g><g><path class="cls-1" d="M368.21,65.91v-.07s0,.06,0,.07Z"/><path class="cls-1" d="M367.63,65.13v-.02s0,.02,0,.02Z"/><polygon class="cls-1" points="367.69 63.56 367.69 63.56 367.69 63.54 367.69 63.56"/><path class="cls-1" d="M369.02,63.9c-.21-.12-.33-.25-.43-.34-.1-.09-.26-.17-.42-.1-.17-.03-.34,.05-.48,.1-.04,.26-.19,.02-.23,.24l-.05-.14c-.01,.08-.04,.13-.07,.06v-.04c-.02,.11-.08,.06-.09,.12v-.04s-.05,.03-.05,.03v-.06c-.05,.12-.11,.15-.18,.11l.05,.17c-.18-.15-.12,.2-.3,.02v-.04c0,.49-.35-.22-.35,.26,0-.06-.05-.08-.06-.12-.06,.08-.12,.14,.04,.45-.05,.02-.09-.07-.16-.19,.07,.13,.06,.21,.02,.25v-.06s-.11,.13-.11,.13l.19,.22c-.1-.03-.22-.27-.24-.17l.14,.18c-.09,0-.43-.16-.69-.11-.06,.04-.17,.22-.23,.42-.05,.21-.08,.38-.02,.61,.05,.22,.17,.45,.3,.58,.09,.07,.19,.14,.29,.19,.23,.14,.32,.12,.41,.18,.1,.05,.18,.13,.24,.25l-.03,.17c-.06,.25,.22-.33,.17-.1l.07-.1s.02,.1-.02,.15c.04,.02,.05-.02,.09-.1l.02,.16c.17,.16,.33-.14,.48-.08,.21,.33,.56-.01,.67-.22,.12-.42,.7,.47,.79-.03,.02,.03,0-.05,0-.08l.21-.05s.25-.09,.28-.38c0-.07,0-.16-.03-.25l-.03-.07-.02-.04s0-.01-.01-.02c0,0,0,0-.01,0,0,0,0,0-.02,0l-.18,.05-.36-.91c.1,0,.08,.1,.14,.14v.03s0,0,0,0h-.01s.24,.48,.24,.48c.09-.04,.03-.03,.05-.04,0-.02-.02-.03-.03-.05l-.08-.1c-.05-.07-.11-.14-.18-.22-.13-.16-.29-.34-.46-.55l-.02-.05c-.13-.09-.17-.1-.1,.18-.15-.31-.07,0-.13-.1v-.03c.05,.26-.17-.17-.12,.06,0-.03-.04-.12-.03-.12-.01,.05-.02,.14-.09-.05-.05,.07-.15,0-.11,.33v-.05c.02,.22-.03,.04-.03,.15,0-.03-.01-.04-.01-.05,.02,.22-.07,.05-.07,.14l-.02-.13-.04,.04,.02,.03c.04,.36-.07-.22-.07,.02-.03-.05-.02,.77-.08,.59-.02,.17,.01-.28-.02-.15,0-.19,.01-.12,0-.27-.02,.09-.04-.2-.06-.07v-.15c-.05,.27-.03-.2-.07,.06-.05,.12,.06-.44-.02-.15l.04-.2s-.06,.24-.04,.14c.03-.12,.03-.1,.06-.21,.02-.07-.05,.12-.03,.07-.07,.12-.03,.05-.08,.14v-.02s.01,0,.01,0h0s0,0,0,0l-.19,.31h0s0,.02,0,.03c0,.02-.02,.04-.03,.06-.02,.04-.03,.06,0,0,0-.01,0,0,.01-.03v-.02c-.04,.13-.13,.22-.26,.29,.03-.02,.08-.06,.05-.03-.05,.03-.06,.04-.06,.04h0s-.02,.02-.04,.02h0s-.04,0-.03,0c.02,0,.04,0,.06,0,.02,0-.04-.01,0,0,.05,.01,.02,.03,.11,.07,.08,.05,.15,.11,.2,.17,0-.01,.02,.02,.04,.06h0c.14,.18,.06,.06,.2,.25v-.02s.02,.05,.02,.05c.08,.13,.05,.09,.09,.14,0,0,.1,.17-.03-.03,.02,.02-.17-.28-.13-.23l.07,.13s-.03-.08-.02-.06c.03,.07,.1,.19,.09,.16l.08,.16-.11-.24c.08,.13,.02-.05,.1,.13,0,0,.07,.08,0-.13,.04,.13,.08,.17,.13,.33-.05-.15-.06-.28,0-.13v.02c.09,.15,.02-.25,.12-.06-.04-.17,0-.08-.06-.3,0-.23,.18,.42,.08-.25,.02-.04,.06,.15,.08,.18v.04c.04-.06,.05-.07,.09-.06,0-.07-.02-.38,.02-.31,0,.13,.01,.1,.02,.1,0,.02,0,.07,.02,.15,0-.04,0-.06,0-.08,0,0,0,.02,0,.03,.02-.05,.01-.09,0-.1,0-.02,0-.04,0-.08,.03,.16,.06-.02,.07,.2,.05-.05,.09-.27,.15-.36,0,.11-.02,.21-.03,.25l.03-.04c-.01,.16-.02,.09-.04,.12,.02,.25,.08-.25,.09-.01l.03-.12v.02c.01-.07,.04-.16,.05-.18-.02,.14-.06,.32-.05,.31-.03,.13,.01-.06,.05-.13,0-.02,.03-.1,.05-.14,0,0-.04,.13-.02,.07l-.07,.17c.07-.16,.08-.18,.12-.24-.06,.13-.06,.11-.1,.2,.02-.01,.01,0,.05,0,.08-.11,.08-.16,.17-.3,.04-.02,.13-.12,.09,0l.08-.15c.1-.07,.11-.01,.04,.14,.44-.3,.9-.64,1.08-.89,.19-.27,.18-.49,.18-.49,.04-.27-.14-.33-.29-.34-.2,0-.33,.05-.62,.02Z"/></g></g><g><path class="cls-1" d="M292.14,77.78l1.28-1.15s-.37,.28-1.28,1.15Z"/><path class="cls-1" d="M526.96,84.08c.13-.01,.29-.02,.41-.03-.29,.02-.38,.02-.41,.03Z"/><path class="cls-1" d="M307.63,88.53s.01-.06,.02-.09c.02-.14,.04-.31,.06-.44l-.07,.53Z"/></g></g><path class="cls-1" d="M205.59,27.88h-.04s.03,.03,.04,0Z"/><g><polygon class="cls-1" points="253.17 45.12 253.17 45.12 253.54 44.99 253.17 45.12"/><path class="cls-1" d="M117.91,51.93l.03,.04s.01-.03-.03-.04Z"/></g><g><polygon class="cls-1" points="364.36 114.84 364.36 114.84 364.92 114.47 364.36 114.84"/><path class="cls-1" d="M274.5,94.22h.06s0-.04-.06,0Z"/><path class="cls-1" d="M552.63,82.53c-6.26,.55-12.02,.91-15.63,1.27l.49-.08c-4.14,.36-5.37,.13-10.01,.4-.25-.02-.58-.02-.53-.03-4.52,.36-13.21,.6-16.86,.99l-.25-.12c-3,.2-6,.46-8.99,.74l3.36-.26c-1.13,.46-6.82,.33-13.31,1.27-6.09,.65-12.23,2.23-18.53,3.01-2.97,.63,2.6-.68-1.86,.13-.18-.17,2.07-.44,.9-.41-4.39,.74-7.24,.95-12.63,2.02l-.25-.11c-3.5,.79-6.83,1.34-9.85,1.93-3.03,.55-5.76,1.08-8.06,1.73-3.6,.84-4.82,1.03-6.08,1.24-1.26,.22-2.56,.42-6.26,1.49l-2.95,.54c-3.2,.79-2.23,.8-5.78,1.67,.18-.18-4.48,1.11-2.45,.43-.72,.18-1.45,.36-2.18,.56-1.34-.16-2.67-.21-4-.15-1.47,.1-2.88,.22-4.31,.38,.4,0,.8,0,1.2,.02-1.05,.07-1.93,.2-2.73,.27-.8,.07-1.53,.15-2.27,.26-.74,.11-1.49,.22-2.35,.39-.85,.19-1.81,.42-2.96,.72-2.07,.58,3.93-.65-.39,.35-2.74,.6-6.13,1.47-9.66,2.57-3.53,1.1-7.17,2.43-10.48,3.74,.69-.08-1.11,.61-2.9,1.42l-.27-.05c-6.85,3.18-2.69,.77-9.45,3.98l-1.11,.73c-.76,.38-1.37,.68-1.89,.94-.26,.12-.49,.23-.71,.33-.06,.03-.11,.05-.16,.07-.04-.69-.03-1.96,.21-4.85-.32,2.87-.56,1.32,.08-2.23v.92c.28-1.97,.35-2.64,.62-3.95-.14,1.19,.08,.66,.62-2.24l-.2,1.97,.83-5.52c1.03-4.19,2.24-10.95,2.75-12.68,0,0,.47-2.27,.83-4.88,.08-.66,.16-1.33,.21-2.01l.03-.51v-.28s.01-.41,.01-.41c0-.54-.04-1.08-.16-1.53-.1-.46-.29-.81-.53-1.08-.22-.28-.6-.47-.9-.51-.54-.05-1.12,.15-1.53,.42-.03,.02-.04,.02-.05,.03,.03-.02,.06-.04,.05-.04,.43-.28,.58-.26,.56-.3-.03,0-.23,0-.57,.18-.3,.16-.8,.37-1.2,.56-.26,.12-.53,.24-.76,.33-.44,.19-.69,.27-.28,0-2.09,1.23-8.3,4.76-10.85,6.07l.46-.29c-4.64,2.55-8.47,4.97-12.14,7.38-3.67,2.41-7.18,4.8-11.12,7.45,.44-.12-3.69,2.72-2.55,2.18-3.92,2.95-7.54,5.58-10.47,7.83-1.47,1.12-2.76,2.14-3.83,3.07-.53,.46-1.01,.89-1.43,1.29-.12,.11-.19,.19-.25,.26l-.19,.22c-.12,.15-.24,.29-.35,.44-.63,.54-1.14,.96-1.55,1.29l-.15,.12-.07,.09c-.05,.05-.1,.1-.16,.12-.16,.02-.17-.21-.18-.31-.01-.27,.02-.49,.04-.69,.01-.1,.03-.19,.04-.29,.02-.15,.03-.3,.05-.47-.01,.36,0,.41,0,.54,0-.1,0-.21,.01-.3,.01-.22,.03-.44,.04-.66,.04-.47,.08-.91,.11-1.34,.09-.86,.18-1.65,.25-2.39,.17-1.47,.34-2.74,.51-3.93,.34-2.39,.67-4.51,1.17-7.56,.43-3.06,.19-3.59,1.19-9.04-.17,1.79,.18-.45,.53-2.49-.2,1.31-.23,1.72,.31-.95,.03-.38,.1-.97,.17-1.52,.01-.02,.04-.13,.04-.07,.54-3.42,.4-2.83,.11-1.25,0-.08-.05,.05-.17,.53,.77-3.51,1.65-9.87,1.93-10.26,.41-2.57,.77-4.96,1.08-7.24,.15-1.14,.29-2.25,.43-3.34,.06-.55,.12-1.09,.19-1.63,.06-.56,.11-1.11,.17-1.67,.14-1.54,.27-3.14,.1-4.2-.09-.52-.2-.92-.38-1.3-.05-.09-.1-.19-.19-.27-.07-.09-.25-.16-.36-.12-.19,.16-.34,.4-.51,.59l-1,1.24-.5,.62-.25,.32-.31,.48c-.93,1.4-1.42,2.06-2.05,2.98-.34,.35-.21,.12,.15-.47,.19-.29,.44-.67,.72-1.11,.2-.29,.41-.6,.63-.92,.26-.36,.51-.79,.78-1.21-.42,.68-.9,1.38-1.31,1.94l-.87,1.24c-.58,.83-1.23,1.61-1.84,2.41-.05-.07,.48-.77,1.15-1.64,.35-.43,.68-.93,1.02-1.4,.43-.61,.84-1.19,1.18-1.68-.63,.84-1.25,1.69-1.88,2.54-.57,.72-1.14,1.45-1.72,2.18-.56,.74-1.17,1.47-1.78,2.2-.62,.73-1.21,1.49-1.86,2.22-2.55,2.95-5.33,5.92-8.45,8.85l-1.18,1.33-.38,.34c.06,.03-1.24,1.44-2.15,2.33-.98,.73-.16-.29-3.23,2.63-2.53,2.19-6.92,6.54-10.1,9.58,1.75-1.59,1.25-1.02,.53-.29-1.55,1.45-2.54,2.18-3.7,3.34h-.22c-.11,.28-3.56,3.56-4.36,4.41-.04,0-.08,.01-.12,.02,.58-.63,2.38-2.36,2.62-2.68-1.32,1.26-2.2,2.1-2.85,2.72-1.16,.2-2.3,.45-3.41,.77-2.34,.7-4.47,1.65-6.5,2.75-1.01,.55-2,1.16-2.96,1.83-.48,.34-.96,.69-1.42,1.07-.23,.19-.47,.39-.7,.61l-.23,.22c-.1,.09-.19,.19-.28,.29-.18,.2-.38,.39-.53,.61-.65,.84-.99,1.71-.8,2.55,.08,.44,.34,.86,.64,1.12,.37,.25,.75,.52,1.23,.66,.43,.2,.99,.22,1.5,.26,.51-.04,1.19-.07,1.49-.19,.71-.17,1.33-.45,1.93-.75,2.34-1.23,4.24-2.91,6.12-4.77,1.65-1.69,3.39-3.43,5.25-5.25,2.95-.51,5.69-.68,8.12-.73,2.75-.05,5.16,0,7.24,.03,2.89,.06,5.14,.05,6.88,0v-.86c-1.74-.1-3.72-.22-5.57-.36-3.26-.24-6.06-.38-6.06-.38-2.9-.14-5.65-.15-8.3,.06,1.52-1.46,3.12-2.98,4.82-4.57,8.49-7.82,13.96-12.7,19.29-17.91,2.68-2.59,5.29-5.3,8.21-8.53,.71-.83,1.44-1.68,2.21-2.57,.76-.9,1.49-1.87,2.29-2.87,.4-.49,.78-1.03,1.16-1.58,.19-.27,.39-.55,.58-.83v-.02s.05-.11,.1-.16c.02,.07,0,.13,0,.19l-.14,1.2-.28,2.15c-.39,2.87-.84,5.77-1.29,8.67-.95,5.79-1.9,11.55-2.8,17.05-.63,5.27-2.46,14.46-3.04,20.76l-.43,2.43c-.04,.55-.07,1.13-.11,1.71-.02,.33-.03,.66-.05,.99-.02,.44-.03,1.03-.03,1.53,.02,.51,.05,1.01,.15,1.42,.1,.41,.25,.73,.44,.98,.1,.12,.2,.24,.33,.34,.12,.1,.33,.2,.49,.23,.15,.02,.25,.02,.35,.01,.05,0,.1,0,.15-.02,.04,0,.1-.02,.18-.09-.05,.05-.11,.13-.14,.14,1.67-1.31,3.43-2.69,4.99-3.92,1.17-.96,2.18-1.78,2.78-2.31l-.08,.12,3.04-2.44-.49,.46c4.33-3.56,8.97-7.01,13.17-9.88l-.45,.1c4.51-3.05,7.59-5.12,10.59-7.09,2.99-1.97,5.92-3.81,10.21-6.21l-.1,.1c2.69-1.7,5.15-3.13,7.5-4.42,1.19-.63,2.34-1.23,3.47-1.83,.57-.29,1.14-.57,1.71-.86l.85-.43,.27-.13,.12-.05c.13-.04,.32-.22,.4,0,.05,.16,.04,.31,.03,.48l-.05,.74c-.03,.3-.06,.6-.09,.9-.07,.61-.16,1.23-.26,1.87-.39,2.55-.89,5.29-1.4,8.37,.26-1.58-.22,.65-.24,.52-1.16,5.79-2.41,12.01-2.07,12.17-.81,4.25-.74,3.45-.98,3.99,.08,0-.03,.93-.2,2.29-.16,1.37-.39,3.14-.38,4.94-.02-.55-.02-1.09,0-1.63-.05,.83-.09,1.67,.02,2.59,.04,.24,.07,.48,.16,.75,.08,.26,.21,.59,.54,.91,.2,.17,.43,.3,.71,.35,.27,.06,.49,0,.69-.04,.34-.09,.67-.33,.67-.33l4.37-2.02-1.84,.52c4.69-2.03,1.32-.23,5.76-2.29l-.15-.19c6.49-2.79,10.45-4.08,16.91-6.19,6.67-2.3,13.62-4.18,20.75-5.1,.28-.04,.55-.07,.83-.1-.97,.54-1.92,1.19-2.8,2-.46,.43-.89,.89-1.29,1.42-.4,.55-.76,1.13-1.01,1.75-.54,1.24-.82,2.6-.77,4.02,.03,1.41,.4,2.91,1.35,4.22,.93,1.32,2.56,2.23,4.14,2.46,.7,.04,1.59,.02,2.52-.07,.93-.1,1.88-.23,2.84-.39,1.92-.29,3.77-.84,4.61-1.29,.08,0,.81-.26,1.72-.74,.9-.48,1.99-1.25,2.72-2.06,.75-.79,1.21-1.53,1.31-1.65,.08-.15-.06,.43-1.19,1.77-.39,.46-1.21,1.14-1.19,1.06-.19,.2-.39,.42-.59,.61,1.53-.93,2.73-2.23,3.52-3.73,.79-1.49,1.18-3.27,.88-5.01-.33-1.71-1.24-3.32-2.59-4.39-.68-.55-1.42-1-2.2-1.36,1.59-.52,3.1-1,3.57-1l2.95-.87c.85-.17,2.63-.57,1.16-.14,2.76-.7,2.81-.75,4.79-1.29l3.01-.55c10.95-2.41,20.24-4.58,31.9-6.44,7.03-.97,17.14-2.41,27.44-3.51,10.3-1.13,20.79-1.92,28.48-2.33,2.7-.13,5.45-.31,8.26-.36,2.81-.08,5.65-.08,8.54-.26,5.78-.28,11.64-.62,17.53-1.09m-293.78,20.46c-3.24,3.03,.74-.39-.75,1.14-1.48,1.28-3.05,2.52-4.88,3.2-.22,.09-.46,.14-.69,.2-.2,.05-.39,.07-.59,.08-.4,.02-.8-.08-1.17-.26-.19-.07-.35-.25-.34-.46,0-.21,.11-.4,.22-.58,.24-.36,.53-.63,.89-.94-.34,.23-.63,.45-.95,.77,.22-.32,.48-.59,.77-.86,.32-.3,.65-.58,.98-.84,.66-.52,1.33-.98,1.98-1.4,1.31-.83,2.57-1.5,3.79-2.06,1.5-.69,2.94-1.2,4.4-1.58-.67,.66-1.67,1.65-3.65,3.59Zm96.29,12.4s0,0,0,0c0,0,0,0,0,0Zm54.93-16.27c-.07,.02-.14,.04-.2,.05-.14-.01-.28-.04-.42-.05,.21-.01,.41,0,.62,0Zm7.27,7.41c.1,.73,.04,1.5-.18,2.24-.45,1.49-1.46,2.87-2.74,3.82-1.3,.98-2.89,1.6-4.54,2.02-1.64,.4-3.44,.66-5.11,.79-.83,.05-1.63,.03-2.35-.15-.72-.18-1.34-.53-1.83-1.01-.99-.98-1.4-2.57-1.27-4.09,.13-1.53,.7-3,1.73-4.09,2.1-2.31,5.27-3.41,8.39-4.26l1.16-.15c.05,.01,.17,0,.32-.04,.56,.09,1.12,.21,1.66,.37,.81,.23,1.57,.55,2.24,.96,.68,.4,1.27,.92,1.69,1.53,.42,.6,.74,1.32,.84,2.04Zm-1.97-5.84c-.19-.1-.39-.17-.59-.26,.05-.02,.11-.03,.16-.05,.95,.46,1.43,.82,.43,.31Zm-2.65-1.15c.29,.07,.6,.17,.9,.28-.3-.1-.6-.2-.9-.28Z"/></g><path class="cls-1" d="M196.6,176.24l.1,1.29c-.05,.36-.11,1.12-.16,.48-.02,1.19,.02,1.22,.09,2.08l-.17,1.28c-.04,1.08-.06,2.11-.06,3.13h2.14c-.01-.19-.02-.39-.04-.57-.09-3.08,.47-2.06,.21-5.27l.22-1.24c.05-1.37-.24-.99-.12-2.51,.13,.09,.12-1.92,.23-1.03,.23-3.44-.18-7,.22-11.53-.23-.99-.05-3.27-.22-4.01,.11-.12,.09-4.58,.28-2.01,.02,.22,0,.61-.04,.58l.14,.31c.32-2.58-.08-4.7,.03-7.26-.06,.76-.07,1.77-.16,1.09l.07-2.38,.11,.5,.15-3.54-.16,.48c.12-1.73,.39-2.34,.22-4.3-.1-.89-.24,1.64-.25-.19,.16-2.32,.38-5.78,.52-8.74-.18,.27-.15-.52-.16-1.34l.15-.09c-.11-3.14,.36-1.14,.29-4.26l.1,.28-.29-.83c-.21-2.82,.35-1.51,.04-4.64-.01,1.24-.35,.57-.24-.95l.13,.39c0-.84-.06-1.13-.01-1.68,.06,.5,.2,.27,.21-.97l.16,.83-.18-2.35c.22-1.8,.14-4.67,.37-5.4,0,0,.25-3.88,.06-4.78,.11,.79,.24-1.35,.38-.74-.12-1.01-.14-3.99,.08-5.17v.23c.39-4.39,.14-7.53,.53-11.46-.18,.17,.01-1.91-.23-1.4-.04-4.09,.85-7.41,.25-8.92,.07-1.86,.29-2.19,.38-3.15v.44c.16-3.48,.21-4.49,.38-7.07,.02-1.29-.31-1.52-.07-3.82,.07,.75,.12-.19,.18-1.05-.02,.55,.01,.73,.18-.4-.03-.16-.03-.41-.04-.64,.01,0,.02-.05,.03-.03,.06-1.44,0-1.2-.06-.53-.02-.04-.05,.02-.1,.22,.27-1.48,.29-4.17,.52-4.33,.27-4.33,.24-7.45,.46-11.06,.15-.4,.17,.45,.13,1.5l.18-2.56c.16,.03-.03,1.48-.07,2.26,.52-3.02,.28-6.29,.82-9.84l-.06-.75,.04-.21c-.07,0-.09-.8-.07-1.33,.18-.49,.32,.06,.46-1.7,.24-1.38,.28-3.97,.4-5.8-.12,.98-.17,.66-.17,.23,.08-.88,.27-1.38,.28-2.06l.15-.05c-.13-.14,.08-2.37,.04-2.67,.19-.49-.02,1.38,.07,1.61,.34-3.54,.17-1.77,.51-5.31,.05-1.9-.21,.32-.29-.59,.13-1.67,.16-3.31,.47-5.21l-.23,.59c.21-3.14,.46-5.01,.87-7.09,.25-4.43,.37-7.37,.38-9.22h-.99c-.36,1.9-.67,4.1-.67,4.1-.71,4.57-1.1,8.05-1.42,11.76-.28,3.71-.52,7.65-1,13.13-.53,4.8-.87,7.84-1.21,10.93-.33,3.09-.67,6.22-1,11.22-.37,4.77-.66,9.86-.96,14.52,.09,2.23-.37,6.12-.32,8.75l-.2,1.01c.02,.91,0,1.97-.13,2.87l-.04-.06c.03,1.35-.13,2.87-.11,3.54l-.04-.06-.08,1.64-.04-.28c-.02,2.36-.11,4.78-.28,6.91l.18-.17c-.41,4.56-.13,6.24-.56,10.36l-.04-.06c.23,5.23-.63,8.23-.41,13.61-.03-.67-.1,.28-.14,.23-.04,2.48-.12,5.12,.23,5.17-.06,1.8-.15,1.46-.29,1.7,.15,0,.17,1.56,.13,2.97l-.04-.65-.07,4.04,.31-.78c-.14,2.14-.36,.53-.35,2.58l.23-.02c-.13,2.96-.54,4.68-.79,7.54-.18,5.95-.2,12.13-.23,18.2,0,6.07-.07,12.04-.35,17.58l-.18,.49c-.26,.21,.35,3.06,.1,3.48Z"/><path class="cls-1" d="M380.08,38.93s-.03,0-.05,0c-.15-.02-.33-.02-.3-.03-2.55,.37-7.49,.5-9.56,.71l-.14-.12-5.11,.35,1.91-.09c-.64,.4-3.88,.02-7.57,.46-3.47,.15-6.99,1.17-10.61,1.2-1.71,.27,1.5-.37-1.06-.09-.1-.19,1.19-.19,.52-.3-2.52,.24-4.15,.04-7.25,.35l-.14-.14c-4.04,.51-7.67,.23-10.36,.64-4.18,.35-2.83-.29-7.17,.24l-1.71-.11c-1.87,.07-1.32,.32-3.4,.33,.12-.13-2.62,.04-1.41-.15-4.69,.05-9.49,.78-15.67,.76-1.33,.32-4.44,.33-5.43,.57-.17-.1-6.22,.3-2.75-.11,.3-.03,.83-.06,.79-.01l.41-.17c-3.53-.09-6.38,.47-9.87,.6,1.03,0,2.41-.08,1.49,.06l-3.23,.14,.67-.16-4.82,.17,.67,.12c-2.36,.04-3.2-.18-5.85,.17-1.2,.18,2.24,.1-.24,.27-3.16,.05-7.89,.13-11.91,.27,.38,.15-.7,.2-1.81,.29l-.14-.14c-4.26,.41-1.58-.25-5.81,.11l-.74,.24c-3.81,.48-2.08-.21-6.31,.39,1.68-.11,.81,.29-1.26,.32l.52-.17c-1.14,.08-1.52,.16-2.29,.17,.68-.11,.35-.23-1.33-.12l1.12-.23-3.17,.41c-2.46-.04-6.35,.33-7.36,.18,0,0-5.29,.14-6.49,.42,1.05-.19-1.86-.11-1.04-.31-1.36,.22-5.4,.54-7.02,.44l.31-.03c-5.99,.1-10.22,.7-15.6,.74,.25,.16-2.59,.2-1.88,.39-5.55,.47-10.15,0-12.13,.78-2.53,.15-3-.02-4.31,0l.6-.06c-4.73,.27-6.11,.34-9.63,.48-1.75,.15-2.01,.48-5.16,.54,1.01-.17-.27-.09-1.45-.04,.75-.05,.98-.11-.57-.13-.22,.05-.55,.09-.86,.12-.01,0-.08-.01-.04-.03-1.96,.13-1.62,.16-.71,.13-.05,.02,.03,.04,.32,.06-2.05-.07-5.68,.27-5.94,.06-5.9,.32-10.12,.73-15.03,1.05-.56-.09,.59-.24,2.01-.35l-3.49,.2c.02-.16,2-.19,3.07-.27-4.16-.07-8.55,.66-13.43,.64l-1,.17h-.29c.02,.06-1.07,.2-1.79,.26-.7-.11,.03-.32-2.38-.2-1.91-.05-5.41,.32-7.9,.52,1.35-.04,.92,.06,.34,.13-1.21,.06-1.91-.04-2.83,.06l-.1-.14s-.02,0-.03,.01v2.17c.63-.04,1.25-.07,1.9-.11,13.13-.54,16.62-.37,30.22-1.13,6.49-.27,13.41-.66,19.75-.99,3-.39,8.33-.38,11.88-.76l1.39,.08c1.22-.13,2.66-.24,3.9-.22l-.08,.05c1.83-.19,3.9-.22,4.81-.32l-.07,.05,2.23-.12-.38,.08c3.19-.26,6.49-.42,9.39-.5l-.25-.16c6.22-.09,8.47-.55,14.09-.58l-.07,.05c7.06-.78,11.21-.2,18.49-.98-.91,.1,.39,.07,.32,.12,3.36-.21,6.95-.4,6.99-.74,2.45-.11,2,.01,2.33,.13-.02-.15,2.1-.31,4.02-.41l-.88,.1,5.48-.31-1.09-.23c2.91-.06,.75,.31,3.54,.11l-.05-.23c4.02-.14,6.4,.1,10.3,.09,16.18-.68,33.53-2.16,48.6-2.53l.67,.14c.3,.24,4.13-.61,4.72-.4l1.74-.21c.49,.02,1.53,.01,.67,.12,1.62-.08,1.66-.12,2.82-.26l1.75,.07c6.39-.22,11.81-.82,18.53-1.15,8.09-.13,23.26-1.33,32-2.06,.82-.08,1.68-.13,2.52-.2v-1.77Z"/><g><g><path class="cls-1" d="M186.7,317.02l.65-2.59s-.22,.69-.65,2.59Z"/><path class="cls-1" d="M464.3,301.34c.17-.11,.37-.24,.53-.34-.38,.24-.49,.31-.53,.34Z"/><path class="cls-1" d="M219.52,289.34c-.02-.06-.04-.1-.05-.14-.09-.22-.2-.48-.28-.68l.33,.82Z"/></g><path class="cls-1" d="M4.7,287.98c11.77-.92,23.58-2.3,34.53-4.21,.36-.04,1-.15,1.55-.25,.27-.05,.52-.11,.7-.14,.18-.04,.29-.07,.29-.07,6.7-1.04,13.38-2.17,20.05-3.35,0,0,1.52-.27,4.02-.73,2.52-.45,5.97-1.14,9.94-1.66,1.98-.27,4.11-.52,6.3-.87,2.19-.36,4.42-.83,6.6-1.39l1.62-.43c.51-.1,1.02-.28,1.51-.32,1.01-.2,1.97-.16,2.89-.02,1.84,.33,3.54,1.45,5.16,2.43,1.61,1.01,3.15,1.93,4.52,2.68,1.38,.75,2.6,1.33,3.58,1.77,1.97,.84,2.93,1.14,2.41,.74-.51-.44-2.6-1.43-6.32-3.88-.94-.6-1.96-1.32-3.1-2.12-1.15-.79-2.4-1.71-4-2.49-1.59-.8-3.69-1.09-5.77-.76-.51,.1-1.03,.2-1.57,.31-.51,.11-1.02,.23-1.55,.35-1.05,.22-2.14,.45-3.28,.64l.47-.15c-2.69,.53-5.15,.84-7.47,1.11-2.32,.27-4.48,.55-6.52,.89-4.08,.7-7.63,1.46-11.39,2.26-1.25-.12-8.99,1.53-11.57,1.84l.24-.07c-6.64,1.37-13.8,1.98-20.23,3.1,.21-.05,.34-.15,1.32-.31-4.64,.7-10.62,1.49-10.98,1.33-5.63,.7-12.39,1.39-18.65,1.93"/><path class="cls-1" d="M29.63,282.86c.18-.03,.36-.05,.53-.08-.2,.03-.38,.06-.53,.08Z"/><g><path class="cls-1" d="M661.79,301.89c-1.14-.46-2.42-1.01-3.93-1.44-3.32-.99-7.4-2.47-12.56-3.55-1.28-.3-2.62-.62-4.02-.95-1.4-.34-2.89-.54-4.42-.83-3.08-.54-6.4-1.17-10.02-1.56l.78,.03c-2.15-.25-4.2-.48-6.16-.7-1.97-.18-3.86-.3-5.67-.43-1.82-.12-3.56-.27-5.25-.36-1.69-.06-3.32-.12-4.91-.18-1.59-.05-3.14-.1-4.66-.15-1.52,0-3.02-.02-4.5-.02-2.96-.01-5.88,0-8.85,.08-1.88-.37-14.17,0-18.2-.07l.38-.03c-10.51,.35-21.63-.16-31.73-.34,.39,0,.61-.09,2.93,0-3.67-.17-8.03-.27-11.53-.54-3.49-.28-6.13-.52-6.39-.65-2.19-.12-4.47-.48-6.82-.74-1.18-.14-2.37-.29-3.58-.43-1.25-.13-2.33-.3-3.47-.64-4.56-1.34-9-3.88-13.43-5.99-2.24-1.05-4.43-2.12-6.97-2.6-.64-.11-1.32-.17-2.06-.06-.72,.1-1.56,.42-2.13,1.05-.16,.14-.25,.31-.37,.47l-.16,.24-.11,.17-.42,.67c-.28,.45-.55,.88-.82,1.32-2.22,3.43-4.55,6.18-6.41,8.25l.48-.6c-1.03,1.2-2,2.08-2.82,2.92-.88,.78-1.67,1.47-2.5,2.16-.86,.65-1.72,1.33-2.74,2.08-1.06,.71-2.21,1.59-3.73,2.5-.34,.18-.78,.43-.72,.38-2.91,1.87-7.46,4.13-12.1,5.72-4.61,1.63-9.29,2.62-12.01,3.1l-.37-.08c-1.66,.23-3.33,.31-4.93,.08,.61-1.61,1.18-3.36,1.19-5.34-.02-1.16-.2-2.36-.88-3.52-.67-1.09-1.63-1.93-2.78-2.45-.58-.25-1.21-.44-1.88-.49-.68-.04-1.4,.07-2.06,.38l-.48,.26c-.15,.11-.27,.21-.46,.36-.2,.13-.29,.32-.4,.47l-.26,.39c-.16,.27-.29,.56-.42,.85-.09,.3-.21,.6-.27,.9-.52,2.47,.34,4.84,1.72,6.62,.7,.9,1.57,1.68,2.58,2.24,.56,.32,1.15,.57,1.74,.77-.7,1.97-1.4,3.94-2.11,5.93-.81,2.29-1.63,4.59-2.48,6.88l-1.31,3.44c-.44,1.14-.89,2.28-1.53,3.31-.57,.99-.83,1.2-.79,1.16,.03-.05,.27-.4,.44-.72,.17-.32,.28-.58,.15-.41-.07,.09-.2,.28-.44,.63-.25,.33-.62,.81-1.27,1.27-.13-.02,.46-.45,.81-.91,.35-.45,.56-.77,0-.18-.97,1.21-2.36,1.7-3.66,1.47-1.31-.22-2.49-1-3.57-1.93-1.09-.95-2.05-2.1-3.12-3.45-1.09-1.31-2.23-2.78-3.54-4.44l-.09-.37c-6.82-8.69-11.56-17.35-15.71-23.44-3.08-4.82-4.01-6.5-4.99-8.22-.99-1.72-2-3.49-5.43-8.39l-2.4-3.95c-1.36-2.12-1.88-2.87-2.44-3.67-.55-.8-1.14-1.67-2.5-4.13,.25,.25-3.37-6.25-1.67-3.43-5.92-11.24-11.88-22.99-18.03-38.64-1.64-3.27-4.65-11.19-5.81-13.66-.09-.45-6.09-15.84-2.47-7.05,.31,.76,.83,2.1,.75,2.03l.55,1.01c-3.21-9.04-6.33-16.24-9.63-25.16,.95,2.66,2.27,6.16,1.3,3.85l-3.1-8.28,.77,1.68c-.68-1.82-1.37-3.64-2.09-5.46-.36-.91-.73-1.82-1.14-2.74-.21-.46-.42-.92-.7-1.42-.07-.13-.15-.26-.25-.4-.12-.15-.18-.3-.55-.6-.14-.09-.2-.16-.58-.27-.17-.03-.29-.06-.56-.02-.22,.03-.5,.16-.61,.25-.13,.1-.25,.22-.34,.35-.08,.12-.09,.15-.13,.23-.03,.07-.07,.15-.09,.21l-.03,.12c-.08,.34-.07,.48-.09,.67v.04s0,.11,0,.11l.11,1.51v-1.52s0-.14,0-.14c.01-.14,.03-.28,.07-.47-.03,.2-.04,.35-.05,.47v.03s0,.11,0,.11c.17,3.09,.29,5.22,.41,7.46,.1,2.24,.22,4.59,.53,8.13,.28,3.27-.12-6.08,.28,.68,.35,8.58,.34,21.44,.04,32.4,.19-1.02,.14,1.93,.09,4.96l-.16,.35c-.16,11.64-.45,4.25-.74,15.81l.12,2.04c-.17,10.44-.57,5.61-.7,17.21,.19-4.58,.42-2.15,.11,3.49l-.08-1.44c-.11,3.12-.1,4.17-.21,6.25,0-1.86-.17-.99-.33,3.6l-.05-3.09-.07,8.7c-.11,1.73-.18,3.71-.25,5.76-.27,.11-.53,.22-.81,.3-.8,.24-1.65,.38-2.51,.45-.83,.06-1.8,.07-2.64,.1-1.71,.05-3.23,.08-4.33,.07l.83-.05c-8.15,.2-15.11,.35-21.86,.34-6.76,0-13.26-.22-20.58-.86,.32,.12-1.43-.02-3.16,.03-.21,0-.43,.01-.63,.02-.22,.03-.42,.05-.62,.08-.39,.06-.72,.07-.98,.18-.5,.16-.63,.23-.08,.14-1.69,.39-3.07,1.38-4.16,2.24-.12,.08-.23,.23-.39,.17-.07-.01-.14-.05-.2-.09-.08-.05-.09-.06-.25-.18-.52-.43-1.03-1.01-1.5-1.58-.95-1.16-1.81-2.4-2.63-3.6-1.63-2.41-3.05-4.72-4.47-6.79-.36-.52-.71-1.02-1.1-1.52-.34-.45-.67-.88-.99-1.32-.63-.87-1.21-1.73-1.86-2.52-.33-.39-.68-.78-1.1-1.12-.41-.33-1-.69-1.65-.77-.63-.07-1.28,.13-1.68,.43-.44,.28-.68,.59-.92,.87-.66,.76-1.07,1.38-1.49,1.98-.41,.59-.75,1.14-1.06,1.64-.61,1-1.07,1.82-1.47,2.54-.8,1.45-1.36,2.54-2.12,4.15l.66-1.51c-2.67,5.9-4.42,9.62-6.52,12.61-.52,.75-1.05,1.47-1.61,2.17-.53,.65-1.13,1.25-1.8,1.78-1.34,1.03-3.12,1.83-5.08,1.44-.97-.18-1.69-.58-2.31-1.04-.54-.37-1.09-1.04-1.67-1.72-1.11-1.42-2.59-3.26-4.28-7.1,.61,1.21,.57,1.03,.2,.2-.18-.41-.42-.99-.66-1.65,1.1-.42,2.17-1.01,3.07-1.77,1.01-.85,1.9-1.88,2.53-3.08,.64-1.19,1.03-2.57,1.01-3.99,0-.71-.1-1.4-.32-2.11-.22-.7-.58-1.53-1.46-2.18-.89-.66-2.11-.7-2.92-.44-.83,.25-1.46,.66-2,1.09-.53,.45-.98,.9-1.4,1.42-.22,.25-.41,.53-.59,.85-.2,.3-.34,.61-.47,.91-.55,1.23-.79,2.55-.82,3.81-.02,1.3,.15,2.55,.43,3.74-.74,.11-1.48,.16-2.22,.15-1.52-.03-3.03-.28-4.47-.67-.75-.19-1.37-.4-2-.71-.63-.3-1.24-.7-1.84-1.1-2.38-1.65-4.47-3.67-6.55-5.67-1.04-1-2.07-2.03-3.18-3.02-.12-.11-.31-.27-.51-.44-.19-.17-.39-.32-.59-.46-.4-.3-.81-.51-1.21-.63-.2-.05-.41-.09-.62-.04-.23,.03-.4,.21-.49,.38-.09,.16-.15,.37-.22,.58-.07,.19-.11,.44-.15,.69-.17,1.37-.35,2.8-.53,4.26-.13,.64-.15,.42-.09-.34,.04-.38,.09-.9,.15-1.51,.08-.74,.18-1.61,.28-2.54,.03-.17,.05-.37,.1-.53,.05-.15,.11-.3,.16-.45,.11-.29,.23-.53,.58-.7-.34,.15-.46,.39-.58,.67l-.17,.45c-.06,.15-.07,.36-.11,.54l-.56,4.39-.53,3.94c-.07-.05,.08-1.28,.3-2.87,.23-1.75,.5-3.89,.71-5.51,.05-.24,.07-.48,.14-.62-.08,.14-.1,.41-.15,.61-.42,2.94-.85,5.91-1.28,8.94-.42,2.86-.86,5.77-1.3,8.73-.93,5.93-2.02,12.08-3.5,18.46l-.46,2.72-.19,.77s-.09,.71-.27,1.68c-.18,.97-.44,2.18-.65,3.14-.28,.9-.35,.85-.54,1.36-.09,.26-.23,.65-.45,1.36-.23,.71-.55,1.74-1.2,3.16-.56,1.09-1.3,2.4-2.43,3.42-1.1,1.04-2.68,1.68-4.37,1.52-1.68-.15-3.54-.97-5.07-1.89-1.54-.97-2.87-2.24-3.99-3.46,1.19,1.33,1.64,1.73,1.59,1.73-.04,0-.56-.44-1.1-.98-2.18-2.37-3.11-4.02-4.54-6.08v-.28c-.17-.14-1.15-1.61-2.16-3.36-1.24-2.11-2.5-4.57-2.8-5.09-.35-.87,.23,.26,.99,1.68,.76,1.42,1.71,3.1,1.96,3.42-1.6-2.85-2.51-4.69-3.15-5.98-.63-1.29-.99-2.03-1.34-2.77-.7-1.49-1.41-2.99-4.22-8.96-.82-1.58-1.26-2.26-1.47-2.57-.2-.28-.02,.06,.18,.46,.35,.73,.88,1.86,0,.39-.37-.65-.95-1.68-1.59-2.25-.32-.26-.69-.57-1.16-.43-.4,.19-.61,.59-.72,.96-.52,1.51-1.05,3.03-1.59,4.58-.94,2.71-1.92,5.49-3.01,8.43-.35-.63-.71-1.24-1.12-1.85-3.29-4.43-7.16-7.46-10.59-9.98-3.45-2.53-6.54-4.61-9.25-6.35-5.43-3.47-9.34-5.6-11.9-6.94-5.15-2.64-4.89-2.25-2.21-.59,2.66,1.65,7.63,4.7,11.79,7.54,4.17,2.83,7.58,5.38,7.58,5.38,2.36,1.79,4.63,3.5,6.64,5.26,2.01,1.77,3.82,3.6,5.34,5.52,1.22,1.52,2.22,3.12,2.94,4.77-.39,1.18-.55,2.35-.55,3.48,.03,1.13,.17,2.24,.69,3.19,.24,.48,.65,.89,1.11,1.15,.48,.29,1.04,.27,1.54,.24h.13s.02-.15,.02-.15c.4-2.37,.16-4.64-.47-6.72-.14-.46-.3-.91-.47-1.35,.28-.81,.55-1.62,.83-2.43,.66-1.94,1.33-3.9,2.01-5.9,.34-1,.69-2.02,1.04-3.05,.18-.51,.35-1.03,.53-1.55l.21-.61s.03-.06,.06-.05c.05,.01,.08,.06,.12,.11l.03,.04,.11,.19,.41,.74c.57,1.07,1.13,2.2,1.68,3.36,1.11,2.35,2.27,4.77,3.47,7.29,1.23,2.53,2.54,5.15,4.05,7.83,1.51,2.68,3.19,5.44,5.3,8.14,1.31,1.69,2.71,3.23,4.29,4.54,.79,.65,1.62,1.23,2.51,1.72,.86,.47,1.73,.87,2.66,1.2,.92,.32,1.9,.54,2.91,.59,1.01,.05,2.04-.12,2.97-.46,1.91-.66,3.3-2.07,4.29-3.44,1.94-2.84,2.75-5.82,3.41-8.57,.66-2.72,1.26-5.35,1.85-7.97,1.15-5.24,2.21-10.44,3.25-16.26,.52-2.91,1.03-5.98,1.54-9.29,.24-1.66,.49-3.37,.75-5.16,.2-1.52,.41-3.09,.63-4.74-.01-.05,.03-.06,.07-.03h.02s.25,.24,.25,.24c.23,.21,.46,.43,.69,.64,.47,.46,.95,.92,1.43,1.39,1.57,1.56,3.17,3.16,4.92,4.69,.88,.76,1.79,1.51,2.78,2.2,.99,.69,2.06,1.35,3.35,1.81,2.35,.77,4.73,1.23,7.28,1.15,.65-.03,1.3-.09,1.95-.21,.1,.28,.21,.56,.31,.84,.86,1.99,2.05,4.24,3.59,6.53,.78,1.16,1.58,2.29,2.65,3.48,.12,.13,.35,.37,.51,.48l.5,.39c.34,.25,.73,.47,1.11,.68,.79,.4,1.67,.64,2.56,.75,1.81,.18,3.58-.35,5.04-1.19,1.45-.85,2.67-2.01,3.6-3.24,1.83-2.32,3.28-4.77,4.37-7,.64-1.11,1.24-2.24,1.82-3.36,1.4-3.09,2.87-6.72,4.59-9.47l-.07,.2c.58-1.06,1.25-2.11,1.96-3.1,.31-.42,.69-.85,.91-.97,.13-.09,.13-.07,.2-.07,.06-.02,.09,0,.2,.05,.21,.14,.57,.46,.86,.83,.31,.36,.6,.76,.87,1.14,.55,.76,1.03,1.45,1.42,1.95l-.16-.15c.29,.41,.66,.86,.94,1.24,.29,.37,.58,.77,.86,1.17l1.69,2.49-.63-.83c1.47,2.13,2.92,4.33,4.48,6.48,.79,1.07,1.59,2.14,2.53,3.16,.23,.26,.48,.51,.75,.76,.14,.13,.27,.25,.43,.37,.12,.1,.41,.32,.64,.44,.48,.31,1.03,.46,1.57,.43,.55-.05,1-.34,1.42-.76,.4-.19,.69-.5,1.03-.7,.33-.19,.65-.44,.98-.58,.33-.13,.63-.33,.97-.38,.33-.09,.66-.19,1.03-.2,1.45-.15,3.09-.02,4.68,.09l-.64-.22c8.44,.7,14.29,.85,19.88,.87,5.6,.05,10.98-.06,18.65-.12l-.21,.05c2.42-.12,4.71-.24,6.91-.35,1.1-.05,2.18-.09,3.24-.14,1.12-.06,2.23-.22,3.31-.51,.09-.02,.18-.05,.27-.08-.03,1.18-.06,2.35-.09,3.48v.11s0,.07,0,.07c.03,.16,.03,.27,.13,.58,0,.02,.05,.12,.07,.17,.01,.03,.1,.2,.23,.32,.02,.03,.19,.19,.4,.28,.2,.08,.4,.12,.66,.09,.12-.02,.24-.06,.35-.1,.11-.05,.11-.06,.17-.1,.09-.06,.17-.13,.24-.21,.06-.08,.11-.14,.15-.22l.06-.12c.04-.08,.05-.12,.08-.18,.12-.36,.16-.57,.22-.82,.1-.47,.17-.91,.25-1.33,.14-.84,.26-1.62,.38-2.34,.08-.51,.16-.97,.23-1.4,.65-.48,1.25-1.02,1.77-1.61,.72-.8,1.31-1.69,1.82-2.53,.52-.86,1-1.75,1.42-2.69,.41-.94,.79-1.92,.98-3.06,.04-.29,.07-.58,.07-.93,0-.39-.06-.84-.22-1.22-.29-.78-.95-1.4-1.75-1.63-.81-.24-1.69-.03-2.43,.47-.66,.46-1.02,.91-1.39,1.41-.35,.5-.63,1.02-.86,1.58-.11,.25-.2,.54-.28,.83,.04-2.57,.03-4.24-.11-4.31,.27-6.68,.34-5.43,.51-6.3-.08,.02-.06-1.43,0-3.53,.06-2.1,.17-4.86,.29-7.46l-.05,2.4,.63-14.96-.41,2.93c.42-7.93,.45-2,.67-9.6l-.24,.09c.44-10.97,.96-17.41,1.11-28.06-.02-10-.42-20.18-1.21-30.38,.02,.05,.04,.1,.06,.15,.78,1.92,1.53,3.87,2.28,5.82,1.48,3.91,2.96,7.81,4.44,11.71,2.96,7.8,5.95,15.55,9,23.18,6.12,15.25,12.45,30.03,19.32,43.62l.69,1.69c.07,.41,1.49,2.89,3.02,5.41,1.53,2.52,3.19,5.08,3.5,5.81,.87,1.35,1.77,2.68,2.68,4,.72,1.16,2.26,3.52,.88,1.59,2.45,3.65,2.53,3.73,4.33,6.34l2.41,4.08c4.6,7.39,8.83,14.27,13.42,21.08,2.29,3.41,4.66,6.8,7.25,10.2,1.29,1.7,2.62,3.42,4.04,5.12,1.36,1.7,2.94,3.57,5.14,4.88,.66,.4,1.42,.74,2.28,.94,.85,.2,1.83,.22,2.76-.04,.93-.24,1.82-.76,2.5-1.42,.7-.66,1.22-1.44,1.67-2.22,.87-1.6,1.41-3.21,2.08-4.82,.65-1.63,1.31-3.3,2-5.01,1.22-3.09,2.49-6.31,3.78-9.58,1.9,.32,3.77,.27,5.53,.04,1.97-.24,3.8-.71,5.6-1.11,1.79-.47,3.54-.91,5.21-1.47,3.35-1.05,6.42-2.31,9.15-3.63,7.66-3.7,15.01-8.99,20.87-15.94,1.47-1.73,2.84-3.55,4.1-5.47l.93-1.45c.36-.55,.52-.82,.78-1,.53-.37,1.57-.32,2.56-.09,2.03,.51,4.08,1.49,6.09,2.48,2.03,1.03,4.07,2.06,6.11,3.09,2.07,1.01,4.18,2,6.43,2.76,1.12,.38,2.28,.71,3.51,.9l3.41,.44c2.27,.29,4.55,.58,6.81,.86,2.27,.19,4.54,.38,6.8,.57,1.13,.09,2.26,.2,3.38,.26,1.13,.05,2.25,.11,3.37,.16,2.24,.1,4.48,.22,6.7,.29,4.44,.06,8.83,.19,13.13,.12,.56,.02,1.57,.01,2.43,0,.43-.01,.83-.02,1.11-.03,.29-.01,.46-.02,.46-.03,10.51,.03,21-.12,31.48-.07,0,0,2.38,.03,6.32,.08,3.94,.02,9.43,.21,15.66,.49,3.1,.22,6.4,.38,9.76,.68,1.68,.17,3.38,.35,5.09,.53,1.7,.19,3.43,.3,5.12,.6,1.7,.26,3.39,.51,5.07,.76,1.68,.25,3.34,.48,4.94,.85,1.61,.33,3.19,.66,4.73,.97,1.54,.32,3.04,.59,4.45,1.01,2.84,.76,5.46,1.46,7.77,2.08,.99,.33,1.91,.64,2.77,.93v-.87Zm-517.49,5.82l.42-.96c-.12,.36-.24,.71-.36,1.06-.02-.03-.04-.07-.06-.1Zm78.24-30.47c.56-.51,1.25-.88,1.77-.89,.25,0,.42,.08,.6,.24,.18,.15,.33,.43,.44,.73,.21,.62,.3,1.33,.26,1.94-.05,.62-.19,1.17-.36,1.63-.35,.92-.8,1.45-.91,1.55-.9,1.31-2.18,2.31-3.56,2.89-.07-.34-.13-.74-.19-1.21-.12-.54-.22-1.39-.18-2.17,.01-.03,.03-.18,.04-.1,.07-1.21,.37-2.01,.59-2.5,.21-.52,.38-.7,.38-.76,.06-.1-.41,.47-.76,1.54,.01-.08-.03,0-.12,.25,.14-.47,.32-.95,.57-1.42,.32-.6,.86-1.19,1.43-1.7Zm108.43,15.93s0,0,0,0c0,0,0,0,0,0Zm4.46-11.46c.08-.44,.17-.89,.26-1.36,.05-.23,.1-.46,.15-.7,.04-.18,.09-.37,.16-.56,.27-.75,.75-1.56,1.24-1.97,.21-.22,.45-.18,.58,0,.03,.04,.04,.09,.06,.14,.01,.04,.01,.08,.01,.26,0,.29-.06,.61-.11,.91-.12,.6-.31,1.12-.41,1.48,.39-1.27,0-.19-.59,.92-.58,1.12-1.34,2.24-.87,1.28-.2,.39-.46,.88-.79,1.42,0,0-.01,.02-.02,.03,.1-.56,.21-1.16,.32-1.83Zm94.42,26.27c-.75-.81-1.58-2.1-1.78-3.72-.1-.8-.04-1.67,.3-2.45,.11-.18,.18-.39,.31-.57,.15-.19,.21-.34,.32-.38,.3-.23,.65-.36,1.06-.39,.82-.06,1.8,.35,2.55,1.01,.79,.68,1.21,1.55,1.35,2.69,.17,1.77-.38,3.64-1.05,5.52-.88-.31-1.7-.72-2.37-1.28,.38,.32,.79,.62,1.23,.85-.41-.1-1.14-.44-1.91-1.27Z"/><polygon class="cls-1" points="332.32 244.7 332.32 244.7 332.26 243.68 332.32 244.7"/><path class="cls-1" d="M429.08,306.7c-.15-.25-.3-.5-.42-.77,.12,.27,.27,.52,.42,.77Z"/><path class="cls-1" d="M164.32,319.03v.08s.05,.02,0-.08Z"/><path class="cls-1" d="M429.51,307.33s-.05-.06-.08-.1c.02,.03,.05,.06,.08,.1Z"/><path class="cls-1" d="M429.44,307.23c-.13-.17-.24-.35-.36-.53,.11,.18,.23,.36,.36,.53Z"/><path class="cls-1" d="M429.51,307.33c.28,.37,.59,.7,.93,1-.34-.3-.65-.64-.93-1Z"/><path class="cls-1" d="M430.51,308.39s.02,.01,.02,.02c-.03-.03-.06-.05-.09-.08,.02,.02,.04,.04,.07,.07Z"/></g></g></g></svg>