<?xml version="1.0" encoding="UTF-8"?><svg id="Layer_2" xmlns="http://www.w3.org/2000/svg" viewBox="0 0 980.71 78.39"><defs><style>.cls-1{fill:#010101;}</style></defs><g id="Layer_2-2"><g id="Layer_1-2"><polygon class="cls-1" points="605.06 76.8 653.99 76.8 653.99 63.02 619.68 63.02 619.68 45.65 644.68 45.65 644.68 32.62 619.68 32.62 619.68 15.45 653.99 15.45 653.99 1.68 605.06 1.68 605.06 76.8"/><polygon class="cls-1" points="727 49.95 726.11 49.95 695.74 1.68 677.52 1.68 677.52 76.8 692.14 76.8 692.14 25.46 693.39 25.46 726.26 76.8 741.62 76.8 741.62 1.68 727 1.68 727 49.95"/><path class="cls-1" d="m810.86,49.94c-1.2,3-2.83,5.49-4.87,7.47-2.05,1.98-4.45,3.44-7.2,4.4-2.75.96-5.65,1.43-8.69,1.43h-11.65V15.24h11.76c3.04,0,5.93.5,8.69,1.49,2.75.99,5.14,2.47,7.15,4.45,2.01,1.98,3.62,4.47,4.82,7.47s1.8,6.55,1.8,10.65-.6,7.65-1.8,10.65m6.41-38.35c-3.28-3.21-7.19-5.67-11.71-7.36s-9.47-2.54-14.83-2.54h-26.91v75.12h26.8c5.37,0,10.31-.85,14.83-2.54,4.52-1.7,8.44-4.13,11.76-7.31s5.91-7.1,7.79-11.76c1.87-4.66,2.81-9.96,2.81-15.89s-.94-11.23-2.81-15.89-4.45-8.6-7.73-11.81"/><polygon class="cls-1" points="846.05 76.8 894.98 76.8 894.98 63.02 860.67 63.02 860.67 45.65 885.66 45.65 885.66 32.62 860.67 32.62 860.67 15.45 894.98 15.45 894.98 1.68 846.05 1.68 846.05 76.8"/><polygon class="cls-1" points="966.09 1.68 966.09 49.95 965.2 49.95 934.84 1.68 916.61 1.68 916.61 76.8 931.23 76.8 931.23 25.45 932.48 25.45 965.35 76.8 980.71 76.8 980.71 1.68 966.09 1.68"/><polygon class="cls-1" points="557.36 51.81 556.04 51.81 544.65 14.61 533.45 14.61 522.39 51.81 520.78 51.81 506.14 1.66 491.01 1.66 513.84 76.8 528.22 76.8 538.73 39.71 539.76 39.71 551.21 76.8 565.48 76.8 585.86 1.66 571.15 1.66 557.36 51.81"/><path class="cls-1" d="m32.95,32.71c-10.97-2.6-17.24-5.33-17.24-12.51,0-5.5,4.47-8.31,11.91-8.31s11.69,4.32,13.03,10.31h12.8C52.37,9.34,42.22,0,28.09,0,5.67,0,2.15,15.04,2.15,21.52c0,12.66,9.44,18.69,23.58,22.12l.27.07c10.26,2.54,14.84,5.57,14.84,12.43,0,6.21-3.99,10.42-12.18,10.42-11.14,0-14.41-6.69-14.98-14.57H0c0,14.25,10.16,26.31,27.67,26.31,16.31,0,27.1-9.41,27.1-23.48,0-12.89-9.89-19.25-21.82-22.1"/><polygon class="cls-1" points="70.1 15.56 93.83 15.56 93.83 76.8 108.56 76.8 108.56 15.56 132.29 15.56 132.29 1.68 70.1 1.68 70.1 15.56"/><path class="cls-1" d="m274.73,49.85c-1.2,3-2.83,5.49-4.87,7.47-2.05,1.98-4.45,3.44-7.21,4.4-2.75.96-5.65,1.43-8.69,1.43h-11.65V15.15h11.76c3.04,0,5.93.5,8.69,1.49,2.75.99,5.14,2.47,7.15,4.45,2.01,1.98,3.62,4.47,4.82,7.47s1.8,6.55,1.8,10.65-.6,7.65-1.8,10.65m6.41-38.35c-3.28-3.21-7.19-5.67-11.71-7.36-4.52-1.7-9.46-2.54-14.83-2.54h-26.91v75.11h26.8c5.37,0,10.31-.85,14.83-2.54s8.44-4.13,11.76-7.31,5.91-7.1,7.79-11.76c1.87-4.66,2.81-9.96,2.81-15.89s-.94-11.23-2.81-15.89-4.45-8.6-7.73-11.81"/><rect class="cls-1" x="309.57" y="1.68" width="14.83" height="75.12"/><g><path class="cls-1" d="m402.36,50.17c-1.34,3.14-3.12,5.74-5.35,7.79-2.22,2.05-4.75,3.58-7.58,4.61s-5.69,1.53-8.58,1.53-5.74-.51-8.53-1.53-5.3-2.56-7.52-4.61c-2.23-2.05-4.01-4.64-5.35-7.79-1.34-3.14-2.01-6.83-2.01-11.07s.67-7.93,2.01-11.07,3.12-5.74,5.35-7.78c2.22-2.05,4.73-3.59,7.52-4.61,2.79-1.02,5.63-1.54,8.53-1.54s5.75.51,8.58,1.54c2.83,1.02,5.35,2.56,7.58,4.61,2.22,2.05,4.01,4.64,5.35,7.78,1.34,3.14,2.01,6.83,2.01,11.07s-.67,7.93-2.01,11.07m5.51-39.68c-3.53-3.39-7.65-5.99-12.34-7.79-4.7-1.8-9.59-2.7-14.67-2.7s-9.96.9-14.62,2.7c-4.66,1.8-8.76,4.4-12.29,7.79-3.53,3.39-6.36,7.51-8.48,12.34-2.12,4.84-3.18,10.29-3.18,16.37s1.06,11.51,3.18,16.32c2.12,4.8,4.94,8.9,8.48,12.29,3.53,3.39,7.63,5.99,12.29,7.79s9.54,2.7,14.62,2.7,9.97-.9,14.67-2.7c4.7-1.8,8.81-4.4,12.34-7.79s6.36-7.49,8.48-12.29c2.12-4.8,3.18-10.24,3.18-16.32s-1.06-11.53-3.18-16.37c-2.12-4.84-4.94-8.95-8.48-12.34"/><path class="cls-1" d="m193.11,49.05c0,4.94-1.27,8.69-3.81,11.23s-6.04,3.81-10.49,3.81-7.84-1.27-10.38-3.81c-2.54-2.54-3.81-6.29-3.81-11.23V1.59h-14.62v48.52c0,4.59.76,8.65,2.28,12.18s3.57,6.5,6.14,8.9c2.58,2.4,5.61,4.2,9.11,5.4,3.49,1.2,7.26,1.8,11.28,1.8s7.8-.6,11.34-1.8c3.53-1.2,6.59-3,9.16-5.4,2.58-2.4,4.62-5.37,6.15-8.9,1.52-3.53,2.28-7.59,2.28-12.18V1.59h-14.62v47.46h0Z"/></g></g></g></svg>