<?xml version="1.0" encoding="utf-8"?>
<!-- Generator: Adobe Illustrator 27.5.0, SVG Export Plug-In . SVG Version: 6.00 Build 0)  -->
<svg version="1.1" id="Layer_2_00000152957876328128501860000016905801618720763580_"
	 xmlns="http://www.w3.org/2000/svg" xmlns:xlink="http://www.w3.org/1999/xlink" x="0px" y="0px" viewBox="0 0 980.7 78.4"
	 style="enable-background:new 0 0 980.7 78.4;" xml:space="preserve">
<style type="text/css">
	.st0{fill:#010101;}
</style>
<g id="Layer_2-2">
	<g id="Layer_1-2">
		<polygon class="st0" points="557.4,51.8 556,51.8 544.7,14.6 533.5,14.6 522.4,51.8 520.8,51.8 506.1,1.7 491,1.7 513.8,76.8 
			528.2,76.8 538.7,39.7 539.8,39.7 551.2,76.8 565.5,76.8 585.9,1.7 571.2,1.7 		"/>
		<path class="st0" d="M33,32.7c-11-2.6-17.2-5.3-17.2-12.5c0-5.5,4.5-8.3,11.9-8.3s11.7,4.3,13,10.3h12.8C52.4,9.3,42.2,0,28.1,0
			C5.7,0,2.2,15,2.2,21.5c0,12.7,9.4,18.7,23.6,22.1l0.3,0.1c10.3,2.5,14.8,5.6,14.8,12.4c0,6.2-4,10.4-12.2,10.4
			c-11.1,0-14.4-6.7-15-14.6H0c0,14.2,10.2,26.3,27.7,26.3c16.3,0,27.1-9.4,27.1-23.5C54.8,41.9,44.9,35.6,33,32.7"/>
	</g>
</g>
</svg>
